G04 Layer_Color=8388736*
%FSLAX42Y42*%
%MOMM*%
G71*
G01*
G75*
%ADD80C,0.76*%
%ADD81C,0.76*%
D80*
X9017Y9220D02*
G03*
X9006Y9247I-38J0D01*
G01*
X9017Y9220D02*
G03*
X9006Y9247I-38J0D01*
G01*
X8815Y9438D02*
G03*
X8769Y9444I-27J-27D01*
G01*
X8815Y9438D02*
G03*
X8769Y9444I-27J-27D01*
G01*
X9006Y499D02*
G03*
X9017Y526I-27J27D01*
G01*
X9006Y499D02*
G03*
X9017Y526I-27J27D01*
G01*
X8570Y79D02*
G03*
X8597Y90I0J38D01*
G01*
X8570Y79D02*
G03*
X8597Y90I0J38D01*
G01*
X478Y9444D02*
G03*
X451Y9433I0J-38D01*
G01*
X478Y9444D02*
G03*
X451Y9433I0J-38D01*
G01*
X42Y9024D02*
G03*
X30Y8997I27J-27D01*
G01*
X42Y9024D02*
G03*
X30Y8997I27J-27D01*
G01*
X346Y90D02*
G03*
X373Y79I27J27D01*
G01*
X346Y90D02*
G03*
X373Y79I27J27D01*
G01*
X8815Y9438D02*
X8815Y9438D01*
X9006Y9247D01*
X9006Y9247D01*
X9017Y9182D02*
Y9220D01*
Y526D02*
Y9182D01*
X9006Y499D02*
X9006Y499D01*
X8597Y90D02*
X9006Y499D01*
X8597Y90D02*
X8597Y90D01*
X8451Y79D02*
X8570D01*
X480Y9444D02*
X8769D01*
X478D02*
X480D01*
X451Y9433D02*
X451Y9433D01*
X42Y9024D02*
X451Y9433D01*
X42Y9024D02*
X42Y9024D01*
X30Y422D02*
Y8997D01*
X373Y79D02*
X8451D01*
X42Y395D02*
X344Y92D01*
X344Y92D01*
X344Y92D01*
X346Y90D01*
X346Y90D01*
D81*
X344Y92D02*
D03*
X344Y92D02*
D03*
M02*
