G04 Layer_Physical_Order=2*
G04 Layer_Color=16711680*
%FSLAX42Y42*%
%MOMM*%
G71*
G01*
G75*
%ADD29C,0.33*%
%ADD31C,1.65*%
%ADD32C,2.00*%
%ADD33C,1.68*%
%ADD34C,5.00*%
%ADD35C,1.27*%
%ADD36C,1.50*%
G36*
X8915Y9182D02*
Y548D01*
X8759Y391D01*
X8748Y399D01*
X8761Y429D01*
X8771Y471D01*
X8774Y514D01*
X8771Y557D01*
X8761Y600D01*
X8744Y640D01*
X8721Y677D01*
X8693Y710D01*
X8660Y738D01*
X8623Y760D01*
X8583Y777D01*
X8541Y787D01*
X8498Y790D01*
X8455Y787D01*
X8413Y777D01*
X8373Y760D01*
X8336Y738D01*
X8303Y710D01*
X8275Y677D01*
X8252Y640D01*
X8235Y600D01*
X8225Y557D01*
X8222Y514D01*
X8225Y471D01*
X8235Y429D01*
X8252Y389D01*
X8275Y352D01*
X8303Y319D01*
X8336Y291D01*
X8373Y268D01*
X8413Y251D01*
X8455Y241D01*
X8498Y238D01*
X8541Y241D01*
X8583Y251D01*
X8614Y264D01*
X8621Y253D01*
X8547Y180D01*
Y178D01*
X394D01*
X127Y445D01*
Y8966D01*
X495Y9335D01*
X737D01*
X741Y9322D01*
X714Y9305D01*
X681Y9277D01*
X653Y9244D01*
X630Y9207D01*
X613Y9167D01*
X603Y9125D01*
X600Y9082D01*
X603Y9038D01*
X613Y8996D01*
X630Y8956D01*
X653Y8919D01*
X681Y8886D01*
X714Y8858D01*
X751Y8836D01*
X791Y8819D01*
X833Y8809D01*
X876Y8805D01*
X919Y8809D01*
X961Y8819D01*
X1001Y8836D01*
X1038Y8858D01*
X1071Y8886D01*
X1099Y8919D01*
X1122Y8956D01*
X1139Y8996D01*
X1149Y9038D01*
X1152Y9082D01*
X1149Y9125D01*
X1139Y9167D01*
X1122Y9207D01*
X1099Y9244D01*
X1071Y9277D01*
X1038Y9305D01*
X1011Y9322D01*
X1015Y9335D01*
X8107D01*
X8111Y9322D01*
X8084Y9305D01*
X8051Y9277D01*
X8023Y9244D01*
X8000Y9207D01*
X7983Y9167D01*
X7973Y9125D01*
X7970Y9082D01*
X7973Y9038D01*
X7983Y8996D01*
X8000Y8956D01*
X8023Y8919D01*
X8051Y8886D01*
X8084Y8858D01*
X8121Y8836D01*
X8161Y8819D01*
X8203Y8809D01*
X8246Y8805D01*
X8289Y8809D01*
X8331Y8819D01*
X8371Y8836D01*
X8408Y8858D01*
X8441Y8886D01*
X8469Y8919D01*
X8492Y8956D01*
X8509Y8996D01*
X8519Y9038D01*
X8522Y9082D01*
X8519Y9125D01*
X8509Y9167D01*
X8492Y9207D01*
X8469Y9244D01*
X8441Y9277D01*
X8408Y9305D01*
X8381Y9322D01*
X8385Y9335D01*
X8763D01*
X8915Y9182D01*
D02*
G37*
%LPC*%
G36*
X5196Y8448D02*
X5167Y8445D01*
X5140Y8434D01*
X5118Y8416D01*
X5100Y8393D01*
X5089Y8367D01*
X5085Y8338D01*
X5089Y8310D01*
X5100Y8283D01*
X5118Y8260D01*
X5140Y8243D01*
X5167Y8232D01*
X5196Y8228D01*
X5224Y8232D01*
X5251Y8243D01*
X5273Y8260D01*
X5291Y8283D01*
X5302Y8310D01*
X5306Y8338D01*
X5302Y8367D01*
X5291Y8393D01*
X5273Y8416D01*
X5251Y8434D01*
X5224Y8445D01*
X5196Y8448D01*
D02*
G37*
G36*
X4688D02*
X4659Y8445D01*
X4632Y8434D01*
X4610Y8416D01*
X4592Y8393D01*
X4581Y8367D01*
X4577Y8338D01*
X4581Y8310D01*
X4592Y8283D01*
X4610Y8260D01*
X4632Y8243D01*
X4659Y8232D01*
X4688Y8228D01*
X4716Y8232D01*
X4743Y8243D01*
X4765Y8260D01*
X4783Y8283D01*
X4794Y8310D01*
X4798Y8338D01*
X4794Y8367D01*
X4783Y8393D01*
X4765Y8416D01*
X4743Y8434D01*
X4716Y8445D01*
X4688Y8448D01*
D02*
G37*
G36*
X4942D02*
X4913Y8445D01*
X4886Y8434D01*
X4864Y8416D01*
X4846Y8393D01*
X4835Y8367D01*
X4831Y8338D01*
X4835Y8310D01*
X4846Y8283D01*
X4864Y8260D01*
X4886Y8243D01*
X4913Y8232D01*
X4942Y8228D01*
X4970Y8232D01*
X4997Y8243D01*
X5019Y8260D01*
X5037Y8283D01*
X5048Y8310D01*
X5052Y8338D01*
X5048Y8367D01*
X5037Y8393D01*
X5019Y8416D01*
X4997Y8434D01*
X4970Y8445D01*
X4942Y8448D01*
D02*
G37*
G36*
X5958D02*
X5929Y8445D01*
X5902Y8434D01*
X5880Y8416D01*
X5862Y8393D01*
X5851Y8367D01*
X5847Y8338D01*
X5851Y8310D01*
X5862Y8283D01*
X5880Y8260D01*
X5902Y8243D01*
X5929Y8232D01*
X5958Y8228D01*
X5986Y8232D01*
X6013Y8243D01*
X6035Y8260D01*
X6053Y8283D01*
X6064Y8310D01*
X6068Y8338D01*
X6064Y8367D01*
X6053Y8393D01*
X6035Y8416D01*
X6013Y8434D01*
X5986Y8445D01*
X5958Y8448D01*
D02*
G37*
G36*
X6212D02*
X6183Y8445D01*
X6156Y8434D01*
X6134Y8416D01*
X6116Y8393D01*
X6105Y8367D01*
X6101Y8338D01*
X6105Y8310D01*
X6116Y8283D01*
X6134Y8260D01*
X6156Y8243D01*
X6183Y8232D01*
X6212Y8228D01*
X6240Y8232D01*
X6267Y8243D01*
X6289Y8260D01*
X6307Y8283D01*
X6318Y8310D01*
X6322Y8338D01*
X6318Y8367D01*
X6307Y8393D01*
X6289Y8416D01*
X6267Y8434D01*
X6240Y8445D01*
X6212Y8448D01*
D02*
G37*
G36*
X5450D02*
X5421Y8445D01*
X5394Y8434D01*
X5372Y8416D01*
X5354Y8393D01*
X5343Y8367D01*
X5339Y8338D01*
X5343Y8310D01*
X5354Y8283D01*
X5372Y8260D01*
X5394Y8243D01*
X5421Y8232D01*
X5450Y8228D01*
X5478Y8232D01*
X5505Y8243D01*
X5527Y8260D01*
X5545Y8283D01*
X5556Y8310D01*
X5560Y8338D01*
X5556Y8367D01*
X5545Y8393D01*
X5527Y8416D01*
X5505Y8434D01*
X5478Y8445D01*
X5450Y8448D01*
D02*
G37*
G36*
X5704D02*
X5675Y8445D01*
X5648Y8434D01*
X5626Y8416D01*
X5608Y8393D01*
X5597Y8367D01*
X5593Y8338D01*
X5597Y8310D01*
X5608Y8283D01*
X5626Y8260D01*
X5648Y8243D01*
X5675Y8232D01*
X5704Y8228D01*
X5732Y8232D01*
X5759Y8243D01*
X5781Y8260D01*
X5799Y8283D01*
X5810Y8310D01*
X5814Y8338D01*
X5810Y8367D01*
X5799Y8393D01*
X5781Y8416D01*
X5759Y8434D01*
X5732Y8445D01*
X5704Y8448D01*
D02*
G37*
G36*
X3418D02*
X3389Y8445D01*
X3362Y8434D01*
X3340Y8416D01*
X3322Y8393D01*
X3311Y8367D01*
X3307Y8338D01*
X3311Y8310D01*
X3322Y8283D01*
X3340Y8260D01*
X3362Y8243D01*
X3389Y8232D01*
X3418Y8228D01*
X3446Y8232D01*
X3473Y8243D01*
X3495Y8260D01*
X3513Y8283D01*
X3524Y8310D01*
X3528Y8338D01*
X3524Y8367D01*
X3513Y8393D01*
X3495Y8416D01*
X3473Y8434D01*
X3446Y8445D01*
X3418Y8448D01*
D02*
G37*
G36*
X3164D02*
X3135Y8445D01*
X3108Y8434D01*
X3086Y8416D01*
X3068Y8393D01*
X3057Y8367D01*
X3053Y8338D01*
X3057Y8310D01*
X3068Y8283D01*
X3086Y8260D01*
X3108Y8243D01*
X3135Y8232D01*
X3164Y8228D01*
X3192Y8232D01*
X3219Y8243D01*
X3241Y8260D01*
X3259Y8283D01*
X3270Y8310D01*
X3274Y8338D01*
X3270Y8367D01*
X3259Y8393D01*
X3241Y8416D01*
X3219Y8434D01*
X3192Y8445D01*
X3164Y8448D01*
D02*
G37*
G36*
X2910D02*
X2881Y8445D01*
X2854Y8434D01*
X2832Y8416D01*
X2814Y8393D01*
X2803Y8367D01*
X2799Y8338D01*
X2803Y8310D01*
X2814Y8283D01*
X2832Y8260D01*
X2854Y8243D01*
X2881Y8232D01*
X2910Y8228D01*
X2938Y8232D01*
X2965Y8243D01*
X2987Y8260D01*
X3005Y8283D01*
X3016Y8310D01*
X3020Y8338D01*
X3016Y8367D01*
X3005Y8393D01*
X2987Y8416D01*
X2965Y8434D01*
X2938Y8445D01*
X2910Y8448D01*
D02*
G37*
G36*
X3672D02*
X3643Y8445D01*
X3616Y8434D01*
X3594Y8416D01*
X3576Y8393D01*
X3565Y8367D01*
X3561Y8338D01*
X3565Y8310D01*
X3576Y8283D01*
X3594Y8260D01*
X3616Y8243D01*
X3643Y8232D01*
X3672Y8228D01*
X3700Y8232D01*
X3727Y8243D01*
X3749Y8260D01*
X3767Y8283D01*
X3778Y8310D01*
X3782Y8338D01*
X3778Y8367D01*
X3767Y8393D01*
X3749Y8416D01*
X3727Y8434D01*
X3700Y8445D01*
X3672Y8448D01*
D02*
G37*
G36*
X4434D02*
X4405Y8445D01*
X4378Y8434D01*
X4356Y8416D01*
X4338Y8393D01*
X4327Y8367D01*
X4323Y8338D01*
X4327Y8310D01*
X4338Y8283D01*
X4356Y8260D01*
X4378Y8243D01*
X4405Y8232D01*
X4434Y8228D01*
X4462Y8232D01*
X4489Y8243D01*
X4511Y8260D01*
X4529Y8283D01*
X4540Y8310D01*
X4544Y8338D01*
X4540Y8367D01*
X4529Y8393D01*
X4511Y8416D01*
X4489Y8434D01*
X4462Y8445D01*
X4434Y8448D01*
D02*
G37*
G36*
X4180D02*
X4151Y8445D01*
X4124Y8434D01*
X4102Y8416D01*
X4084Y8393D01*
X4073Y8367D01*
X4069Y8338D01*
X4073Y8310D01*
X4084Y8283D01*
X4102Y8260D01*
X4124Y8243D01*
X4151Y8232D01*
X4180Y8228D01*
X4208Y8232D01*
X4235Y8243D01*
X4257Y8260D01*
X4275Y8283D01*
X4286Y8310D01*
X4290Y8338D01*
X4286Y8367D01*
X4275Y8393D01*
X4257Y8416D01*
X4235Y8434D01*
X4208Y8445D01*
X4180Y8448D01*
D02*
G37*
G36*
X3926D02*
X3897Y8445D01*
X3870Y8434D01*
X3848Y8416D01*
X3830Y8393D01*
X3819Y8367D01*
X3815Y8338D01*
X3819Y8310D01*
X3830Y8283D01*
X3848Y8260D01*
X3870Y8243D01*
X3897Y8232D01*
X3926Y8228D01*
X3954Y8232D01*
X3981Y8243D01*
X4003Y8260D01*
X4021Y8283D01*
X4032Y8310D01*
X4036Y8338D01*
X4032Y8367D01*
X4021Y8393D01*
X4003Y8416D01*
X3981Y8434D01*
X3954Y8445D01*
X3926Y8448D01*
D02*
G37*
G36*
X6466D02*
X6437Y8445D01*
X6410Y8434D01*
X6388Y8416D01*
X6370Y8393D01*
X6359Y8367D01*
X6355Y8338D01*
X6359Y8310D01*
X6370Y8283D01*
X6388Y8260D01*
X6410Y8243D01*
X6437Y8232D01*
X6466Y8228D01*
X6494Y8232D01*
X6521Y8243D01*
X6543Y8260D01*
X6561Y8283D01*
X6572Y8310D01*
X6576Y8338D01*
X6572Y8367D01*
X6561Y8393D01*
X6543Y8416D01*
X6521Y8434D01*
X6494Y8445D01*
X6466Y8448D01*
D02*
G37*
G36*
X3672Y8702D02*
X3643Y8699D01*
X3616Y8688D01*
X3594Y8670D01*
X3576Y8647D01*
X3565Y8621D01*
X3561Y8592D01*
X3565Y8564D01*
X3576Y8537D01*
X3594Y8514D01*
X3616Y8497D01*
X3643Y8486D01*
X3672Y8482D01*
X3700Y8486D01*
X3727Y8497D01*
X3749Y8514D01*
X3767Y8537D01*
X3778Y8564D01*
X3782Y8592D01*
X3778Y8621D01*
X3767Y8647D01*
X3749Y8670D01*
X3727Y8688D01*
X3700Y8699D01*
X3672Y8702D01*
D02*
G37*
G36*
X3418D02*
X3389Y8699D01*
X3362Y8688D01*
X3340Y8670D01*
X3322Y8647D01*
X3311Y8621D01*
X3307Y8592D01*
X3311Y8564D01*
X3322Y8537D01*
X3340Y8514D01*
X3362Y8497D01*
X3389Y8486D01*
X3418Y8482D01*
X3446Y8486D01*
X3473Y8497D01*
X3495Y8514D01*
X3513Y8537D01*
X3524Y8564D01*
X3528Y8592D01*
X3524Y8621D01*
X3513Y8647D01*
X3495Y8670D01*
X3473Y8688D01*
X3446Y8699D01*
X3418Y8702D01*
D02*
G37*
G36*
X3164D02*
X3135Y8699D01*
X3108Y8688D01*
X3086Y8670D01*
X3068Y8647D01*
X3057Y8621D01*
X3053Y8592D01*
X3057Y8564D01*
X3068Y8537D01*
X3086Y8514D01*
X3108Y8497D01*
X3135Y8486D01*
X3164Y8482D01*
X3192Y8486D01*
X3219Y8497D01*
X3241Y8514D01*
X3259Y8537D01*
X3270Y8564D01*
X3274Y8592D01*
X3270Y8621D01*
X3259Y8647D01*
X3241Y8670D01*
X3219Y8688D01*
X3192Y8699D01*
X3164Y8702D01*
D02*
G37*
G36*
X3926D02*
X3897Y8699D01*
X3870Y8688D01*
X3848Y8670D01*
X3830Y8647D01*
X3819Y8621D01*
X3815Y8592D01*
X3819Y8564D01*
X3830Y8537D01*
X3848Y8514D01*
X3870Y8497D01*
X3897Y8486D01*
X3926Y8482D01*
X3954Y8486D01*
X3981Y8497D01*
X4003Y8514D01*
X4021Y8537D01*
X4032Y8564D01*
X4036Y8592D01*
X4032Y8621D01*
X4021Y8647D01*
X4003Y8670D01*
X3981Y8688D01*
X3954Y8699D01*
X3926Y8702D01*
D02*
G37*
G36*
X4688D02*
X4659Y8699D01*
X4632Y8688D01*
X4610Y8670D01*
X4592Y8647D01*
X4581Y8621D01*
X4577Y8592D01*
X4581Y8564D01*
X4592Y8537D01*
X4610Y8514D01*
X4632Y8497D01*
X4659Y8486D01*
X4688Y8482D01*
X4716Y8486D01*
X4743Y8497D01*
X4765Y8514D01*
X4783Y8537D01*
X4794Y8564D01*
X4798Y8592D01*
X4794Y8621D01*
X4783Y8647D01*
X4765Y8670D01*
X4743Y8688D01*
X4716Y8699D01*
X4688Y8702D01*
D02*
G37*
G36*
X4434D02*
X4405Y8699D01*
X4378Y8688D01*
X4356Y8670D01*
X4338Y8647D01*
X4327Y8621D01*
X4323Y8592D01*
X4327Y8564D01*
X4338Y8537D01*
X4356Y8514D01*
X4378Y8497D01*
X4405Y8486D01*
X4434Y8482D01*
X4462Y8486D01*
X4489Y8497D01*
X4511Y8514D01*
X4529Y8537D01*
X4540Y8564D01*
X4544Y8592D01*
X4540Y8621D01*
X4529Y8647D01*
X4511Y8670D01*
X4489Y8688D01*
X4462Y8699D01*
X4434Y8702D01*
D02*
G37*
G36*
X4180D02*
X4151Y8699D01*
X4124Y8688D01*
X4102Y8670D01*
X4084Y8647D01*
X4073Y8621D01*
X4069Y8592D01*
X4073Y8564D01*
X4084Y8537D01*
X4102Y8514D01*
X4124Y8497D01*
X4151Y8486D01*
X4180Y8482D01*
X4208Y8486D01*
X4235Y8497D01*
X4257Y8514D01*
X4275Y8537D01*
X4286Y8564D01*
X4290Y8592D01*
X4286Y8621D01*
X4275Y8647D01*
X4257Y8670D01*
X4235Y8688D01*
X4208Y8699D01*
X4180Y8702D01*
D02*
G37*
G36*
X2910D02*
X2881Y8699D01*
X2854Y8688D01*
X2832Y8670D01*
X2814Y8647D01*
X2803Y8621D01*
X2799Y8592D01*
X2803Y8564D01*
X2814Y8537D01*
X2832Y8514D01*
X2854Y8497D01*
X2881Y8486D01*
X2910Y8482D01*
X2938Y8486D01*
X2965Y8497D01*
X2987Y8514D01*
X3005Y8537D01*
X3016Y8564D01*
X3020Y8592D01*
X3016Y8621D01*
X3005Y8647D01*
X2987Y8670D01*
X2965Y8688D01*
X2938Y8699D01*
X2910Y8702D01*
D02*
G37*
G36*
X7736Y8448D02*
X7707Y8445D01*
X7680Y8434D01*
X7658Y8416D01*
X7640Y8393D01*
X7629Y8367D01*
X7625Y8338D01*
X7629Y8310D01*
X7640Y8283D01*
X7658Y8260D01*
X7680Y8243D01*
X7707Y8232D01*
X7736Y8228D01*
X7764Y8232D01*
X7791Y8243D01*
X7813Y8260D01*
X7831Y8283D01*
X7842Y8310D01*
X7846Y8338D01*
X7842Y8367D01*
X7831Y8393D01*
X7813Y8416D01*
X7791Y8434D01*
X7764Y8445D01*
X7736Y8448D01*
D02*
G37*
G36*
X7482D02*
X7453Y8445D01*
X7426Y8434D01*
X7404Y8416D01*
X7386Y8393D01*
X7375Y8367D01*
X7371Y8338D01*
X7375Y8310D01*
X7386Y8283D01*
X7404Y8260D01*
X7426Y8243D01*
X7453Y8232D01*
X7482Y8228D01*
X7510Y8232D01*
X7537Y8243D01*
X7559Y8260D01*
X7577Y8283D01*
X7588Y8310D01*
X7592Y8338D01*
X7588Y8367D01*
X7577Y8393D01*
X7559Y8416D01*
X7537Y8434D01*
X7510Y8445D01*
X7482Y8448D01*
D02*
G37*
G36*
X7228D02*
X7199Y8445D01*
X7172Y8434D01*
X7150Y8416D01*
X7132Y8393D01*
X7121Y8367D01*
X7117Y8338D01*
X7121Y8310D01*
X7132Y8283D01*
X7150Y8260D01*
X7172Y8243D01*
X7199Y8232D01*
X7228Y8228D01*
X7256Y8232D01*
X7283Y8243D01*
X7305Y8260D01*
X7323Y8283D01*
X7334Y8310D01*
X7338Y8338D01*
X7334Y8367D01*
X7323Y8393D01*
X7305Y8416D01*
X7283Y8434D01*
X7256Y8445D01*
X7228Y8448D01*
D02*
G37*
G36*
X1386Y8702D02*
X1357Y8699D01*
X1330Y8688D01*
X1308Y8670D01*
X1290Y8647D01*
X1279Y8621D01*
X1275Y8592D01*
X1279Y8564D01*
X1290Y8537D01*
X1308Y8514D01*
X1330Y8497D01*
X1357Y8486D01*
X1386Y8482D01*
X1414Y8486D01*
X1441Y8497D01*
X1463Y8514D01*
X1481Y8537D01*
X1492Y8564D01*
X1496Y8592D01*
X1492Y8621D01*
X1481Y8647D01*
X1463Y8670D01*
X1441Y8688D01*
X1414Y8699D01*
X1386Y8702D01*
D02*
G37*
G36*
X2656D02*
X2627Y8699D01*
X2600Y8688D01*
X2578Y8670D01*
X2560Y8647D01*
X2549Y8621D01*
X2545Y8592D01*
X2549Y8564D01*
X2560Y8537D01*
X2578Y8514D01*
X2600Y8497D01*
X2627Y8486D01*
X2656Y8482D01*
X2684Y8486D01*
X2711Y8497D01*
X2733Y8514D01*
X2751Y8537D01*
X2762Y8564D01*
X2766Y8592D01*
X2762Y8621D01*
X2751Y8647D01*
X2733Y8670D01*
X2711Y8688D01*
X2684Y8699D01*
X2656Y8702D01*
D02*
G37*
G36*
X2402D02*
X2373Y8699D01*
X2346Y8688D01*
X2324Y8670D01*
X2306Y8647D01*
X2295Y8621D01*
X2291Y8592D01*
X2295Y8564D01*
X2306Y8537D01*
X2324Y8514D01*
X2346Y8497D01*
X2373Y8486D01*
X2402Y8482D01*
X2430Y8486D01*
X2457Y8497D01*
X2479Y8514D01*
X2497Y8537D01*
X2508Y8564D01*
X2512Y8592D01*
X2508Y8621D01*
X2497Y8647D01*
X2479Y8670D01*
X2457Y8688D01*
X2430Y8699D01*
X2402Y8702D01*
D02*
G37*
G36*
X2148D02*
X2119Y8699D01*
X2092Y8688D01*
X2070Y8670D01*
X2052Y8647D01*
X2041Y8621D01*
X2037Y8592D01*
X2041Y8564D01*
X2052Y8537D01*
X2070Y8514D01*
X2092Y8497D01*
X2119Y8486D01*
X2148Y8482D01*
X2176Y8486D01*
X2203Y8497D01*
X2225Y8514D01*
X2243Y8537D01*
X2254Y8564D01*
X2258Y8592D01*
X2254Y8621D01*
X2243Y8647D01*
X2225Y8670D01*
X2203Y8688D01*
X2176Y8699D01*
X2148Y8702D01*
D02*
G37*
G36*
X7104Y4056D02*
X7076Y4052D01*
X7050Y4041D01*
X7027Y4024D01*
X7010Y4002D01*
X6999Y3975D01*
X6995Y3947D01*
X6999Y3919D01*
X7010Y3893D01*
X7027Y3870D01*
X7050Y3853D01*
X7076Y3842D01*
X7104Y3838D01*
X7132Y3842D01*
X7158Y3853D01*
X7181Y3870D01*
X7198Y3893D01*
X7209Y3919D01*
X7213Y3947D01*
X7209Y3975D01*
X7198Y4002D01*
X7181Y4024D01*
X7158Y4041D01*
X7132Y4052D01*
X7104Y4056D01*
D02*
G37*
G36*
X5215Y4679D02*
X5191Y4676D01*
X5170Y4667D01*
X5151Y4653D01*
X5137Y4635D01*
X5128Y4613D01*
X5125Y4590D01*
X5128Y4567D01*
X5137Y4545D01*
X5151Y4526D01*
X5170Y4512D01*
X5191Y4503D01*
X5215Y4500D01*
X5238Y4503D01*
X5240Y4504D01*
X5393Y4350D01*
X5396Y4337D01*
X5405Y4323D01*
X5411Y4318D01*
Y4117D01*
X4697Y3403D01*
X4654D01*
X4653Y3405D01*
X4639Y3424D01*
X4620Y3438D01*
X4598Y3447D01*
X4575Y3450D01*
X4552Y3447D01*
X4530Y3438D01*
X4512Y3424D01*
X4498Y3405D01*
X4489Y3384D01*
X4486Y3360D01*
X4489Y3337D01*
X4498Y3316D01*
X4512Y3297D01*
X4530Y3283D01*
X4552Y3274D01*
X4575Y3271D01*
X4598Y3274D01*
X4620Y3283D01*
X4639Y3297D01*
X4653Y3316D01*
X4654Y3318D01*
X4714D01*
X4731Y3321D01*
X4744Y3330D01*
X5484Y4069D01*
X5493Y4083D01*
X5496Y4100D01*
Y4336D01*
X5493Y4352D01*
X5486Y4363D01*
X5483Y4378D01*
X5473Y4391D01*
X5300Y4564D01*
X5301Y4567D01*
X5304Y4590D01*
X5301Y4613D01*
X5292Y4635D01*
X5278Y4653D01*
X5259Y4667D01*
X5238Y4676D01*
X5215Y4679D01*
D02*
G37*
G36*
X4133Y3646D02*
X4109Y3643D01*
X4088Y3634D01*
X4069Y3619D01*
X4055Y3601D01*
X4046Y3579D01*
X4043Y3556D01*
X4046Y3533D01*
X4055Y3511D01*
X4069Y3493D01*
X4070Y3487D01*
X4029Y3446D01*
X3487D01*
X3471Y3443D01*
X3457Y3434D01*
X3457Y3434D01*
X3226Y3202D01*
X3224Y3203D01*
X3200Y3206D01*
X3177Y3203D01*
X3156Y3194D01*
X3137Y3180D01*
X3123Y3161D01*
X3114Y3140D01*
X3111Y3117D01*
X3114Y3093D01*
X3123Y3072D01*
X3137Y3053D01*
X3156Y3039D01*
X3177Y3030D01*
X3200Y3027D01*
X3224Y3030D01*
X3245Y3039D01*
X3264Y3053D01*
X3278Y3072D01*
X3287Y3093D01*
X3290Y3117D01*
X3287Y3140D01*
X3286Y3142D01*
X3505Y3361D01*
X4046D01*
X4063Y3364D01*
X4076Y3373D01*
X4163Y3460D01*
X4163Y3460D01*
X4172Y3474D01*
X4173Y3476D01*
X4177Y3478D01*
X4196Y3493D01*
X4210Y3511D01*
X4219Y3533D01*
X4222Y3556D01*
X4219Y3579D01*
X4210Y3601D01*
X4196Y3619D01*
X4177Y3634D01*
X4156Y3643D01*
X4133Y3646D01*
D02*
G37*
G36*
X8004Y4056D02*
X7976Y4052D01*
X7950Y4041D01*
X7927Y4024D01*
X7910Y4002D01*
X7899Y3975D01*
X7895Y3947D01*
X7899Y3919D01*
X7910Y3893D01*
X7927Y3870D01*
X7950Y3853D01*
X7976Y3842D01*
X8004Y3838D01*
X8032Y3842D01*
X8058Y3853D01*
X8081Y3870D01*
X8098Y3893D01*
X8109Y3919D01*
X8113Y3947D01*
X8109Y3975D01*
X8098Y4002D01*
X8081Y4024D01*
X8058Y4041D01*
X8032Y4052D01*
X8004Y4056D01*
D02*
G37*
G36*
X5905Y4941D02*
X5881Y4938D01*
X5860Y4929D01*
X5841Y4915D01*
X5827Y4896D01*
X5825Y4892D01*
X5176D01*
X5175Y4894D01*
X5161Y4912D01*
X5143Y4927D01*
X5121Y4935D01*
X5098Y4939D01*
X5075Y4935D01*
X5053Y4927D01*
X5034Y4912D01*
X5020Y4894D01*
X5011Y4872D01*
X5008Y4849D01*
X5011Y4826D01*
X5020Y4804D01*
X5034Y4785D01*
X5053Y4771D01*
X5075Y4762D01*
X5098Y4759D01*
X5121Y4762D01*
X5143Y4771D01*
X5161Y4785D01*
X5175Y4804D01*
X5176Y4806D01*
X5827D01*
X5841Y4788D01*
X5860Y4774D01*
X5862Y4773D01*
Y3463D01*
X5865Y3447D01*
X5874Y3433D01*
X6168Y3139D01*
X6167Y3137D01*
X6164Y3114D01*
X6167Y3091D01*
X6176Y3069D01*
X6190Y3051D01*
X6209Y3036D01*
X6230Y3027D01*
X6253Y3024D01*
X6277Y3027D01*
X6298Y3036D01*
X6317Y3051D01*
X6331Y3069D01*
X6340Y3091D01*
X6343Y3114D01*
X6340Y3137D01*
X6331Y3159D01*
X6317Y3177D01*
X6298Y3192D01*
X6277Y3201D01*
X6253Y3204D01*
X6230Y3201D01*
X6228Y3200D01*
X5947Y3481D01*
Y4773D01*
X5949Y4774D01*
X5968Y4788D01*
X5982Y4806D01*
X5991Y4828D01*
X5994Y4851D01*
X5991Y4875D01*
X5982Y4896D01*
X5968Y4915D01*
X5949Y4929D01*
X5928Y4938D01*
X5905Y4941D01*
D02*
G37*
G36*
X4892Y4532D02*
X4869Y4529D01*
X4847Y4520D01*
X4829Y4506D01*
X4814Y4487D01*
X4805Y4466D01*
X4802Y4442D01*
X4805Y4419D01*
X4806Y4417D01*
X4539Y4150D01*
X2530D01*
X2530Y4152D01*
X2515Y4171D01*
X2497Y4185D01*
X2475Y4194D01*
X2452Y4197D01*
X2429Y4194D01*
X2407Y4185D01*
X2389Y4171D01*
X2374Y4152D01*
X2365Y4130D01*
X2362Y4107D01*
X2365Y4084D01*
X2374Y4062D01*
X2389Y4044D01*
X2407Y4030D01*
X2429Y4021D01*
X2452Y4017D01*
X2475Y4021D01*
X2497Y4030D01*
X2515Y4044D01*
X2530Y4062D01*
X2530Y4064D01*
X4557D01*
X4573Y4068D01*
X4587Y4077D01*
X4867Y4357D01*
X4869Y4356D01*
X4892Y4353D01*
X4915Y4356D01*
X4937Y4365D01*
X4955Y4379D01*
X4970Y4398D01*
X4979Y4419D01*
X4982Y4442D01*
X4979Y4466D01*
X4970Y4487D01*
X4955Y4506D01*
X4937Y4520D01*
X4915Y4529D01*
X4892Y4532D01*
D02*
G37*
G36*
X1176Y5186D02*
X1150Y5183D01*
X1125Y5173D01*
X1104Y5157D01*
X1088Y5136D01*
X1078Y5111D01*
X1075Y5085D01*
X1078Y5059D01*
X1088Y5034D01*
X1104Y5013D01*
X1125Y4997D01*
X1150Y4987D01*
X1176Y4984D01*
X1202Y4987D01*
X1210Y4991D01*
X1565Y4636D01*
Y4338D01*
X1568Y4322D01*
X1578Y4308D01*
X1752Y4134D01*
X1746Y4121D01*
X1743Y4094D01*
X1746Y4068D01*
X1756Y4044D01*
X1772Y4023D01*
X1793Y4007D01*
X1818Y3997D01*
X1844Y3993D01*
X1870Y3997D01*
X1895Y4007D01*
X1916Y4023D01*
X1932Y4044D01*
X1942Y4068D01*
X1945Y4094D01*
X1942Y4121D01*
X1932Y4145D01*
X1916Y4166D01*
X1895Y4182D01*
X1870Y4192D01*
X1844Y4196D01*
X1818Y4192D01*
X1815Y4191D01*
X1651Y4356D01*
Y4653D01*
X1647Y4670D01*
X1638Y4683D01*
X1271Y5051D01*
X1274Y5059D01*
X1277Y5085D01*
X1274Y5111D01*
X1264Y5136D01*
X1248Y5157D01*
X1227Y5173D01*
X1202Y5183D01*
X1176Y5186D01*
D02*
G37*
G36*
X297Y3732D02*
X274Y3729D01*
X252Y3720D01*
X234Y3706D01*
X220Y3687D01*
X211Y3666D01*
X208Y3642D01*
X211Y3619D01*
X220Y3598D01*
X227Y3588D01*
Y2784D01*
X230Y2767D01*
X239Y2754D01*
X459Y2534D01*
Y2455D01*
X435Y2431D01*
X425Y2417D01*
X422Y2400D01*
Y2093D01*
X420Y2092D01*
X401Y2078D01*
X387Y2059D01*
X378Y2037D01*
X375Y2014D01*
X378Y1991D01*
X387Y1969D01*
X401Y1951D01*
X420Y1937D01*
X442Y1928D01*
X465Y1925D01*
X488Y1928D01*
X510Y1937D01*
X528Y1951D01*
X542Y1969D01*
X551Y1991D01*
X554Y2014D01*
X551Y2037D01*
X542Y2059D01*
X528Y2078D01*
X510Y2092D01*
X508Y2093D01*
Y2383D01*
X532Y2407D01*
X1001Y2876D01*
X4552D01*
Y2740D01*
X4550Y2740D01*
X4531Y2725D01*
X4517Y2707D01*
X4508Y2685D01*
X4505Y2662D01*
X4508Y2639D01*
X4517Y2617D01*
X4531Y2598D01*
X4550Y2584D01*
X4572Y2575D01*
X4595Y2572D01*
X4618Y2575D01*
X4640Y2584D01*
X4658Y2598D01*
X4672Y2617D01*
X4681Y2639D01*
X4684Y2662D01*
X4684Y2665D01*
X4854Y2835D01*
X4925D01*
X4926Y2833D01*
X4940Y2814D01*
X4959Y2800D01*
X4981Y2791D01*
X5004Y2788D01*
X5027Y2791D01*
X5049Y2800D01*
X5067Y2814D01*
X5081Y2833D01*
X5090Y2855D01*
X5093Y2878D01*
X5090Y2901D01*
X5081Y2923D01*
X5067Y2941D01*
X5049Y2955D01*
X5027Y2964D01*
X5004Y2967D01*
X4981Y2964D01*
X4959Y2955D01*
X4940Y2941D01*
X4926Y2923D01*
X4925Y2921D01*
X4836D01*
X4836Y2921D01*
X4820Y2917D01*
X4806Y2908D01*
X4650Y2752D01*
X4638Y2758D01*
Y2918D01*
X4634Y2935D01*
X4625Y2949D01*
X4611Y2958D01*
X4595Y2961D01*
X983D01*
X967Y2958D01*
X953Y2949D01*
X557Y2552D01*
X543Y2557D01*
X541Y2568D01*
X532Y2582D01*
X532Y2582D01*
X312Y2802D01*
Y3555D01*
X320Y3556D01*
X342Y3565D01*
X361Y3579D01*
X375Y3598D01*
X384Y3619D01*
X387Y3642D01*
X384Y3666D01*
X375Y3687D01*
X361Y3706D01*
X342Y3720D01*
X320Y3729D01*
X297Y3732D01*
D02*
G37*
G36*
X1521Y518D02*
X1489Y513D01*
X1458Y501D01*
X1432Y481D01*
X1412Y454D01*
X1399Y424D01*
X1395Y391D01*
X1399Y358D01*
X1412Y328D01*
X1432Y302D01*
X1458Y282D01*
X1489Y269D01*
X1521Y265D01*
X1554Y269D01*
X1585Y282D01*
X1611Y302D01*
X1631Y328D01*
X1644Y358D01*
X1648Y391D01*
X1644Y424D01*
X1631Y454D01*
X1611Y481D01*
X1585Y501D01*
X1554Y513D01*
X1521Y518D01*
D02*
G37*
G36*
X1171D02*
X1139Y513D01*
X1108Y501D01*
X1082Y481D01*
X1062Y454D01*
X1049Y424D01*
X1045Y391D01*
X1049Y358D01*
X1062Y328D01*
X1082Y302D01*
X1108Y282D01*
X1139Y269D01*
X1171Y265D01*
X1204Y269D01*
X1235Y282D01*
X1261Y302D01*
X1281Y328D01*
X1294Y358D01*
X1298Y391D01*
X1294Y424D01*
X1281Y454D01*
X1261Y481D01*
X1235Y501D01*
X1204Y513D01*
X1171Y518D01*
D02*
G37*
G36*
X496Y788D02*
X453Y785D01*
X411Y774D01*
X371Y758D01*
X334Y735D01*
X301Y707D01*
X273Y674D01*
X250Y637D01*
X233Y597D01*
X223Y555D01*
X220Y512D01*
X223Y468D01*
X233Y426D01*
X250Y386D01*
X273Y349D01*
X301Y316D01*
X334Y288D01*
X371Y266D01*
X411Y249D01*
X453Y239D01*
X496Y235D01*
X539Y239D01*
X581Y249D01*
X621Y266D01*
X658Y288D01*
X691Y316D01*
X719Y349D01*
X742Y386D01*
X759Y426D01*
X769Y468D01*
X772Y512D01*
X769Y555D01*
X759Y597D01*
X742Y637D01*
X719Y674D01*
X691Y707D01*
X658Y735D01*
X621Y758D01*
X581Y774D01*
X539Y785D01*
X496Y788D01*
D02*
G37*
G36*
X1260Y2749D02*
X1237Y2746D01*
X1215Y2737D01*
X1196Y2723D01*
X1182Y2704D01*
X1173Y2683D01*
X1170Y2659D01*
X1173Y2636D01*
X1182Y2615D01*
X1196Y2596D01*
X1215Y2582D01*
X1237Y2573D01*
X1260Y2570D01*
X1283Y2573D01*
X1283Y2573D01*
X3224Y633D01*
X3237Y623D01*
X3254Y620D01*
X3254Y620D01*
X7765D01*
X7782Y623D01*
X7795Y633D01*
X7850Y687D01*
X7861Y682D01*
X7890Y679D01*
X7918Y682D01*
X7944Y693D01*
X7967Y710D01*
X7984Y733D01*
X7995Y759D01*
X7998Y787D01*
X7995Y816D01*
X7984Y842D01*
X7967Y864D01*
X7944Y882D01*
X7918Y893D01*
X7890Y896D01*
X7861Y893D01*
X7835Y882D01*
X7813Y864D01*
X7795Y842D01*
X7785Y816D01*
X7781Y787D01*
X7785Y759D01*
X7789Y748D01*
X7747Y706D01*
X7079D01*
X7073Y718D01*
X7084Y733D01*
X7095Y759D01*
X7098Y787D01*
X7095Y816D01*
X7084Y842D01*
X7067Y864D01*
X7044Y882D01*
X7018Y893D01*
X6990Y896D01*
X6961Y893D01*
X6935Y882D01*
X6913Y864D01*
X6895Y842D01*
X6891Y830D01*
X3807D01*
X2075Y2563D01*
X2061Y2572D01*
X2045Y2575D01*
X1824D01*
X1823Y2577D01*
X1808Y2596D01*
X1790Y2610D01*
X1768Y2619D01*
X1745Y2622D01*
X1722Y2619D01*
X1700Y2610D01*
X1682Y2596D01*
X1667Y2577D01*
X1658Y2556D01*
X1655Y2532D01*
X1658Y2509D01*
X1667Y2488D01*
X1682Y2469D01*
X1700Y2455D01*
X1722Y2446D01*
X1745Y2443D01*
X1768Y2446D01*
X1790Y2455D01*
X1808Y2469D01*
X1823Y2488D01*
X1824Y2490D01*
X2027D01*
X3759Y757D01*
X3773Y748D01*
X3790Y745D01*
X3790Y745D01*
X6891D01*
X6895Y733D01*
X6907Y718D01*
X6900Y706D01*
X3271D01*
X1345Y2632D01*
X1346Y2636D01*
X1350Y2659D01*
X1346Y2683D01*
X1337Y2704D01*
X1323Y2723D01*
X1305Y2737D01*
X1283Y2746D01*
X1260Y2749D01*
D02*
G37*
G36*
X7930Y2161D02*
X7902Y2157D01*
X7875Y2147D01*
X7853Y2129D01*
X7836Y2107D01*
X7825Y2080D01*
X7821Y2052D01*
X7825Y2024D01*
X7836Y1998D01*
X7853Y1975D01*
X7875Y1958D01*
X7902Y1947D01*
X7930Y1943D01*
X7958Y1947D01*
X7984Y1958D01*
X8007Y1975D01*
X8024Y1998D01*
X8035Y2024D01*
X8039Y2052D01*
X8035Y2080D01*
X8024Y2107D01*
X8007Y2129D01*
X7984Y2147D01*
X7958Y2157D01*
X7930Y2161D01*
D02*
G37*
G36*
X7030D02*
X7002Y2157D01*
X6975Y2147D01*
X6953Y2129D01*
X6936Y2107D01*
X6925Y2080D01*
X6921Y2052D01*
X6925Y2024D01*
X6936Y1998D01*
X6953Y1975D01*
X6975Y1958D01*
X7002Y1947D01*
X7030Y1943D01*
X7058Y1947D01*
X7084Y1958D01*
X7107Y1975D01*
X7124Y1998D01*
X7135Y2024D01*
X7139Y2052D01*
X7135Y2080D01*
X7124Y2107D01*
X7107Y2129D01*
X7084Y2147D01*
X7058Y2157D01*
X7030Y2161D01*
D02*
G37*
G36*
X1369Y3803D02*
X1346Y3800D01*
X1324Y3791D01*
X1306Y3777D01*
X1291Y3758D01*
X1282Y3737D01*
X1279Y3713D01*
X1282Y3690D01*
X1291Y3669D01*
X1306Y3650D01*
X1324Y3636D01*
X1346Y3627D01*
X1369Y3624D01*
X1392Y3627D01*
X1414Y3636D01*
X1432Y3650D01*
X1447Y3669D01*
X1448Y3671D01*
X4247D01*
X4301Y3617D01*
Y3246D01*
X4299Y3245D01*
X4280Y3231D01*
X4266Y3212D01*
X4257Y3191D01*
X4254Y3167D01*
X4257Y3144D01*
X4266Y3123D01*
X4280Y3104D01*
X4299Y3090D01*
X4320Y3081D01*
X4343Y3078D01*
X4367Y3081D01*
X4369Y3082D01*
X4443Y3008D01*
X4457Y2998D01*
X4473Y2995D01*
X5085D01*
X5139Y2941D01*
Y1549D01*
X5142Y1533D01*
X5151Y1519D01*
X5487Y1184D01*
X5486Y1181D01*
X5483Y1158D01*
X5486Y1135D01*
X5495Y1113D01*
X5509Y1095D01*
X5528Y1081D01*
X5550Y1072D01*
X5573Y1069D01*
X5596Y1072D01*
X5618Y1081D01*
X5636Y1095D01*
X5650Y1113D01*
X5659Y1135D01*
X5662Y1158D01*
X5659Y1181D01*
X5650Y1203D01*
X5636Y1222D01*
X5618Y1236D01*
X5596Y1245D01*
X5573Y1248D01*
X5550Y1245D01*
X5547Y1244D01*
X5224Y1567D01*
Y2959D01*
X5221Y2975D01*
X5212Y2989D01*
X5212Y2989D01*
X5133Y3068D01*
X5119Y3077D01*
X5103Y3081D01*
X4491D01*
X4429Y3142D01*
X4430Y3144D01*
X4433Y3167D01*
X4430Y3191D01*
X4421Y3212D01*
X4407Y3231D01*
X4388Y3245D01*
X4386Y3246D01*
Y3635D01*
X4386Y3635D01*
X4383Y3651D01*
X4374Y3665D01*
X4295Y3744D01*
X4281Y3753D01*
X4265Y3756D01*
X1448D01*
X1447Y3758D01*
X1432Y3777D01*
X1414Y3791D01*
X1392Y3800D01*
X1369Y3803D01*
D02*
G37*
G36*
X8081Y7729D02*
X8052Y7725D01*
X8026Y7714D01*
X8004Y7697D01*
X7986Y7674D01*
X7975Y7648D01*
X7972Y7620D01*
X7975Y7592D01*
X7986Y7566D01*
X8004Y7543D01*
X8026Y7526D01*
X8052Y7515D01*
X8081Y7511D01*
X8109Y7515D01*
X8135Y7526D01*
X8158Y7543D01*
X8175Y7566D01*
X8186Y7592D01*
X8189Y7620D01*
X8186Y7648D01*
X8175Y7674D01*
X8158Y7697D01*
X8135Y7714D01*
X8109Y7725D01*
X8081Y7729D01*
D02*
G37*
G36*
X7181D02*
X7152Y7725D01*
X7126Y7714D01*
X7104Y7697D01*
X7086Y7674D01*
X7075Y7648D01*
X7072Y7620D01*
X7075Y7592D01*
X7086Y7566D01*
X7104Y7543D01*
X7126Y7526D01*
X7152Y7515D01*
X7181Y7511D01*
X7209Y7515D01*
X7235Y7526D01*
X7258Y7543D01*
X7275Y7566D01*
X7286Y7592D01*
X7289Y7620D01*
X7286Y7648D01*
X7275Y7674D01*
X7258Y7697D01*
X7235Y7714D01*
X7209Y7725D01*
X7181Y7729D01*
D02*
G37*
G36*
X1148Y7136D02*
X1125Y7133D01*
X1103Y7124D01*
X1085Y7109D01*
X1070Y7091D01*
X1061Y7069D01*
X1058Y7046D01*
X1061Y7023D01*
X1070Y7001D01*
X1085Y6983D01*
X1103Y6968D01*
X1125Y6959D01*
X1148Y6956D01*
X1171Y6959D01*
X1173Y6960D01*
X1270Y6863D01*
Y6688D01*
X1274Y6671D01*
X1283Y6658D01*
X1297Y6648D01*
X1313Y6645D01*
X1313D01*
X1372Y6586D01*
X1371Y6584D01*
X1368Y6561D01*
X1371Y6538D01*
X1380Y6516D01*
X1395Y6497D01*
X1413Y6483D01*
X1435Y6474D01*
X1458Y6471D01*
X1481Y6474D01*
X1503Y6483D01*
X1521Y6497D01*
X1536Y6516D01*
X1545Y6538D01*
X1548Y6561D01*
X1545Y6584D01*
X1536Y6606D01*
X1521Y6624D01*
X1503Y6638D01*
X1481Y6647D01*
X1458Y6650D01*
X1435Y6647D01*
X1433Y6647D01*
X1361Y6718D01*
X1356Y6722D01*
Y6881D01*
X1356Y6881D01*
X1353Y6897D01*
X1343Y6911D01*
X1234Y7021D01*
X1235Y7023D01*
X1238Y7046D01*
X1235Y7069D01*
X1226Y7091D01*
X1211Y7109D01*
X1193Y7124D01*
X1171Y7133D01*
X1148Y7136D01*
D02*
G37*
G36*
X5464Y7717D02*
X5440Y7714D01*
X5419Y7705D01*
X5400Y7691D01*
X5386Y7672D01*
X5377Y7651D01*
X5374Y7628D01*
X5377Y7604D01*
X5378Y7602D01*
X5342Y7566D01*
X5331D01*
X5315Y7563D01*
X5301Y7554D01*
X4755Y7007D01*
X4753Y7008D01*
X4729Y7011D01*
X4706Y7008D01*
X4685Y6999D01*
X4666Y6985D01*
X4652Y6966D01*
X4643Y6945D01*
X4640Y6921D01*
X4643Y6898D01*
X4652Y6877D01*
X4666Y6858D01*
X4685Y6844D01*
X4706Y6835D01*
X4729Y6832D01*
X4753Y6835D01*
X4774Y6844D01*
X4793Y6858D01*
X4807Y6877D01*
X4816Y6898D01*
X4819Y6921D01*
X4816Y6945D01*
X4815Y6947D01*
X5349Y7481D01*
X5359D01*
X5376Y7484D01*
X5390Y7493D01*
X5438Y7542D01*
X5440Y7541D01*
X5464Y7538D01*
X5487Y7541D01*
X5508Y7550D01*
X5527Y7564D01*
X5541Y7583D01*
X5550Y7604D01*
X5553Y7628D01*
X5550Y7651D01*
X5541Y7672D01*
X5527Y7691D01*
X5508Y7705D01*
X5487Y7714D01*
X5464Y7717D01*
D02*
G37*
G36*
X2656Y8448D02*
X2627Y8445D01*
X2600Y8434D01*
X2578Y8416D01*
X2560Y8393D01*
X2549Y8367D01*
X2545Y8338D01*
X2549Y8310D01*
X2560Y8283D01*
X2578Y8260D01*
X2600Y8243D01*
X2627Y8232D01*
X2656Y8228D01*
X2684Y8232D01*
X2711Y8243D01*
X2733Y8260D01*
X2751Y8283D01*
X2762Y8310D01*
X2766Y8338D01*
X2762Y8367D01*
X2751Y8393D01*
X2733Y8416D01*
X2711Y8434D01*
X2684Y8445D01*
X2656Y8448D01*
D02*
G37*
G36*
X2402D02*
X2373Y8445D01*
X2346Y8434D01*
X2324Y8416D01*
X2306Y8393D01*
X2295Y8367D01*
X2291Y8338D01*
X2295Y8310D01*
X2306Y8283D01*
X2324Y8260D01*
X2346Y8243D01*
X2373Y8232D01*
X2402Y8228D01*
X2430Y8232D01*
X2457Y8243D01*
X2479Y8260D01*
X2497Y8283D01*
X2508Y8310D01*
X2512Y8338D01*
X2508Y8367D01*
X2497Y8393D01*
X2479Y8416D01*
X2457Y8434D01*
X2430Y8445D01*
X2402Y8448D01*
D02*
G37*
G36*
X2885Y8185D02*
X2862Y8182D01*
X2841Y8173D01*
X2822Y8158D01*
X2808Y8140D01*
X2799Y8118D01*
X2796Y8095D01*
X2799Y8072D01*
X2808Y8050D01*
X2822Y8032D01*
X2841Y8017D01*
X2862Y8008D01*
X2885Y8005D01*
X2909Y8008D01*
X2930Y8017D01*
X2949Y8032D01*
X2963Y8050D01*
X2964Y8052D01*
X3284D01*
X3373Y7963D01*
X3373Y7963D01*
X3387Y7954D01*
X3404Y7951D01*
X5311D01*
X5311Y7951D01*
X5327Y7954D01*
X5338Y7961D01*
X5355D01*
X5355Y7959D01*
X5370Y7940D01*
X5388Y7926D01*
X5410Y7917D01*
X5433Y7914D01*
X5456Y7917D01*
X5478Y7926D01*
X5496Y7940D01*
X5511Y7959D01*
X5520Y7980D01*
X5523Y8004D01*
X5520Y8027D01*
X5511Y8048D01*
X5496Y8067D01*
X5478Y8081D01*
X5456Y8090D01*
X5433Y8093D01*
X5410Y8090D01*
X5388Y8081D01*
X5370Y8067D01*
X5355Y8048D01*
X5355Y8046D01*
X5301D01*
X5285Y8043D01*
X5274Y8036D01*
X3421D01*
X3332Y8125D01*
X3318Y8134D01*
X3302Y8138D01*
X2964D01*
X2963Y8140D01*
X2949Y8158D01*
X2930Y8173D01*
X2909Y8182D01*
X2885Y8185D01*
D02*
G37*
G36*
X4542Y6354D02*
X4518Y6351D01*
X4497Y6342D01*
X4478Y6327D01*
X4464Y6309D01*
X4463Y6307D01*
X2227D01*
X2226Y6309D01*
X2212Y6327D01*
X2194Y6342D01*
X2172Y6351D01*
X2149Y6354D01*
X2126Y6351D01*
X2104Y6342D01*
X2085Y6327D01*
X2071Y6309D01*
X2062Y6287D01*
X2059Y6264D01*
X2062Y6241D01*
X2071Y6219D01*
X2085Y6201D01*
X2104Y6186D01*
X2126Y6177D01*
X2149Y6174D01*
X2172Y6177D01*
X2194Y6186D01*
X2212Y6201D01*
X2226Y6219D01*
X2227Y6221D01*
X4463D01*
X4464Y6219D01*
X4478Y6201D01*
X4497Y6186D01*
X4518Y6177D01*
X4542Y6174D01*
X4565Y6177D01*
X4586Y6186D01*
X4605Y6201D01*
X4619Y6219D01*
X4628Y6241D01*
X4631Y6264D01*
X4628Y6287D01*
X4619Y6309D01*
X4605Y6327D01*
X4586Y6342D01*
X4565Y6351D01*
X4542Y6354D01*
D02*
G37*
G36*
X2365Y6142D02*
X2342Y6139D01*
X2320Y6130D01*
X2301Y6116D01*
X2287Y6098D01*
X2278Y6076D01*
X2275Y6053D01*
X2278Y6030D01*
X2287Y6008D01*
X2301Y5989D01*
X2320Y5975D01*
X2325Y5973D01*
X2335Y5959D01*
X2835Y5459D01*
X2835Y5459D01*
X2843Y5454D01*
X2848Y5449D01*
X2844Y5439D01*
X2840Y5413D01*
X2844Y5387D01*
X2854Y5362D01*
X2870Y5341D01*
X2891Y5325D01*
X2915Y5315D01*
X2941Y5311D01*
X2968Y5315D01*
X2992Y5325D01*
X3013Y5341D01*
X3029Y5362D01*
X3039Y5387D01*
X3043Y5413D01*
X3039Y5439D01*
X3036Y5447D01*
X3340Y5751D01*
X3348Y5744D01*
X3372Y5734D01*
X3399Y5731D01*
X3425Y5734D01*
X3449Y5744D01*
X3470Y5760D01*
X3486Y5781D01*
X3496Y5806D01*
X3500Y5832D01*
X3496Y5858D01*
X3486Y5882D01*
X3470Y5903D01*
X3449Y5920D01*
X3425Y5930D01*
X3399Y5933D01*
X3372Y5930D01*
X3348Y5920D01*
X3327Y5903D01*
X3311Y5882D01*
X3301Y5858D01*
X3297Y5832D01*
X3298Y5829D01*
X2975Y5507D01*
X2968Y5511D01*
X2941Y5514D01*
X2915Y5511D01*
X2909Y5508D01*
X2898Y5519D01*
X2890Y5524D01*
X2428Y5987D01*
X2428Y5989D01*
X2442Y6008D01*
X2451Y6030D01*
X2454Y6053D01*
X2451Y6076D01*
X2442Y6098D01*
X2428Y6116D01*
X2410Y6130D01*
X2388Y6139D01*
X2365Y6142D01*
D02*
G37*
G36*
X5296Y5800D02*
X5273Y5797D01*
X5251Y5788D01*
X5232Y5774D01*
X5218Y5755D01*
X5209Y5733D01*
X5206Y5710D01*
X5209Y5687D01*
X5218Y5665D01*
X5232Y5647D01*
X5251Y5633D01*
X5273Y5624D01*
X5296Y5621D01*
X5319Y5624D01*
X5321Y5624D01*
X5528Y5418D01*
X5541Y5409D01*
X5558Y5406D01*
X5558Y5406D01*
X5695D01*
X5696Y5403D01*
X5710Y5385D01*
X5729Y5371D01*
X5750Y5362D01*
X5773Y5359D01*
X5797Y5362D01*
X5818Y5371D01*
X5837Y5385D01*
X5851Y5403D01*
X5860Y5425D01*
X5863Y5448D01*
X5860Y5472D01*
X5851Y5493D01*
X5837Y5512D01*
X5818Y5526D01*
X5797Y5535D01*
X5773Y5538D01*
X5750Y5535D01*
X5729Y5526D01*
X5710Y5512D01*
X5696Y5493D01*
X5695Y5491D01*
X5575D01*
X5382Y5685D01*
X5383Y5687D01*
X5386Y5710D01*
X5383Y5733D01*
X5374Y5755D01*
X5359Y5774D01*
X5341Y5788D01*
X5319Y5797D01*
X5296Y5800D01*
D02*
G37*
G36*
X1943Y5795D02*
X1920Y5791D01*
X1898Y5782D01*
X1880Y5768D01*
X1865Y5750D01*
X1856Y5728D01*
X1853Y5705D01*
X1856Y5682D01*
X1865Y5660D01*
X1880Y5641D01*
X1898Y5627D01*
X1900Y5626D01*
Y5588D01*
X1904Y5572D01*
X1913Y5558D01*
X2279Y5192D01*
X2292Y5183D01*
X2309Y5179D01*
X2309Y5179D01*
X3424D01*
X3425Y5177D01*
X3439Y5159D01*
X3458Y5145D01*
X3479Y5136D01*
X3503Y5133D01*
X3526Y5136D01*
X3547Y5145D01*
X3566Y5159D01*
X3580Y5177D01*
X3589Y5199D01*
X3592Y5222D01*
X3589Y5245D01*
X3580Y5267D01*
X3566Y5286D01*
X3547Y5300D01*
X3526Y5309D01*
X3503Y5312D01*
X3479Y5309D01*
X3458Y5300D01*
X3439Y5286D01*
X3425Y5267D01*
X3424Y5265D01*
X2327D01*
X1986Y5606D01*
Y5626D01*
X1988Y5627D01*
X2007Y5641D01*
X2021Y5660D01*
X2030Y5682D01*
X2033Y5705D01*
X2030Y5728D01*
X2021Y5750D01*
X2007Y5768D01*
X1988Y5782D01*
X1966Y5791D01*
X1943Y5795D01*
D02*
G37*
G36*
X7188Y6073D02*
X7160Y6069D01*
X7133Y6058D01*
X7111Y6041D01*
X7094Y6018D01*
X7083Y5992D01*
X7079Y5964D01*
X7083Y5936D01*
X7094Y5910D01*
X7111Y5887D01*
X7133Y5870D01*
X7160Y5859D01*
X7188Y5855D01*
X7216Y5859D01*
X7242Y5870D01*
X7265Y5887D01*
X7282Y5910D01*
X7293Y5936D01*
X7297Y5964D01*
X7293Y5992D01*
X7282Y6018D01*
X7265Y6041D01*
X7242Y6058D01*
X7216Y6069D01*
X7188Y6073D01*
D02*
G37*
G36*
X1349Y6323D02*
X1326Y6320D01*
X1304Y6311D01*
X1285Y6297D01*
X1271Y6278D01*
X1270Y6276D01*
X1161D01*
X1144Y6273D01*
X1131Y6263D01*
X1131Y6263D01*
X427Y5560D01*
X418Y5546D01*
X414Y5530D01*
X418Y5513D01*
X427Y5499D01*
X430Y5497D01*
Y3386D01*
X428Y3385D01*
X409Y3370D01*
X395Y3352D01*
X386Y3330D01*
X383Y3307D01*
X386Y3284D01*
X395Y3262D01*
X409Y3244D01*
X428Y3229D01*
X449Y3220D01*
X472Y3217D01*
X496Y3220D01*
X517Y3229D01*
X536Y3244D01*
X550Y3262D01*
X559Y3284D01*
X562Y3307D01*
X559Y3330D01*
X550Y3352D01*
X536Y3370D01*
X517Y3385D01*
X515Y3386D01*
Y5514D01*
X515Y5514D01*
X513Y5525D01*
X1178Y6190D01*
X1270D01*
X1271Y6188D01*
X1285Y6170D01*
X1304Y6156D01*
X1326Y6147D01*
X1349Y6143D01*
X1372Y6147D01*
X1394Y6156D01*
X1412Y6170D01*
X1426Y6188D01*
X1435Y6210D01*
X1438Y6233D01*
X1435Y6256D01*
X1426Y6278D01*
X1412Y6297D01*
X1394Y6311D01*
X1372Y6320D01*
X1349Y6323D01*
D02*
G37*
G36*
X5588Y6186D02*
X5564Y6183D01*
X5543Y6174D01*
X5524Y6159D01*
X5510Y6141D01*
X5509Y6139D01*
X3073D01*
X3057Y6135D01*
X3043Y6126D01*
X3043Y6126D01*
X2985Y6068D01*
X2976Y6054D01*
X2972Y6038D01*
Y5867D01*
X2970Y5866D01*
X2952Y5852D01*
X2937Y5833D01*
X2928Y5812D01*
X2925Y5789D01*
X2928Y5765D01*
X2937Y5744D01*
X2952Y5725D01*
X2970Y5711D01*
X2992Y5702D01*
X3015Y5699D01*
X3038Y5702D01*
X3060Y5711D01*
X3078Y5725D01*
X3093Y5744D01*
X3102Y5765D01*
X3105Y5789D01*
X3102Y5812D01*
X3093Y5833D01*
X3078Y5852D01*
X3060Y5866D01*
X3058Y5867D01*
Y6020D01*
X3091Y6053D01*
X5509D01*
X5510Y6051D01*
X5524Y6033D01*
X5543Y6018D01*
X5564Y6009D01*
X5588Y6006D01*
X5611Y6009D01*
X5632Y6018D01*
X5651Y6033D01*
X5665Y6051D01*
X5674Y6073D01*
X5677Y6096D01*
X5674Y6119D01*
X5665Y6141D01*
X5651Y6159D01*
X5632Y6174D01*
X5611Y6183D01*
X5588Y6186D01*
D02*
G37*
G36*
X8088Y6073D02*
X8060Y6069D01*
X8033Y6058D01*
X8011Y6041D01*
X7994Y6018D01*
X7983Y5992D01*
X7979Y5964D01*
X7983Y5936D01*
X7994Y5910D01*
X8011Y5887D01*
X8033Y5870D01*
X8060Y5859D01*
X8088Y5855D01*
X8116Y5859D01*
X8142Y5870D01*
X8165Y5887D01*
X8182Y5910D01*
X8193Y5936D01*
X8197Y5964D01*
X8193Y5992D01*
X8182Y6018D01*
X8165Y6041D01*
X8142Y6058D01*
X8116Y6069D01*
X8088Y6073D01*
D02*
G37*
G36*
X2910Y9210D02*
X2881Y9207D01*
X2854Y9196D01*
X2832Y9178D01*
X2814Y9155D01*
X2803Y9129D01*
X2799Y9100D01*
X2803Y9072D01*
X2814Y9045D01*
X2832Y9022D01*
X2854Y9005D01*
X2881Y8994D01*
X2910Y8990D01*
X2938Y8994D01*
X2965Y9005D01*
X2987Y9022D01*
X3005Y9045D01*
X3016Y9072D01*
X3020Y9100D01*
X3016Y9129D01*
X3005Y9155D01*
X2987Y9178D01*
X2965Y9196D01*
X2938Y9207D01*
X2910Y9210D01*
D02*
G37*
G36*
X2656D02*
X2627Y9207D01*
X2600Y9196D01*
X2578Y9178D01*
X2560Y9155D01*
X2549Y9129D01*
X2545Y9100D01*
X2549Y9072D01*
X2560Y9045D01*
X2578Y9022D01*
X2600Y9005D01*
X2627Y8994D01*
X2656Y8990D01*
X2684Y8994D01*
X2711Y9005D01*
X2733Y9022D01*
X2751Y9045D01*
X2762Y9072D01*
X2766Y9100D01*
X2762Y9129D01*
X2751Y9155D01*
X2733Y9178D01*
X2711Y9196D01*
X2684Y9207D01*
X2656Y9210D01*
D02*
G37*
G36*
X2402D02*
X2373Y9207D01*
X2346Y9196D01*
X2324Y9178D01*
X2306Y9155D01*
X2295Y9129D01*
X2291Y9100D01*
X2295Y9072D01*
X2306Y9045D01*
X2324Y9022D01*
X2346Y9005D01*
X2373Y8994D01*
X2402Y8990D01*
X2430Y8994D01*
X2457Y9005D01*
X2479Y9022D01*
X2497Y9045D01*
X2508Y9072D01*
X2512Y9100D01*
X2508Y9129D01*
X2497Y9155D01*
X2479Y9178D01*
X2457Y9196D01*
X2430Y9207D01*
X2402Y9210D01*
D02*
G37*
G36*
X3164D02*
X3135Y9207D01*
X3108Y9196D01*
X3086Y9178D01*
X3068Y9155D01*
X3057Y9129D01*
X3053Y9100D01*
X3057Y9072D01*
X3068Y9045D01*
X3086Y9022D01*
X3108Y9005D01*
X3135Y8994D01*
X3164Y8990D01*
X3192Y8994D01*
X3219Y9005D01*
X3241Y9022D01*
X3259Y9045D01*
X3270Y9072D01*
X3274Y9100D01*
X3270Y9129D01*
X3259Y9155D01*
X3241Y9178D01*
X3219Y9196D01*
X3192Y9207D01*
X3164Y9210D01*
D02*
G37*
G36*
X3926D02*
X3897Y9207D01*
X3870Y9196D01*
X3848Y9178D01*
X3830Y9155D01*
X3819Y9129D01*
X3815Y9100D01*
X3819Y9072D01*
X3830Y9045D01*
X3848Y9022D01*
X3870Y9005D01*
X3897Y8994D01*
X3926Y8990D01*
X3954Y8994D01*
X3981Y9005D01*
X4003Y9022D01*
X4021Y9045D01*
X4032Y9072D01*
X4036Y9100D01*
X4032Y9129D01*
X4021Y9155D01*
X4003Y9178D01*
X3981Y9196D01*
X3954Y9207D01*
X3926Y9210D01*
D02*
G37*
G36*
X3672D02*
X3643Y9207D01*
X3616Y9196D01*
X3594Y9178D01*
X3576Y9155D01*
X3565Y9129D01*
X3561Y9100D01*
X3565Y9072D01*
X3576Y9045D01*
X3594Y9022D01*
X3616Y9005D01*
X3643Y8994D01*
X3672Y8990D01*
X3700Y8994D01*
X3727Y9005D01*
X3749Y9022D01*
X3767Y9045D01*
X3778Y9072D01*
X3782Y9100D01*
X3778Y9129D01*
X3767Y9155D01*
X3749Y9178D01*
X3727Y9196D01*
X3700Y9207D01*
X3672Y9210D01*
D02*
G37*
G36*
X3418D02*
X3389Y9207D01*
X3362Y9196D01*
X3340Y9178D01*
X3322Y9155D01*
X3311Y9129D01*
X3307Y9100D01*
X3311Y9072D01*
X3322Y9045D01*
X3340Y9022D01*
X3362Y9005D01*
X3389Y8994D01*
X3418Y8990D01*
X3446Y8994D01*
X3473Y9005D01*
X3495Y9022D01*
X3513Y9045D01*
X3524Y9072D01*
X3528Y9100D01*
X3524Y9129D01*
X3513Y9155D01*
X3495Y9178D01*
X3473Y9196D01*
X3446Y9207D01*
X3418Y9210D01*
D02*
G37*
G36*
X2148D02*
X2119Y9207D01*
X2092Y9196D01*
X2070Y9178D01*
X2052Y9155D01*
X2041Y9129D01*
X2037Y9100D01*
X2041Y9072D01*
X2052Y9045D01*
X2070Y9022D01*
X2092Y9005D01*
X2119Y8994D01*
X2148Y8990D01*
X2176Y8994D01*
X2203Y9005D01*
X2225Y9022D01*
X2243Y9045D01*
X2254Y9072D01*
X2258Y9100D01*
X2254Y9129D01*
X2243Y9155D01*
X2225Y9178D01*
X2203Y9196D01*
X2176Y9207D01*
X2148Y9210D01*
D02*
G37*
G36*
X7482Y8956D02*
X7453Y8953D01*
X7426Y8942D01*
X7404Y8924D01*
X7386Y8901D01*
X7375Y8875D01*
X7371Y8846D01*
X7375Y8818D01*
X7386Y8791D01*
X7404Y8768D01*
X7426Y8751D01*
X7453Y8740D01*
X7482Y8736D01*
X7510Y8740D01*
X7537Y8751D01*
X7559Y8768D01*
X7577Y8791D01*
X7588Y8818D01*
X7592Y8846D01*
X7588Y8875D01*
X7577Y8901D01*
X7559Y8924D01*
X7537Y8942D01*
X7510Y8953D01*
X7482Y8956D01*
D02*
G37*
G36*
X7228D02*
X7199Y8953D01*
X7172Y8942D01*
X7150Y8924D01*
X7132Y8901D01*
X7121Y8875D01*
X7117Y8846D01*
X7121Y8818D01*
X7132Y8791D01*
X7150Y8768D01*
X7172Y8751D01*
X7199Y8740D01*
X7228Y8736D01*
X7256Y8740D01*
X7283Y8751D01*
X7305Y8768D01*
X7323Y8791D01*
X7334Y8818D01*
X7338Y8846D01*
X7334Y8875D01*
X7323Y8901D01*
X7305Y8924D01*
X7283Y8942D01*
X7256Y8953D01*
X7228Y8956D01*
D02*
G37*
G36*
X6466D02*
X6437Y8953D01*
X6410Y8942D01*
X6388Y8924D01*
X6370Y8901D01*
X6359Y8875D01*
X6355Y8846D01*
X6359Y8818D01*
X6370Y8791D01*
X6388Y8768D01*
X6410Y8751D01*
X6437Y8740D01*
X6466Y8736D01*
X6494Y8740D01*
X6521Y8751D01*
X6543Y8768D01*
X6561Y8791D01*
X6572Y8818D01*
X6576Y8846D01*
X6572Y8875D01*
X6561Y8901D01*
X6543Y8924D01*
X6521Y8942D01*
X6494Y8953D01*
X6466Y8956D01*
D02*
G37*
G36*
X7736D02*
X7707Y8953D01*
X7680Y8942D01*
X7658Y8924D01*
X7640Y8901D01*
X7629Y8875D01*
X7625Y8846D01*
X7629Y8818D01*
X7640Y8791D01*
X7658Y8768D01*
X7680Y8751D01*
X7707Y8740D01*
X7736Y8736D01*
X7764Y8740D01*
X7791Y8751D01*
X7813Y8768D01*
X7831Y8791D01*
X7842Y8818D01*
X7846Y8846D01*
X7842Y8875D01*
X7831Y8901D01*
X7813Y8924D01*
X7791Y8942D01*
X7764Y8953D01*
X7736Y8956D01*
D02*
G37*
G36*
X1894Y9210D02*
X1865Y9207D01*
X1838Y9196D01*
X1816Y9178D01*
X1798Y9155D01*
X1787Y9129D01*
X1783Y9100D01*
X1787Y9072D01*
X1798Y9045D01*
X1816Y9022D01*
X1838Y9005D01*
X1865Y8994D01*
X1894Y8990D01*
X1922Y8994D01*
X1949Y9005D01*
X1971Y9022D01*
X1989Y9045D01*
X2000Y9072D01*
X2004Y9100D01*
X2000Y9129D01*
X1989Y9155D01*
X1971Y9178D01*
X1949Y9196D01*
X1922Y9207D01*
X1894Y9210D01*
D02*
G37*
G36*
X1640D02*
X1611Y9207D01*
X1584Y9196D01*
X1562Y9178D01*
X1544Y9155D01*
X1533Y9129D01*
X1529Y9100D01*
X1533Y9072D01*
X1544Y9045D01*
X1562Y9022D01*
X1584Y9005D01*
X1611Y8994D01*
X1640Y8990D01*
X1668Y8994D01*
X1695Y9005D01*
X1717Y9022D01*
X1735Y9045D01*
X1746Y9072D01*
X1750Y9100D01*
X1746Y9129D01*
X1735Y9155D01*
X1717Y9178D01*
X1695Y9196D01*
X1668Y9207D01*
X1640Y9210D01*
D02*
G37*
G36*
X1386D02*
X1357Y9207D01*
X1330Y9196D01*
X1308Y9178D01*
X1290Y9155D01*
X1279Y9129D01*
X1275Y9100D01*
X1279Y9072D01*
X1290Y9045D01*
X1308Y9022D01*
X1330Y9005D01*
X1357Y8994D01*
X1386Y8990D01*
X1414Y8994D01*
X1441Y9005D01*
X1463Y9022D01*
X1481Y9045D01*
X1492Y9072D01*
X1496Y9100D01*
X1492Y9129D01*
X1481Y9155D01*
X1463Y9178D01*
X1441Y9196D01*
X1414Y9207D01*
X1386Y9210D01*
D02*
G37*
G36*
X6720D02*
X6691Y9207D01*
X6664Y9196D01*
X6642Y9178D01*
X6624Y9155D01*
X6613Y9129D01*
X6609Y9100D01*
X6613Y9072D01*
X6624Y9045D01*
X6642Y9022D01*
X6664Y9005D01*
X6691Y8994D01*
X6720Y8990D01*
X6748Y8994D01*
X6775Y9005D01*
X6797Y9022D01*
X6815Y9045D01*
X6826Y9072D01*
X6830Y9100D01*
X6826Y9129D01*
X6815Y9155D01*
X6797Y9178D01*
X6775Y9196D01*
X6748Y9207D01*
X6720Y9210D01*
D02*
G37*
G36*
X6466D02*
X6437Y9207D01*
X6410Y9196D01*
X6388Y9178D01*
X6370Y9155D01*
X6359Y9129D01*
X6355Y9100D01*
X6359Y9072D01*
X6370Y9045D01*
X6388Y9022D01*
X6410Y9005D01*
X6437Y8994D01*
X6466Y8990D01*
X6494Y8994D01*
X6521Y9005D01*
X6543Y9022D01*
X6561Y9045D01*
X6572Y9072D01*
X6576Y9100D01*
X6572Y9129D01*
X6561Y9155D01*
X6543Y9178D01*
X6521Y9196D01*
X6494Y9207D01*
X6466Y9210D01*
D02*
G37*
G36*
X6212D02*
X6183Y9207D01*
X6156Y9196D01*
X6134Y9178D01*
X6116Y9155D01*
X6105Y9129D01*
X6101Y9100D01*
X6105Y9072D01*
X6116Y9045D01*
X6134Y9022D01*
X6156Y9005D01*
X6183Y8994D01*
X6212Y8990D01*
X6240Y8994D01*
X6267Y9005D01*
X6289Y9022D01*
X6307Y9045D01*
X6318Y9072D01*
X6322Y9100D01*
X6318Y9129D01*
X6307Y9155D01*
X6289Y9178D01*
X6267Y9196D01*
X6240Y9207D01*
X6212Y9210D01*
D02*
G37*
G36*
X6974D02*
X6945Y9207D01*
X6918Y9196D01*
X6896Y9178D01*
X6878Y9155D01*
X6867Y9129D01*
X6863Y9100D01*
X6867Y9072D01*
X6872Y9059D01*
X6820Y9007D01*
X6811Y8993D01*
X6808Y8977D01*
Y8930D01*
X6795Y8926D01*
X6775Y8942D01*
X6748Y8953D01*
X6720Y8956D01*
X6691Y8953D01*
X6664Y8942D01*
X6642Y8924D01*
X6624Y8901D01*
X6613Y8875D01*
X6609Y8846D01*
X6613Y8818D01*
X6624Y8791D01*
X6642Y8768D01*
X6664Y8751D01*
X6691Y8740D01*
X6720Y8736D01*
X6748Y8740D01*
X6775Y8751D01*
X6795Y8766D01*
X6808Y8763D01*
Y8676D01*
X6795Y8672D01*
X6775Y8688D01*
X6748Y8699D01*
X6720Y8702D01*
X6691Y8699D01*
X6664Y8688D01*
X6642Y8670D01*
X6624Y8647D01*
X6613Y8621D01*
X6609Y8592D01*
X6613Y8564D01*
X6624Y8537D01*
X6642Y8514D01*
X6664Y8497D01*
X6691Y8486D01*
X6720Y8482D01*
X6748Y8486D01*
X6775Y8497D01*
X6795Y8512D01*
X6808Y8509D01*
Y8422D01*
X6795Y8418D01*
X6775Y8434D01*
X6748Y8445D01*
X6720Y8448D01*
X6691Y8445D01*
X6664Y8434D01*
X6642Y8416D01*
X6624Y8393D01*
X6613Y8367D01*
X6609Y8338D01*
X6613Y8310D01*
X6624Y8283D01*
X6642Y8260D01*
X6664Y8243D01*
X6691Y8232D01*
X6720Y8228D01*
X6748Y8232D01*
X6775Y8243D01*
X6776Y8244D01*
X6785Y8235D01*
X6754Y8204D01*
X5867D01*
X5867Y8204D01*
X5851Y8200D01*
X5837Y8191D01*
X5837Y8191D01*
X5540Y7894D01*
X5400D01*
X5384Y7891D01*
X5370Y7881D01*
X5370Y7881D01*
X5299Y7810D01*
X5248D01*
X5231Y7807D01*
X5217Y7798D01*
X5217Y7798D01*
X5128Y7708D01*
X3869D01*
X3861Y7718D01*
X3861Y7719D01*
X3864Y7742D01*
X3861Y7765D01*
X3852Y7787D01*
X3838Y7805D01*
X3819Y7820D01*
X3798Y7829D01*
X3774Y7832D01*
X3751Y7829D01*
X3730Y7820D01*
X3711Y7805D01*
X3697Y7787D01*
X3688Y7765D01*
X3685Y7742D01*
X3688Y7719D01*
X3689Y7717D01*
X3566Y7594D01*
X3081D01*
X3081Y7594D01*
X3065Y7591D01*
X3051Y7582D01*
X3051Y7582D01*
X2870Y7401D01*
X2868Y7402D01*
X2845Y7405D01*
X2822Y7402D01*
X2800Y7393D01*
X2781Y7379D01*
X2767Y7360D01*
X2758Y7338D01*
X2755Y7315D01*
X2758Y7292D01*
X2767Y7270D01*
X2781Y7252D01*
X2800Y7238D01*
X2802Y7237D01*
Y7165D01*
X2805Y7149D01*
X2815Y7135D01*
X3406Y6544D01*
X3402Y6536D01*
X3399Y6510D01*
X3402Y6484D01*
X3412Y6459D01*
X3429Y6438D01*
X3449Y6422D01*
X3474Y6412D01*
X3500Y6409D01*
X3526Y6412D01*
X3551Y6422D01*
X3572Y6438D01*
X3588Y6459D01*
X3598Y6484D01*
X3601Y6510D01*
X3598Y6536D01*
X3588Y6561D01*
X3572Y6582D01*
X3551Y6598D01*
X3526Y6608D01*
X3500Y6611D01*
X3474Y6608D01*
X3466Y6605D01*
X2888Y7183D01*
Y7237D01*
X2890Y7238D01*
X2908Y7252D01*
X2922Y7270D01*
X2931Y7292D01*
X2934Y7315D01*
X2931Y7338D01*
X2931Y7341D01*
X3099Y7509D01*
X3309D01*
X3311Y7496D01*
X3295Y7489D01*
X3277Y7475D01*
X3262Y7457D01*
X3253Y7435D01*
X3250Y7412D01*
X3253Y7389D01*
X3262Y7367D01*
X3277Y7348D01*
X3295Y7334D01*
X3317Y7325D01*
X3340Y7322D01*
X3363Y7325D01*
X3385Y7334D01*
X3404Y7348D01*
X3418Y7367D01*
X3419Y7369D01*
X3491D01*
X3907Y6953D01*
Y6550D01*
X3905Y6550D01*
X3886Y6535D01*
X3872Y6517D01*
X3863Y6495D01*
X3860Y6472D01*
X3863Y6449D01*
X3872Y6427D01*
X3886Y6409D01*
X3905Y6394D01*
X3926Y6385D01*
X3950Y6382D01*
X3973Y6385D01*
X3995Y6394D01*
X4013Y6409D01*
X4027Y6427D01*
X4036Y6449D01*
X4039Y6472D01*
X4036Y6495D01*
X4027Y6517D01*
X4013Y6535D01*
X3995Y6550D01*
X3992Y6550D01*
Y6971D01*
X3989Y6987D01*
X3980Y7001D01*
X3539Y7442D01*
X3525Y7451D01*
X3509Y7454D01*
X3419D01*
X3418Y7457D01*
X3404Y7475D01*
X3385Y7489D01*
X3369Y7496D01*
X3371Y7509D01*
X3584D01*
X3600Y7512D01*
X3614Y7521D01*
X3749Y7656D01*
X3751Y7655D01*
X3774Y7652D01*
X3798Y7655D01*
X3800Y7656D01*
X3820Y7636D01*
X4042Y7414D01*
Y7150D01*
X4039Y7149D01*
X4021Y7135D01*
X4007Y7116D01*
X3998Y7095D01*
X3995Y7071D01*
X3998Y7048D01*
X4007Y7027D01*
X4021Y7008D01*
X4039Y6994D01*
X4061Y6985D01*
X4084Y6982D01*
X4108Y6985D01*
X4129Y6994D01*
X4148Y7008D01*
X4162Y7027D01*
X4171Y7048D01*
X4174Y7071D01*
X4171Y7095D01*
X4162Y7116D01*
X4148Y7135D01*
X4129Y7149D01*
X4127Y7150D01*
Y7432D01*
X4127Y7432D01*
X4124Y7448D01*
X4115Y7462D01*
X3966Y7611D01*
X3970Y7623D01*
X5146D01*
X5162Y7626D01*
X5176Y7636D01*
X5265Y7725D01*
X5316D01*
X5333Y7728D01*
X5346Y7737D01*
X5418Y7808D01*
X5558D01*
X5574Y7812D01*
X5588Y7821D01*
X5885Y8118D01*
X6772D01*
X6788Y8122D01*
X6802Y8131D01*
X6881Y8210D01*
X6890Y8223D01*
X6893Y8240D01*
Y8246D01*
X6906Y8252D01*
X6918Y8243D01*
X6945Y8232D01*
X6974Y8228D01*
X7002Y8232D01*
X7029Y8243D01*
X7051Y8260D01*
X7069Y8283D01*
X7080Y8310D01*
X7084Y8338D01*
X7080Y8367D01*
X7069Y8393D01*
X7051Y8416D01*
X7029Y8434D01*
X7002Y8445D01*
X6974Y8448D01*
X6945Y8445D01*
X6918Y8434D01*
X6906Y8424D01*
X6893Y8430D01*
Y8500D01*
X6906Y8506D01*
X6918Y8497D01*
X6945Y8486D01*
X6974Y8482D01*
X7002Y8486D01*
X7029Y8497D01*
X7051Y8514D01*
X7069Y8537D01*
X7080Y8564D01*
X7084Y8592D01*
X7080Y8621D01*
X7069Y8647D01*
X7051Y8670D01*
X7029Y8688D01*
X7002Y8699D01*
X6974Y8702D01*
X6945Y8699D01*
X6918Y8688D01*
X6906Y8678D01*
X6893Y8684D01*
Y8754D01*
X6906Y8760D01*
X6918Y8751D01*
X6945Y8740D01*
X6974Y8736D01*
X7002Y8740D01*
X7029Y8751D01*
X7051Y8768D01*
X7069Y8791D01*
X7080Y8818D01*
X7084Y8846D01*
X7080Y8875D01*
X7069Y8901D01*
X7051Y8924D01*
X7029Y8942D01*
X7002Y8953D01*
X6974Y8956D01*
X6945Y8953D01*
X6918Y8942D01*
X6906Y8932D01*
X6893Y8938D01*
Y8959D01*
X6933Y8999D01*
X6945Y8994D01*
X6974Y8990D01*
X7002Y8994D01*
X7029Y9005D01*
X7051Y9022D01*
X7069Y9045D01*
X7080Y9072D01*
X7084Y9100D01*
X7080Y9129D01*
X7069Y9155D01*
X7051Y9178D01*
X7029Y9196D01*
X7002Y9207D01*
X6974Y9210D01*
D02*
G37*
G36*
X7736D02*
X7707Y9207D01*
X7680Y9196D01*
X7658Y9178D01*
X7640Y9155D01*
X7629Y9129D01*
X7625Y9100D01*
X7629Y9072D01*
X7640Y9045D01*
X7658Y9022D01*
X7680Y9005D01*
X7707Y8994D01*
X7736Y8990D01*
X7764Y8994D01*
X7791Y9005D01*
X7813Y9022D01*
X7831Y9045D01*
X7842Y9072D01*
X7846Y9100D01*
X7842Y9129D01*
X7831Y9155D01*
X7813Y9178D01*
X7791Y9196D01*
X7764Y9207D01*
X7736Y9210D01*
D02*
G37*
G36*
X7482D02*
X7453Y9207D01*
X7426Y9196D01*
X7404Y9178D01*
X7386Y9155D01*
X7375Y9129D01*
X7371Y9100D01*
X7375Y9072D01*
X7386Y9045D01*
X7404Y9022D01*
X7426Y9005D01*
X7453Y8994D01*
X7482Y8990D01*
X7510Y8994D01*
X7537Y9005D01*
X7559Y9022D01*
X7577Y9045D01*
X7588Y9072D01*
X7592Y9100D01*
X7588Y9129D01*
X7577Y9155D01*
X7559Y9178D01*
X7537Y9196D01*
X7510Y9207D01*
X7482Y9210D01*
D02*
G37*
G36*
X7228D02*
X7199Y9207D01*
X7172Y9196D01*
X7150Y9178D01*
X7132Y9155D01*
X7121Y9129D01*
X7117Y9100D01*
X7121Y9072D01*
X7132Y9045D01*
X7150Y9022D01*
X7172Y9005D01*
X7199Y8994D01*
X7228Y8990D01*
X7256Y8994D01*
X7283Y9005D01*
X7305Y9022D01*
X7323Y9045D01*
X7334Y9072D01*
X7338Y9100D01*
X7334Y9129D01*
X7323Y9155D01*
X7305Y9178D01*
X7283Y9196D01*
X7256Y9207D01*
X7228Y9210D01*
D02*
G37*
G36*
X5958D02*
X5929Y9207D01*
X5902Y9196D01*
X5880Y9178D01*
X5862Y9155D01*
X5851Y9129D01*
X5847Y9100D01*
X5851Y9072D01*
X5862Y9045D01*
X5880Y9022D01*
X5902Y9005D01*
X5929Y8994D01*
X5958Y8990D01*
X5986Y8994D01*
X6013Y9005D01*
X6035Y9022D01*
X6053Y9045D01*
X6064Y9072D01*
X6068Y9100D01*
X6064Y9129D01*
X6053Y9155D01*
X6035Y9178D01*
X6013Y9196D01*
X5986Y9207D01*
X5958Y9210D01*
D02*
G37*
G36*
X4688D02*
X4659Y9207D01*
X4632Y9196D01*
X4610Y9178D01*
X4592Y9155D01*
X4581Y9129D01*
X4577Y9100D01*
X4581Y9072D01*
X4592Y9045D01*
X4610Y9022D01*
X4632Y9005D01*
X4659Y8994D01*
X4688Y8990D01*
X4716Y8994D01*
X4743Y9005D01*
X4765Y9022D01*
X4783Y9045D01*
X4794Y9072D01*
X4798Y9100D01*
X4794Y9129D01*
X4783Y9155D01*
X4765Y9178D01*
X4743Y9196D01*
X4716Y9207D01*
X4688Y9210D01*
D02*
G37*
G36*
X4434D02*
X4405Y9207D01*
X4378Y9196D01*
X4356Y9178D01*
X4338Y9155D01*
X4327Y9129D01*
X4323Y9100D01*
X4327Y9072D01*
X4338Y9045D01*
X4356Y9022D01*
X4378Y9005D01*
X4405Y8994D01*
X4434Y8990D01*
X4462Y8994D01*
X4489Y9005D01*
X4511Y9022D01*
X4529Y9045D01*
X4540Y9072D01*
X4544Y9100D01*
X4540Y9129D01*
X4529Y9155D01*
X4511Y9178D01*
X4489Y9196D01*
X4462Y9207D01*
X4434Y9210D01*
D02*
G37*
G36*
X4180D02*
X4151Y9207D01*
X4124Y9196D01*
X4102Y9178D01*
X4084Y9155D01*
X4073Y9129D01*
X4069Y9100D01*
X4073Y9072D01*
X4084Y9045D01*
X4102Y9022D01*
X4124Y9005D01*
X4151Y8994D01*
X4180Y8990D01*
X4208Y8994D01*
X4235Y9005D01*
X4257Y9022D01*
X4275Y9045D01*
X4286Y9072D01*
X4290Y9100D01*
X4286Y9129D01*
X4275Y9155D01*
X4257Y9178D01*
X4235Y9196D01*
X4208Y9207D01*
X4180Y9210D01*
D02*
G37*
G36*
X4942D02*
X4913Y9207D01*
X4886Y9196D01*
X4864Y9178D01*
X4846Y9155D01*
X4835Y9129D01*
X4831Y9100D01*
X4835Y9072D01*
X4846Y9045D01*
X4864Y9022D01*
X4886Y9005D01*
X4913Y8994D01*
X4942Y8990D01*
X4970Y8994D01*
X4997Y9005D01*
X5019Y9022D01*
X5037Y9045D01*
X5048Y9072D01*
X5052Y9100D01*
X5048Y9129D01*
X5037Y9155D01*
X5019Y9178D01*
X4997Y9196D01*
X4970Y9207D01*
X4942Y9210D01*
D02*
G37*
G36*
X5704D02*
X5675Y9207D01*
X5648Y9196D01*
X5626Y9178D01*
X5608Y9155D01*
X5597Y9129D01*
X5593Y9100D01*
X5597Y9072D01*
X5608Y9045D01*
X5626Y9022D01*
X5648Y9005D01*
X5675Y8994D01*
X5704Y8990D01*
X5732Y8994D01*
X5759Y9005D01*
X5781Y9022D01*
X5799Y9045D01*
X5810Y9072D01*
X5814Y9100D01*
X5810Y9129D01*
X5799Y9155D01*
X5781Y9178D01*
X5759Y9196D01*
X5732Y9207D01*
X5704Y9210D01*
D02*
G37*
G36*
X5450D02*
X5421Y9207D01*
X5394Y9196D01*
X5372Y9178D01*
X5354Y9155D01*
X5343Y9129D01*
X5339Y9100D01*
X5343Y9072D01*
X5354Y9045D01*
X5372Y9022D01*
X5394Y9005D01*
X5421Y8994D01*
X5450Y8990D01*
X5478Y8994D01*
X5505Y9005D01*
X5527Y9022D01*
X5545Y9045D01*
X5556Y9072D01*
X5560Y9100D01*
X5556Y9129D01*
X5545Y9155D01*
X5527Y9178D01*
X5505Y9196D01*
X5478Y9207D01*
X5450Y9210D01*
D02*
G37*
G36*
X5196D02*
X5167Y9207D01*
X5140Y9196D01*
X5118Y9178D01*
X5100Y9155D01*
X5089Y9129D01*
X5085Y9100D01*
X5089Y9072D01*
X5100Y9045D01*
X5118Y9022D01*
X5140Y9005D01*
X5167Y8994D01*
X5196Y8990D01*
X5224Y8994D01*
X5251Y9005D01*
X5273Y9022D01*
X5291Y9045D01*
X5302Y9072D01*
X5306Y9100D01*
X5302Y9129D01*
X5291Y9155D01*
X5273Y9178D01*
X5251Y9196D01*
X5224Y9207D01*
X5196Y9210D01*
D02*
G37*
G36*
X1894Y8702D02*
X1865Y8699D01*
X1838Y8688D01*
X1816Y8670D01*
X1798Y8647D01*
X1787Y8621D01*
X1783Y8592D01*
X1787Y8564D01*
X1798Y8537D01*
X1808Y8524D01*
X1802Y8511D01*
X1731D01*
X1725Y8524D01*
X1735Y8537D01*
X1746Y8564D01*
X1750Y8592D01*
X1746Y8621D01*
X1735Y8647D01*
X1717Y8670D01*
X1695Y8688D01*
X1668Y8699D01*
X1640Y8702D01*
X1611Y8699D01*
X1584Y8688D01*
X1562Y8670D01*
X1544Y8647D01*
X1533Y8621D01*
X1529Y8592D01*
X1533Y8564D01*
X1544Y8537D01*
X1554Y8524D01*
X1548Y8511D01*
X1516D01*
X1516Y8511D01*
X1499Y8508D01*
X1485Y8499D01*
X1426Y8439D01*
X1414Y8445D01*
X1386Y8448D01*
X1357Y8445D01*
X1330Y8434D01*
X1308Y8416D01*
X1290Y8393D01*
X1279Y8367D01*
X1275Y8338D01*
X1279Y8310D01*
X1290Y8283D01*
X1308Y8260D01*
X1330Y8243D01*
X1357Y8232D01*
X1386Y8228D01*
X1414Y8232D01*
X1441Y8243D01*
X1463Y8260D01*
X1481Y8283D01*
X1492Y8310D01*
X1496Y8338D01*
X1492Y8367D01*
X1487Y8379D01*
X1533Y8426D01*
X1555D01*
X1559Y8413D01*
X1544Y8393D01*
X1533Y8367D01*
X1529Y8338D01*
X1533Y8310D01*
X1544Y8283D01*
X1562Y8260D01*
X1584Y8243D01*
X1611Y8232D01*
X1640Y8228D01*
X1668Y8232D01*
X1695Y8243D01*
X1717Y8260D01*
X1735Y8283D01*
X1746Y8310D01*
X1750Y8338D01*
X1746Y8367D01*
X1735Y8393D01*
X1720Y8413D01*
X1724Y8426D01*
X1809D01*
X1813Y8413D01*
X1798Y8393D01*
X1787Y8367D01*
X1783Y8338D01*
X1787Y8310D01*
X1798Y8283D01*
X1802Y8278D01*
X1710Y8186D01*
X1700Y8172D01*
X1697Y8156D01*
Y6249D01*
X1684Y6242D01*
X1678Y6247D01*
X1656Y6256D01*
X1633Y6259D01*
X1610Y6256D01*
X1588Y6247D01*
X1570Y6233D01*
X1556Y6214D01*
X1547Y6193D01*
X1544Y6170D01*
X1547Y6146D01*
X1547Y6144D01*
X1522Y6118D01*
X1242D01*
X1242Y6118D01*
X1226Y6115D01*
X1212Y6106D01*
X1212Y6106D01*
X762Y5656D01*
X753Y5642D01*
X750Y5626D01*
Y5509D01*
X748Y5508D01*
X729Y5494D01*
X715Y5475D01*
X706Y5454D01*
X703Y5431D01*
X706Y5407D01*
X715Y5386D01*
X729Y5367D01*
X748Y5353D01*
X769Y5344D01*
X792Y5341D01*
X816Y5344D01*
X837Y5353D01*
X856Y5367D01*
X870Y5386D01*
X879Y5407D01*
X882Y5431D01*
X879Y5454D01*
X870Y5475D01*
X856Y5494D01*
X837Y5508D01*
X835Y5509D01*
Y5608D01*
X1260Y6033D01*
X1539D01*
X1556Y6036D01*
X1569Y6045D01*
X1608Y6084D01*
X1610Y6083D01*
X1633Y6080D01*
X1656Y6083D01*
X1678Y6092D01*
X1684Y6097D01*
X1697Y6091D01*
Y4795D01*
X1700Y4779D01*
X1710Y4765D01*
X1814Y4661D01*
Y4473D01*
X1817Y4457D01*
X1826Y4443D01*
X2110Y4159D01*
X2110Y4156D01*
X2109Y4145D01*
X2093Y4132D01*
X2079Y4114D01*
X2070Y4092D01*
X2067Y4069D01*
X2070Y4046D01*
X2079Y4024D01*
X2093Y4006D01*
X2112Y3991D01*
X2133Y3982D01*
X2156Y3979D01*
X2180Y3982D01*
X2201Y3991D01*
X2220Y4006D01*
X2234Y4024D01*
X2243Y4046D01*
X2246Y4069D01*
X2243Y4092D01*
X2234Y4114D01*
X2220Y4132D01*
X2201Y4147D01*
X2199Y4148D01*
Y4173D01*
X2196Y4190D01*
X2187Y4203D01*
X1899Y4491D01*
Y4629D01*
X1912Y4634D01*
X1920Y4623D01*
X1939Y4609D01*
X1961Y4600D01*
X1984Y4597D01*
X2007Y4600D01*
X2029Y4609D01*
X2047Y4623D01*
X2061Y4641D01*
X2062Y4644D01*
X4630D01*
X4647Y4647D01*
X4661Y4656D01*
X5075Y5070D01*
X5077Y5070D01*
X5100Y5067D01*
X5124Y5070D01*
X5145Y5079D01*
X5164Y5093D01*
X5178Y5111D01*
X5187Y5133D01*
X5190Y5156D01*
X5187Y5179D01*
X5178Y5201D01*
X5164Y5220D01*
X5145Y5234D01*
X5124Y5243D01*
X5100Y5246D01*
X5077Y5243D01*
X5055Y5234D01*
X5037Y5220D01*
X5023Y5201D01*
X5014Y5179D01*
X5011Y5156D01*
X5014Y5133D01*
X5015Y5131D01*
X4613Y4729D01*
X4514D01*
X4508Y4742D01*
X4515Y4751D01*
X4524Y4772D01*
X4527Y4796D01*
X4524Y4819D01*
X4523Y4821D01*
X4633Y4930D01*
X4633Y4930D01*
X4642Y4944D01*
X4645Y4961D01*
X4645Y4961D01*
Y5329D01*
X4642Y5345D01*
X4633Y5359D01*
X4633Y5359D01*
X4264Y5727D01*
X4251Y5737D01*
X4234Y5740D01*
X3764D01*
X3763Y5742D01*
X3749Y5761D01*
X3730Y5775D01*
X3709Y5784D01*
X3686Y5787D01*
X3662Y5784D01*
X3641Y5775D01*
X3622Y5761D01*
X3608Y5742D01*
X3599Y5720D01*
X3596Y5697D01*
X3599Y5674D01*
X3608Y5652D01*
X3622Y5634D01*
X3641Y5620D01*
X3662Y5611D01*
X3686Y5608D01*
X3709Y5611D01*
X3730Y5620D01*
X3749Y5634D01*
X3763Y5652D01*
X3764Y5654D01*
X4216D01*
X4560Y5311D01*
Y4978D01*
X4463Y4881D01*
X4461Y4882D01*
X4437Y4885D01*
X4414Y4882D01*
X4393Y4873D01*
X4374Y4859D01*
X4360Y4840D01*
X4351Y4819D01*
X4348Y4796D01*
X4351Y4772D01*
X4360Y4751D01*
X4367Y4742D01*
X4360Y4729D01*
X2062D01*
X2061Y4731D01*
X2047Y4750D01*
X2029Y4764D01*
X2007Y4773D01*
X1984Y4776D01*
X1961Y4773D01*
X1939Y4764D01*
X1920Y4750D01*
X1906Y4731D01*
X1899Y4714D01*
X1893Y4711D01*
X1888Y4710D01*
X1885Y4711D01*
X1783Y4813D01*
Y8138D01*
X1875Y8230D01*
X1894Y8228D01*
X1922Y8232D01*
X1949Y8243D01*
X1966Y8256D01*
X1979Y8250D01*
Y8235D01*
X1982Y8218D01*
X1992Y8204D01*
X2053Y8143D01*
Y8057D01*
X2051Y8056D01*
X2032Y8042D01*
X2018Y8023D01*
X2009Y8001D01*
X2006Y7978D01*
X2009Y7955D01*
X2018Y7933D01*
X2032Y7915D01*
X2051Y7900D01*
X2072Y7892D01*
X2095Y7888D01*
X2119Y7892D01*
X2140Y7900D01*
X2159Y7915D01*
X2173Y7933D01*
X2182Y7955D01*
X2185Y7978D01*
X2182Y8001D01*
X2173Y8023D01*
X2159Y8042D01*
X2140Y8056D01*
X2138Y8057D01*
Y8161D01*
X2135Y8177D01*
X2126Y8191D01*
X2083Y8234D01*
X2091Y8244D01*
X2092Y8243D01*
X2119Y8232D01*
X2148Y8228D01*
X2176Y8232D01*
X2203Y8243D01*
X2225Y8260D01*
X2243Y8283D01*
X2254Y8310D01*
X2258Y8338D01*
X2254Y8367D01*
X2243Y8393D01*
X2225Y8416D01*
X2203Y8434D01*
X2176Y8445D01*
X2148Y8448D01*
X2119Y8445D01*
X2092Y8434D01*
X2077Y8422D01*
X2074Y8422D01*
X2064Y8427D01*
X2061Y8439D01*
X2052Y8453D01*
X2052Y8453D01*
X2006Y8499D01*
X1992Y8508D01*
X1984Y8510D01*
X1978Y8524D01*
X1989Y8537D01*
X2000Y8564D01*
X2004Y8592D01*
X2000Y8621D01*
X1989Y8647D01*
X1971Y8670D01*
X1949Y8688D01*
X1922Y8699D01*
X1894Y8702D01*
D02*
G37*
G36*
X7736D02*
X7707Y8699D01*
X7680Y8688D01*
X7658Y8670D01*
X7640Y8647D01*
X7629Y8621D01*
X7625Y8592D01*
X7629Y8564D01*
X7640Y8537D01*
X7658Y8514D01*
X7680Y8497D01*
X7707Y8486D01*
X7736Y8482D01*
X7764Y8486D01*
X7791Y8497D01*
X7813Y8514D01*
X7831Y8537D01*
X7842Y8564D01*
X7846Y8592D01*
X7842Y8621D01*
X7831Y8647D01*
X7813Y8670D01*
X7791Y8688D01*
X7764Y8699D01*
X7736Y8702D01*
D02*
G37*
G36*
X7482D02*
X7453Y8699D01*
X7426Y8688D01*
X7404Y8670D01*
X7386Y8647D01*
X7375Y8621D01*
X7371Y8592D01*
X7375Y8564D01*
X7386Y8537D01*
X7404Y8514D01*
X7426Y8497D01*
X7453Y8486D01*
X7482Y8482D01*
X7510Y8486D01*
X7537Y8497D01*
X7559Y8514D01*
X7577Y8537D01*
X7588Y8564D01*
X7592Y8592D01*
X7588Y8621D01*
X7577Y8647D01*
X7559Y8670D01*
X7537Y8688D01*
X7510Y8699D01*
X7482Y8702D01*
D02*
G37*
G36*
X1386Y8956D02*
X1357Y8953D01*
X1330Y8942D01*
X1308Y8924D01*
X1290Y8901D01*
X1279Y8875D01*
X1275Y8846D01*
X1279Y8818D01*
X1290Y8791D01*
X1308Y8768D01*
X1330Y8751D01*
X1357Y8740D01*
X1386Y8736D01*
X1414Y8740D01*
X1441Y8751D01*
X1463Y8768D01*
X1481Y8791D01*
X1492Y8818D01*
X1496Y8846D01*
X1492Y8875D01*
X1481Y8901D01*
X1463Y8924D01*
X1441Y8942D01*
X1414Y8953D01*
X1386Y8956D01*
D02*
G37*
G36*
X2148D02*
X2119Y8953D01*
X2092Y8942D01*
X2070Y8924D01*
X2052Y8901D01*
X2041Y8875D01*
X2037Y8846D01*
X2041Y8818D01*
X2052Y8791D01*
X2070Y8768D01*
X2092Y8751D01*
X2119Y8740D01*
X2148Y8736D01*
X2176Y8740D01*
X2203Y8751D01*
X2225Y8768D01*
X2243Y8791D01*
X2254Y8818D01*
X2258Y8846D01*
X2254Y8875D01*
X2243Y8901D01*
X2225Y8924D01*
X2203Y8942D01*
X2176Y8953D01*
X2148Y8956D01*
D02*
G37*
G36*
X1894D02*
X1865Y8953D01*
X1838Y8942D01*
X1816Y8924D01*
X1798Y8901D01*
X1787Y8875D01*
X1783Y8846D01*
X1787Y8818D01*
X1798Y8791D01*
X1816Y8768D01*
X1838Y8751D01*
X1865Y8740D01*
X1894Y8736D01*
X1922Y8740D01*
X1949Y8751D01*
X1971Y8768D01*
X1989Y8791D01*
X2000Y8818D01*
X2004Y8846D01*
X2000Y8875D01*
X1989Y8901D01*
X1971Y8924D01*
X1949Y8942D01*
X1922Y8953D01*
X1894Y8956D01*
D02*
G37*
G36*
X1640D02*
X1611Y8953D01*
X1584Y8942D01*
X1562Y8924D01*
X1544Y8901D01*
X1533Y8875D01*
X1529Y8846D01*
X1533Y8818D01*
X1544Y8791D01*
X1562Y8768D01*
X1584Y8751D01*
X1611Y8740D01*
X1640Y8736D01*
X1668Y8740D01*
X1695Y8751D01*
X1717Y8768D01*
X1735Y8791D01*
X1746Y8818D01*
X1750Y8846D01*
X1746Y8875D01*
X1735Y8901D01*
X1717Y8924D01*
X1695Y8942D01*
X1668Y8953D01*
X1640Y8956D01*
D02*
G37*
G36*
X7228Y8702D02*
X7199Y8699D01*
X7172Y8688D01*
X7150Y8670D01*
X7132Y8647D01*
X7121Y8621D01*
X7117Y8592D01*
X7121Y8564D01*
X7132Y8537D01*
X7150Y8514D01*
X7172Y8497D01*
X7199Y8486D01*
X7228Y8482D01*
X7256Y8486D01*
X7283Y8497D01*
X7305Y8514D01*
X7323Y8537D01*
X7334Y8564D01*
X7338Y8592D01*
X7334Y8621D01*
X7323Y8647D01*
X7305Y8670D01*
X7283Y8688D01*
X7256Y8699D01*
X7228Y8702D01*
D02*
G37*
G36*
X5450D02*
X5421Y8699D01*
X5394Y8688D01*
X5372Y8670D01*
X5354Y8647D01*
X5343Y8621D01*
X5339Y8592D01*
X5343Y8564D01*
X5354Y8537D01*
X5372Y8514D01*
X5394Y8497D01*
X5421Y8486D01*
X5450Y8482D01*
X5478Y8486D01*
X5505Y8497D01*
X5527Y8514D01*
X5545Y8537D01*
X5556Y8564D01*
X5560Y8592D01*
X5556Y8621D01*
X5545Y8647D01*
X5527Y8670D01*
X5505Y8688D01*
X5478Y8699D01*
X5450Y8702D01*
D02*
G37*
G36*
X5196D02*
X5167Y8699D01*
X5140Y8688D01*
X5118Y8670D01*
X5100Y8647D01*
X5089Y8621D01*
X5085Y8592D01*
X5089Y8564D01*
X5100Y8537D01*
X5118Y8514D01*
X5140Y8497D01*
X5167Y8486D01*
X5196Y8482D01*
X5224Y8486D01*
X5251Y8497D01*
X5273Y8514D01*
X5291Y8537D01*
X5302Y8564D01*
X5306Y8592D01*
X5302Y8621D01*
X5291Y8647D01*
X5273Y8670D01*
X5251Y8688D01*
X5224Y8699D01*
X5196Y8702D01*
D02*
G37*
G36*
X4942D02*
X4913Y8699D01*
X4886Y8688D01*
X4864Y8670D01*
X4846Y8647D01*
X4835Y8621D01*
X4831Y8592D01*
X4835Y8564D01*
X4846Y8537D01*
X4864Y8514D01*
X4886Y8497D01*
X4913Y8486D01*
X4942Y8482D01*
X4970Y8486D01*
X4997Y8497D01*
X5019Y8514D01*
X5037Y8537D01*
X5048Y8564D01*
X5052Y8592D01*
X5048Y8621D01*
X5037Y8647D01*
X5019Y8670D01*
X4997Y8688D01*
X4970Y8699D01*
X4942Y8702D01*
D02*
G37*
G36*
X5704D02*
X5675Y8699D01*
X5648Y8688D01*
X5626Y8670D01*
X5608Y8647D01*
X5597Y8621D01*
X5593Y8592D01*
X5597Y8564D01*
X5608Y8537D01*
X5626Y8514D01*
X5648Y8497D01*
X5675Y8486D01*
X5704Y8482D01*
X5732Y8486D01*
X5759Y8497D01*
X5781Y8514D01*
X5799Y8537D01*
X5810Y8564D01*
X5814Y8592D01*
X5810Y8621D01*
X5799Y8647D01*
X5781Y8670D01*
X5759Y8688D01*
X5732Y8699D01*
X5704Y8702D01*
D02*
G37*
G36*
X6466D02*
X6437Y8699D01*
X6410Y8688D01*
X6388Y8670D01*
X6370Y8647D01*
X6359Y8621D01*
X6355Y8592D01*
X6359Y8564D01*
X6370Y8537D01*
X6388Y8514D01*
X6410Y8497D01*
X6437Y8486D01*
X6466Y8482D01*
X6494Y8486D01*
X6521Y8497D01*
X6543Y8514D01*
X6561Y8537D01*
X6572Y8564D01*
X6576Y8592D01*
X6572Y8621D01*
X6561Y8647D01*
X6543Y8670D01*
X6521Y8688D01*
X6494Y8699D01*
X6466Y8702D01*
D02*
G37*
G36*
X6212D02*
X6183Y8699D01*
X6156Y8688D01*
X6134Y8670D01*
X6116Y8647D01*
X6105Y8621D01*
X6101Y8592D01*
X6105Y8564D01*
X6116Y8537D01*
X6134Y8514D01*
X6156Y8497D01*
X6183Y8486D01*
X6212Y8482D01*
X6240Y8486D01*
X6267Y8497D01*
X6289Y8514D01*
X6307Y8537D01*
X6318Y8564D01*
X6322Y8592D01*
X6318Y8621D01*
X6307Y8647D01*
X6289Y8670D01*
X6267Y8688D01*
X6240Y8699D01*
X6212Y8702D01*
D02*
G37*
G36*
X5958D02*
X5929Y8699D01*
X5902Y8688D01*
X5880Y8670D01*
X5862Y8647D01*
X5851Y8621D01*
X5847Y8592D01*
X5851Y8564D01*
X5862Y8537D01*
X5880Y8514D01*
X5902Y8497D01*
X5929Y8486D01*
X5958Y8482D01*
X5986Y8486D01*
X6013Y8497D01*
X6035Y8514D01*
X6053Y8537D01*
X6064Y8564D01*
X6068Y8592D01*
X6064Y8621D01*
X6053Y8647D01*
X6035Y8670D01*
X6013Y8688D01*
X5986Y8699D01*
X5958Y8702D01*
D02*
G37*
G36*
X5196Y8956D02*
X5167Y8953D01*
X5140Y8942D01*
X5118Y8924D01*
X5100Y8901D01*
X5089Y8875D01*
X5085Y8846D01*
X5089Y8818D01*
X5100Y8791D01*
X5118Y8768D01*
X5140Y8751D01*
X5167Y8740D01*
X5196Y8736D01*
X5224Y8740D01*
X5251Y8751D01*
X5273Y8768D01*
X5291Y8791D01*
X5302Y8818D01*
X5306Y8846D01*
X5302Y8875D01*
X5291Y8901D01*
X5273Y8924D01*
X5251Y8942D01*
X5224Y8953D01*
X5196Y8956D01*
D02*
G37*
G36*
X4688D02*
X4659Y8953D01*
X4632Y8942D01*
X4610Y8924D01*
X4592Y8901D01*
X4581Y8875D01*
X4577Y8846D01*
X4581Y8818D01*
X4592Y8791D01*
X4610Y8768D01*
X4632Y8751D01*
X4659Y8740D01*
X4688Y8736D01*
X4716Y8740D01*
X4743Y8751D01*
X4765Y8768D01*
X4783Y8791D01*
X4794Y8818D01*
X4798Y8846D01*
X4794Y8875D01*
X4783Y8901D01*
X4765Y8924D01*
X4743Y8942D01*
X4716Y8953D01*
X4688Y8956D01*
D02*
G37*
G36*
X4434D02*
X4405Y8953D01*
X4378Y8942D01*
X4356Y8924D01*
X4338Y8901D01*
X4327Y8875D01*
X4323Y8846D01*
X4327Y8818D01*
X4338Y8791D01*
X4356Y8768D01*
X4378Y8751D01*
X4405Y8740D01*
X4434Y8736D01*
X4462Y8740D01*
X4489Y8751D01*
X4511Y8768D01*
X4529Y8791D01*
X4540Y8818D01*
X4544Y8846D01*
X4540Y8875D01*
X4529Y8901D01*
X4511Y8924D01*
X4489Y8942D01*
X4462Y8953D01*
X4434Y8956D01*
D02*
G37*
G36*
X5450D02*
X5421Y8953D01*
X5394Y8942D01*
X5372Y8924D01*
X5354Y8901D01*
X5343Y8875D01*
X5339Y8846D01*
X5343Y8818D01*
X5354Y8791D01*
X5372Y8768D01*
X5394Y8751D01*
X5421Y8740D01*
X5450Y8736D01*
X5478Y8740D01*
X5505Y8751D01*
X5527Y8768D01*
X5545Y8791D01*
X5556Y8818D01*
X5560Y8846D01*
X5556Y8875D01*
X5545Y8901D01*
X5527Y8924D01*
X5505Y8942D01*
X5478Y8953D01*
X5450Y8956D01*
D02*
G37*
G36*
X6212D02*
X6183Y8953D01*
X6156Y8942D01*
X6134Y8924D01*
X6116Y8901D01*
X6105Y8875D01*
X6101Y8846D01*
X6105Y8818D01*
X6116Y8791D01*
X6134Y8768D01*
X6156Y8751D01*
X6183Y8740D01*
X6212Y8736D01*
X6240Y8740D01*
X6267Y8751D01*
X6289Y8768D01*
X6307Y8791D01*
X6318Y8818D01*
X6322Y8846D01*
X6318Y8875D01*
X6307Y8901D01*
X6289Y8924D01*
X6267Y8942D01*
X6240Y8953D01*
X6212Y8956D01*
D02*
G37*
G36*
X5958D02*
X5929Y8953D01*
X5902Y8942D01*
X5880Y8924D01*
X5862Y8901D01*
X5851Y8875D01*
X5847Y8846D01*
X5851Y8818D01*
X5862Y8791D01*
X5880Y8768D01*
X5902Y8751D01*
X5929Y8740D01*
X5958Y8736D01*
X5986Y8740D01*
X6013Y8751D01*
X6035Y8768D01*
X6053Y8791D01*
X6064Y8818D01*
X6068Y8846D01*
X6064Y8875D01*
X6053Y8901D01*
X6035Y8924D01*
X6013Y8942D01*
X5986Y8953D01*
X5958Y8956D01*
D02*
G37*
G36*
X5704D02*
X5675Y8953D01*
X5648Y8942D01*
X5626Y8924D01*
X5608Y8901D01*
X5597Y8875D01*
X5593Y8846D01*
X5597Y8818D01*
X5608Y8791D01*
X5626Y8768D01*
X5648Y8751D01*
X5675Y8740D01*
X5704Y8736D01*
X5732Y8740D01*
X5759Y8751D01*
X5781Y8768D01*
X5799Y8791D01*
X5810Y8818D01*
X5814Y8846D01*
X5810Y8875D01*
X5799Y8901D01*
X5781Y8924D01*
X5759Y8942D01*
X5732Y8953D01*
X5704Y8956D01*
D02*
G37*
G36*
X4180D02*
X4151Y8953D01*
X4124Y8942D01*
X4102Y8924D01*
X4084Y8901D01*
X4073Y8875D01*
X4069Y8846D01*
X4073Y8818D01*
X4084Y8791D01*
X4102Y8768D01*
X4124Y8751D01*
X4151Y8740D01*
X4180Y8736D01*
X4208Y8740D01*
X4235Y8751D01*
X4257Y8768D01*
X4275Y8791D01*
X4286Y8818D01*
X4290Y8846D01*
X4286Y8875D01*
X4275Y8901D01*
X4257Y8924D01*
X4235Y8942D01*
X4208Y8953D01*
X4180Y8956D01*
D02*
G37*
G36*
X2910D02*
X2881Y8953D01*
X2854Y8942D01*
X2832Y8924D01*
X2814Y8901D01*
X2803Y8875D01*
X2799Y8846D01*
X2803Y8818D01*
X2814Y8791D01*
X2832Y8768D01*
X2854Y8751D01*
X2881Y8740D01*
X2910Y8736D01*
X2938Y8740D01*
X2965Y8751D01*
X2987Y8768D01*
X3005Y8791D01*
X3016Y8818D01*
X3020Y8846D01*
X3016Y8875D01*
X3005Y8901D01*
X2987Y8924D01*
X2965Y8942D01*
X2938Y8953D01*
X2910Y8956D01*
D02*
G37*
G36*
X2656D02*
X2627Y8953D01*
X2600Y8942D01*
X2578Y8924D01*
X2560Y8901D01*
X2549Y8875D01*
X2545Y8846D01*
X2549Y8818D01*
X2560Y8791D01*
X2578Y8768D01*
X2600Y8751D01*
X2627Y8740D01*
X2656Y8736D01*
X2684Y8740D01*
X2711Y8751D01*
X2733Y8768D01*
X2751Y8791D01*
X2762Y8818D01*
X2766Y8846D01*
X2762Y8875D01*
X2751Y8901D01*
X2733Y8924D01*
X2711Y8942D01*
X2684Y8953D01*
X2656Y8956D01*
D02*
G37*
G36*
X2402D02*
X2373Y8953D01*
X2346Y8942D01*
X2324Y8924D01*
X2306Y8901D01*
X2295Y8875D01*
X2291Y8846D01*
X2295Y8818D01*
X2306Y8791D01*
X2324Y8768D01*
X2346Y8751D01*
X2373Y8740D01*
X2402Y8736D01*
X2430Y8740D01*
X2457Y8751D01*
X2479Y8768D01*
X2497Y8791D01*
X2508Y8818D01*
X2512Y8846D01*
X2508Y8875D01*
X2497Y8901D01*
X2479Y8924D01*
X2457Y8942D01*
X2430Y8953D01*
X2402Y8956D01*
D02*
G37*
G36*
X3164D02*
X3135Y8953D01*
X3108Y8942D01*
X3086Y8924D01*
X3068Y8901D01*
X3057Y8875D01*
X3053Y8846D01*
X3057Y8818D01*
X3068Y8791D01*
X3086Y8768D01*
X3108Y8751D01*
X3135Y8740D01*
X3164Y8736D01*
X3192Y8740D01*
X3219Y8751D01*
X3241Y8768D01*
X3259Y8791D01*
X3270Y8818D01*
X3274Y8846D01*
X3270Y8875D01*
X3259Y8901D01*
X3241Y8924D01*
X3219Y8942D01*
X3192Y8953D01*
X3164Y8956D01*
D02*
G37*
G36*
X3926D02*
X3897Y8953D01*
X3870Y8942D01*
X3848Y8924D01*
X3830Y8901D01*
X3819Y8875D01*
X3815Y8846D01*
X3819Y8818D01*
X3830Y8791D01*
X3848Y8768D01*
X3870Y8751D01*
X3897Y8740D01*
X3926Y8736D01*
X3954Y8740D01*
X3981Y8751D01*
X4003Y8768D01*
X4021Y8791D01*
X4032Y8818D01*
X4036Y8846D01*
X4032Y8875D01*
X4021Y8901D01*
X4003Y8924D01*
X3981Y8942D01*
X3954Y8953D01*
X3926Y8956D01*
D02*
G37*
G36*
X3672D02*
X3643Y8953D01*
X3616Y8942D01*
X3594Y8924D01*
X3576Y8901D01*
X3565Y8875D01*
X3561Y8846D01*
X3565Y8818D01*
X3576Y8791D01*
X3594Y8768D01*
X3616Y8751D01*
X3643Y8740D01*
X3672Y8736D01*
X3700Y8740D01*
X3727Y8751D01*
X3749Y8768D01*
X3767Y8791D01*
X3778Y8818D01*
X3782Y8846D01*
X3778Y8875D01*
X3767Y8901D01*
X3749Y8924D01*
X3727Y8942D01*
X3700Y8953D01*
X3672Y8956D01*
D02*
G37*
G36*
X3418D02*
X3389Y8953D01*
X3362Y8942D01*
X3340Y8924D01*
X3322Y8901D01*
X3311Y8875D01*
X3307Y8846D01*
X3311Y8818D01*
X3322Y8791D01*
X3340Y8768D01*
X3362Y8751D01*
X3389Y8740D01*
X3418Y8736D01*
X3446Y8740D01*
X3473Y8751D01*
X3495Y8768D01*
X3513Y8791D01*
X3524Y8818D01*
X3528Y8846D01*
X3524Y8875D01*
X3513Y8901D01*
X3495Y8924D01*
X3473Y8942D01*
X3446Y8953D01*
X3418Y8956D01*
D02*
G37*
%LPD*%
D29*
X2022Y8235D02*
Y8423D01*
X1976Y8468D02*
X2022Y8423D01*
X1516Y8468D02*
X1976D01*
X2022Y8235D02*
X2095Y8161D01*
X1386Y8338D02*
X1516Y8468D01*
X6850Y8240D02*
Y8977D01*
X6772Y8161D02*
X6850Y8240D01*
X5867Y8161D02*
X6772D01*
X5248Y7767D02*
X5316D01*
X5400Y7851D01*
X5558D01*
X5867Y8161D01*
X3851Y7666D02*
X5146D01*
X5248Y7767D01*
X5359Y7523D02*
X5464Y7628D01*
X5331Y7523D02*
X5359D01*
X4729Y6921D02*
X5331Y7523D01*
X5301Y8004D02*
X5433D01*
X5301D02*
X5311Y7993D01*
X3404D02*
X5311D01*
X6850Y8977D02*
X6974Y9100D01*
X2868Y5489D02*
X2943Y5414D01*
X3360Y5832D01*
X2941Y5413D02*
X2943Y5414D01*
X3360Y5832D02*
X3399D01*
X2845Y7165D02*
X3500Y6510D01*
X2845Y7165D02*
Y7315D01*
X3851Y7666D02*
X4084Y7432D01*
X3774Y7742D02*
X3851Y7666D01*
X1608Y4338D02*
X1835Y4111D01*
X1608Y4338D02*
Y4653D01*
X1176Y5085D02*
X1608Y4653D01*
X5182Y1549D02*
X5573Y1158D01*
X5182Y1549D02*
Y2959D01*
X465Y2400D02*
X502Y2437D01*
X465Y2014D02*
Y2400D01*
X1260Y2657D02*
Y2659D01*
Y2657D02*
X3254Y663D01*
X2045Y2532D02*
X3790Y787D01*
X1745Y2532D02*
X2045D01*
X472Y3307D02*
Y5514D01*
X457Y5530D02*
X472Y5514D01*
X1161Y6233D02*
X1349D01*
X457Y5530D02*
X1161Y6233D01*
X4620Y2662D02*
X4836Y2878D01*
X4595Y2662D02*
X4620D01*
X4836Y2878D02*
X5004D01*
X5103Y3038D02*
X5182Y2959D01*
X4473Y3038D02*
X5103D01*
X4046Y3404D02*
X4133Y3490D01*
X3487Y3404D02*
X4046D01*
X3200Y3117D02*
X3487Y3404D01*
X4133Y3490D02*
Y3556D01*
X1369Y3713D02*
X4265D01*
X4343Y3635D01*
Y3167D02*
Y3635D01*
X2156Y4069D02*
Y4173D01*
X1857Y4473D02*
X2156Y4173D01*
X3015Y5789D02*
Y6038D01*
X3073Y6096D01*
X1943Y5588D02*
Y5705D01*
Y5588D02*
X2309Y5222D01*
X1148Y7046D02*
X1313Y6881D01*
Y6688D02*
Y6881D01*
Y6688D02*
X1331D01*
X1458Y6561D01*
X2365Y5989D02*
X2865Y5489D01*
X2365Y5989D02*
Y6053D01*
X2865Y5489D02*
X2868D01*
X983Y2918D02*
X4595D01*
Y2662D02*
Y2918D01*
X1857Y4473D02*
Y4678D01*
X2149Y6264D02*
X4542D01*
X2309Y5222D02*
X3503D01*
X3073Y6096D02*
X5588D01*
X4343Y3167D02*
X4473Y3038D01*
X3790Y787D02*
X6990D01*
X3686Y5697D02*
X4234D01*
X3254Y663D02*
X7765D01*
X7890Y787D01*
X4437Y4796D02*
X4602Y4961D01*
Y5329D01*
X4234Y5697D02*
X4602Y5329D01*
X792Y5431D02*
Y5626D01*
X3340Y7412D02*
X3509D01*
X2845Y7315D02*
X3081Y7551D01*
X3584D01*
X3774Y7742D01*
X4084Y7071D02*
Y7432D01*
X4575Y3360D02*
X4714D01*
X5453Y4100D01*
Y4336D01*
X5436Y4354D02*
X5453Y4336D01*
X5436Y4354D02*
X5443Y4361D01*
X5215Y4590D02*
X5443Y4361D01*
X5098Y4849D02*
X5902D01*
X5905Y4851D01*
Y3463D02*
Y4851D01*
Y3463D02*
X6253Y3114D01*
X2452Y4107D02*
X4557D01*
X4892Y4442D01*
X502Y2437D02*
Y2551D01*
X269Y2784D02*
X502Y2551D01*
X269Y2784D02*
Y3614D01*
X297Y3642D01*
X502Y2437D02*
X983Y2918D01*
X2095Y7978D02*
Y8161D01*
X3950Y6472D02*
Y6971D01*
X3509Y7412D02*
X3950Y6971D01*
X5558Y5448D02*
X5773D01*
X5296Y5710D02*
X5558Y5448D01*
X1984Y4686D02*
X4630D01*
X5100Y5156D01*
X792Y5626D02*
X1242Y6076D01*
X1539D02*
X1633Y6170D01*
X1242Y6076D02*
X1539D01*
X1740Y4795D02*
X1857Y4678D01*
X1740Y4795D02*
Y8156D01*
X1854Y8270D01*
X2885Y8095D02*
X3302D01*
X3404Y7993D01*
D31*
X7188Y5964D02*
D03*
X8088D02*
D03*
X8081Y7620D02*
D03*
X7181D02*
D03*
X7104Y3947D02*
D03*
X8004D02*
D03*
X7930Y2052D02*
D03*
X7030D02*
D03*
X6990Y787D02*
D03*
X7890D02*
D03*
D32*
X1171Y391D02*
D03*
X1521D02*
D03*
D33*
X3926Y8338D02*
D03*
Y8592D02*
D03*
X7736Y8846D02*
D03*
Y9100D02*
D03*
Y8338D02*
D03*
Y8592D02*
D03*
X7482Y8846D02*
D03*
Y9100D02*
D03*
Y8338D02*
D03*
Y8592D02*
D03*
X7228Y8846D02*
D03*
Y9100D02*
D03*
Y8338D02*
D03*
Y8592D02*
D03*
X6974Y8846D02*
D03*
Y9100D02*
D03*
Y8338D02*
D03*
Y8592D02*
D03*
X6720Y8846D02*
D03*
Y9100D02*
D03*
Y8338D02*
D03*
Y8592D02*
D03*
X6466Y8846D02*
D03*
Y9100D02*
D03*
Y8338D02*
D03*
Y8592D02*
D03*
X6212Y8846D02*
D03*
Y9100D02*
D03*
Y8338D02*
D03*
Y8592D02*
D03*
X5958Y8846D02*
D03*
Y9100D02*
D03*
Y8338D02*
D03*
Y8592D02*
D03*
X5704Y8846D02*
D03*
Y9100D02*
D03*
Y8338D02*
D03*
Y8592D02*
D03*
X5450Y8846D02*
D03*
Y9100D02*
D03*
Y8338D02*
D03*
Y8592D02*
D03*
X5196Y8846D02*
D03*
Y9100D02*
D03*
Y8338D02*
D03*
Y8592D02*
D03*
X4942Y8846D02*
D03*
Y9100D02*
D03*
Y8338D02*
D03*
Y8592D02*
D03*
X4688Y8846D02*
D03*
Y9100D02*
D03*
Y8338D02*
D03*
Y8592D02*
D03*
X4434Y8846D02*
D03*
Y9100D02*
D03*
Y8338D02*
D03*
Y8592D02*
D03*
X4180Y8846D02*
D03*
Y9100D02*
D03*
Y8338D02*
D03*
Y8592D02*
D03*
X3926Y8846D02*
D03*
Y9100D02*
D03*
X3672Y8338D02*
D03*
Y8592D02*
D03*
Y8846D02*
D03*
Y9100D02*
D03*
X3418Y8338D02*
D03*
Y8592D02*
D03*
Y8846D02*
D03*
Y9100D02*
D03*
X3164Y8338D02*
D03*
Y8592D02*
D03*
Y8846D02*
D03*
Y9100D02*
D03*
X2910Y8338D02*
D03*
Y8592D02*
D03*
Y8846D02*
D03*
Y9100D02*
D03*
X2656Y8338D02*
D03*
Y8592D02*
D03*
Y8846D02*
D03*
Y9100D02*
D03*
X2402Y8338D02*
D03*
Y8592D02*
D03*
Y8846D02*
D03*
Y9100D02*
D03*
X2148Y8338D02*
D03*
Y8592D02*
D03*
Y8846D02*
D03*
Y9100D02*
D03*
X1894Y8338D02*
D03*
Y8592D02*
D03*
Y8846D02*
D03*
Y9100D02*
D03*
X1640Y8338D02*
D03*
Y8592D02*
D03*
Y8846D02*
D03*
Y9100D02*
D03*
X1386Y8338D02*
D03*
Y8592D02*
D03*
Y8846D02*
D03*
Y9100D02*
D03*
D34*
X8246Y9082D02*
D03*
X8498Y514D02*
D03*
X496Y512D02*
D03*
X876Y9082D02*
D03*
D35*
X5464Y7628D02*
D03*
X5946Y7417D02*
D03*
X4729Y6921D02*
D03*
X5433Y8004D02*
D03*
X5573Y1158D02*
D03*
X1882Y6586D02*
D03*
X1260Y2659D02*
D03*
X1745Y2532D02*
D03*
X605Y2858D02*
D03*
X472Y3307D02*
D03*
X724Y5085D02*
D03*
X5004Y2878D02*
D03*
X4133Y3556D02*
D03*
X2156Y4069D02*
D03*
X3015Y5789D02*
D03*
X1943Y5705D02*
D03*
X1148Y7046D02*
D03*
X1458Y6561D02*
D03*
X4595Y2662D02*
D03*
X1984Y4686D02*
D03*
X2365Y6053D02*
D03*
X2149Y6264D02*
D03*
X4542D02*
D03*
X3503Y5222D02*
D03*
X5588Y6096D02*
D03*
X4575Y3360D02*
D03*
X1369Y3713D02*
D03*
X4343Y3167D02*
D03*
X792Y5431D02*
D03*
X3686Y5697D02*
D03*
X4437Y4796D02*
D03*
X2131Y1227D02*
D03*
X5400Y1928D02*
D03*
X3345Y1839D02*
D03*
X2761Y2164D02*
D03*
X2830Y4816D02*
D03*
X3510Y4961D02*
D03*
X5723Y5784D02*
D03*
X5004Y7795D02*
D03*
X3863Y7313D02*
D03*
X4562Y6604D02*
D03*
X3124Y6546D02*
D03*
X490Y6553D02*
D03*
X5687Y3907D02*
D03*
X5116Y4221D02*
D03*
X4227Y4417D02*
D03*
X3175Y3851D02*
D03*
X3200Y3117D02*
D03*
X3592Y3203D02*
D03*
X2995Y3241D02*
D03*
X2271Y6609D02*
D03*
X1438Y7127D02*
D03*
X4351Y5192D02*
D03*
X3386Y7140D02*
D03*
X1633Y6170D02*
D03*
X1308Y5933D02*
D03*
X4178Y3058D02*
D03*
X2139Y4836D02*
D03*
X3203Y5357D02*
D03*
X4209Y2355D02*
D03*
X3340Y7412D02*
D03*
X4084Y7071D02*
D03*
X2845Y7315D02*
D03*
X3774Y7742D02*
D03*
X5296Y5710D02*
D03*
X5773Y5448D02*
D03*
X5215Y4590D02*
D03*
X5098Y4849D02*
D03*
X5905Y4851D02*
D03*
X6253Y3114D02*
D03*
X4892Y4442D02*
D03*
X2452Y4107D02*
D03*
X465Y2014D02*
D03*
X297Y3642D02*
D03*
X2095Y7978D02*
D03*
X439Y6924D02*
D03*
X3950Y6472D02*
D03*
X5100Y5156D02*
D03*
X1349Y6233D02*
D03*
X4094Y1199D02*
D03*
X4559Y1168D02*
D03*
X2885Y8095D02*
D03*
D36*
X3399Y5832D02*
D03*
X3500Y6510D02*
D03*
X1844Y4094D02*
D03*
X1176Y5085D02*
D03*
X2941Y5413D02*
D03*
M02*
