G04 Layer_Color=32768*
%FSLAX42Y42*%
%MOMM*%
G71*
G01*
G75*
%ADD78C,0.10*%
%ADD85C,0.05*%
G36*
X1746Y141D02*
X946Y141D01*
Y1707D01*
X1746D01*
Y141D01*
D02*
G37*
D78*
X6191Y7709D02*
X6291D01*
X6241Y7659D02*
Y7759D01*
X1464Y6981D02*
X1564D01*
X1514Y6931D02*
Y7031D01*
X1135Y7394D02*
Y7449D01*
X1108Y7421D02*
X1163D01*
X648Y7046D02*
X748D01*
X699Y6996D02*
Y7096D01*
X288Y7465D02*
X388D01*
X338Y7415D02*
Y7515D01*
X765Y7833D02*
X865D01*
X815Y7783D02*
Y7883D01*
X2134Y3646D02*
Y3701D01*
X2106Y3674D02*
X2161D01*
X5033Y6660D02*
X5133D01*
X5083Y6610D02*
Y6710D01*
X6290Y6820D02*
X6390D01*
X6340Y6770D02*
Y6870D01*
X6210Y5923D02*
X6310D01*
X6261Y5873D02*
Y5973D01*
X8547Y5538D02*
Y5638D01*
X8497Y5588D02*
X8597D01*
X7588Y5964D02*
X7688D01*
X7638Y5914D02*
Y6014D01*
X7629Y5484D02*
X7729D01*
X7679Y5434D02*
Y5534D01*
X6511Y5126D02*
X6611D01*
X6561Y5076D02*
Y5176D01*
X6203Y4067D02*
X6303D01*
X6253Y4017D02*
Y4117D01*
X6524Y3266D02*
X6624D01*
X6574Y3216D02*
Y3316D01*
X2289Y1794D02*
Y1894D01*
X2239Y1844D02*
X2339D01*
X4412Y1222D02*
Y1322D01*
X4362Y1272D02*
X4462D01*
X2984Y6651D02*
Y6751D01*
X2934Y6701D02*
X3034D01*
X3543Y7788D02*
Y7888D01*
X3493Y7838D02*
X3593D01*
X2696Y7859D02*
X2796D01*
X2746Y7809D02*
Y7909D01*
X3095Y7419D02*
X3195D01*
X3145Y7369D02*
Y7469D01*
X4183Y5774D02*
Y5874D01*
X4133Y5824D02*
X4233D01*
X2261Y5304D02*
X2361D01*
X2311Y5254D02*
Y5354D01*
X1946Y5574D02*
Y5674D01*
X1896Y5624D02*
X1996D01*
X3986Y3607D02*
X4086D01*
X4036Y3557D02*
Y3657D01*
X1190Y6335D02*
X1290D01*
X1240Y6285D02*
Y6385D01*
X4212Y1811D02*
X4312D01*
X4262Y1761D02*
Y1861D01*
X1425Y5116D02*
Y5216D01*
X1375Y5166D02*
X1475D01*
X2104Y2332D02*
X2204D01*
X2154Y2282D02*
Y2382D01*
Y4108D02*
Y4208D01*
X2104Y4158D02*
X2204D01*
X2113Y3216D02*
Y3316D01*
X2063Y3266D02*
X2163D01*
X4034Y7620D02*
X4134D01*
X4084Y7570D02*
Y7670D01*
X4841Y7750D02*
Y7850D01*
X4791Y7800D02*
X4891D01*
X8532Y7011D02*
Y7111D01*
X8482Y7061D02*
X8582D01*
X7581Y7620D02*
X7681D01*
X7631Y7570D02*
Y7670D01*
X4402Y6650D02*
Y6750D01*
X4352Y6700D02*
X4452D01*
X3394Y5664D02*
X3494D01*
X3444Y5614D02*
Y5714D01*
X2678Y4856D02*
Y4956D01*
X2628Y4906D02*
X2728D01*
X3366Y4125D02*
X3466D01*
X3416Y4075D02*
Y4175D01*
X4372Y5044D02*
X4472D01*
X4422Y4994D02*
Y5094D01*
X3404Y4715D02*
Y4815D01*
X3354Y4765D02*
X3454D01*
X4115Y3157D02*
Y3257D01*
X4065Y3207D02*
X4165D01*
X5025Y4067D02*
X5125D01*
X5075Y4017D02*
Y4117D01*
X4275Y4157D02*
Y4257D01*
X4225Y4207D02*
X4325D01*
X8539Y4111D02*
Y4211D01*
X8489Y4161D02*
X8589D01*
X1984Y4875D02*
Y4975D01*
X1934Y4925D02*
X2034D01*
X7504Y3947D02*
X7604D01*
X7554Y3897D02*
Y3997D01*
X3416Y3257D02*
Y3357D01*
X3366Y3307D02*
X3466D01*
X3544Y2151D02*
X3644D01*
X3594Y2101D02*
Y2201D01*
X897Y5431D02*
X997D01*
X947Y5381D02*
Y5481D01*
X3934Y1242D02*
Y1342D01*
X3884Y1292D02*
X3984D01*
X1449Y5748D02*
Y5848D01*
X1399Y5798D02*
X1499D01*
X4083Y2467D02*
X4183D01*
X4133Y2417D02*
Y2517D01*
X2695Y2302D02*
Y2402D01*
X2645Y2352D02*
X2745D01*
X554Y6317D02*
Y6417D01*
X504Y6367D02*
X604D01*
X6442Y1433D02*
X6542D01*
X6492Y1383D02*
Y1483D01*
X851Y2040D02*
X951D01*
X901Y1990D02*
Y2090D01*
X8529Y2708D02*
Y2808D01*
X8479Y2758D02*
X8579D01*
X7430Y2052D02*
X7530D01*
X7480Y2002D02*
Y2102D01*
X7390Y787D02*
X7490D01*
X7440Y737D02*
Y837D01*
X1670Y6449D02*
X1770D01*
X1720Y6399D02*
Y6499D01*
X5922Y2230D02*
X6022D01*
X5972Y2180D02*
Y2280D01*
X922Y2972D02*
X1022D01*
X972Y2922D02*
Y3022D01*
X2217Y6859D02*
Y6959D01*
X2167Y6909D02*
X2267D01*
X3811Y5044D02*
X3911D01*
X3861Y4994D02*
Y5094D01*
X2627Y3167D02*
X2727D01*
X2677Y3117D02*
Y3217D01*
X4725Y3167D02*
X4825D01*
X4775Y3117D02*
Y3217D01*
X7562Y3287D02*
X7662D01*
X7612Y3237D02*
Y3337D01*
X2404Y1252D02*
X2504D01*
X2454Y1202D02*
Y1302D01*
X1073Y3889D02*
X1173D01*
X1123Y3839D02*
Y3939D01*
X5302Y1252D02*
X5402D01*
X5352Y1202D02*
Y1302D01*
X1085Y4498D02*
X1185D01*
X1135Y4448D02*
Y4548D01*
X7472Y1608D02*
X7572D01*
X7522Y1558D02*
Y1658D01*
X2574Y7160D02*
X2674D01*
X2624Y7110D02*
Y7210D01*
X5266Y7295D02*
X5366D01*
X5316Y7245D02*
Y7345D01*
X2734Y5784D02*
X2834D01*
X2784Y5734D02*
Y5834D01*
X2647Y4087D02*
X2747D01*
X2697Y4037D02*
Y4137D01*
X4812Y5004D02*
X4912D01*
X4862Y4954D02*
Y5054D01*
X5527Y3237D02*
Y3337D01*
X5477Y3287D02*
X5577D01*
X1771Y3866D02*
X1871D01*
X1821Y3816D02*
Y3916D01*
X3193Y1162D02*
Y1262D01*
X3143Y1212D02*
X3243D01*
X445Y4221D02*
X545D01*
X495Y4171D02*
Y4271D01*
X4740Y2040D02*
Y2140D01*
X4690Y2090D02*
X4790D01*
X7451Y7099D02*
X7551D01*
X7501Y7049D02*
Y7149D01*
X2085Y7720D02*
Y7775D01*
X2058Y7748D02*
X2113D01*
X4542Y5985D02*
Y6040D01*
X4514Y6013D02*
X4569D01*
X1875Y1804D02*
Y1859D01*
X1847Y1831D02*
X1902D01*
X3793Y6840D02*
X3893D01*
X3843Y6790D02*
Y6890D01*
X2282Y5791D02*
X2382D01*
X2332Y5741D02*
Y5841D01*
X4606Y3846D02*
X4706D01*
X4656Y3796D02*
Y3896D01*
X2863Y1851D02*
X2963D01*
X2913Y1801D02*
Y1901D01*
X4783Y7169D02*
Y7269D01*
X4733Y7219D02*
X4833D01*
X4890Y5723D02*
X4990D01*
X4940Y5673D02*
Y5773D01*
X5094Y3597D02*
Y3697D01*
X5044Y3647D02*
X5144D01*
X417Y5227D02*
X517D01*
X467Y5177D02*
Y5277D01*
X5033Y1621D02*
Y1721D01*
X4983Y1671D02*
X5083D01*
X3305Y6950D02*
Y7050D01*
X3255Y7000D02*
X3355D01*
X5580Y4814D02*
Y4914D01*
X5530Y4864D02*
X5630D01*
X8547Y1301D02*
Y1401D01*
X8497Y1351D02*
X8597D01*
D85*
X5641Y7363D02*
Y8056D01*
X6841Y7363D02*
Y8056D01*
X5641D02*
X6841D01*
X5641Y7363D02*
X6841D01*
X1389Y6766D02*
Y7196D01*
X1639Y6766D02*
Y7196D01*
X1389Y6766D02*
X1639D01*
X1389Y7196D02*
X1639D01*
X1075Y7531D02*
X1195D01*
X1075Y7311D02*
X1195D01*
Y7531D01*
X1075Y7311D02*
Y7531D01*
X363Y7186D02*
X1034D01*
X363Y6906D02*
Y7186D01*
X1034Y6906D02*
Y7186D01*
X363Y6906D02*
X1034D01*
X213Y7255D02*
Y7675D01*
X463Y7255D02*
Y7675D01*
X213Y7255D02*
X463D01*
X213Y7675D02*
X463D01*
X1000Y7738D02*
Y7928D01*
X630Y7738D02*
Y7928D01*
Y7738D02*
X1000D01*
X630Y7928D02*
X1000D01*
X2074Y3784D02*
X2194D01*
X2074Y3564D02*
X2194D01*
Y3784D01*
X2074Y3564D02*
Y3784D01*
X4748Y6800D02*
X5418D01*
X4748Y6520D02*
Y6800D01*
X5418Y6520D02*
Y6800D01*
X4748Y6520D02*
X5418D01*
X5740Y6473D02*
Y7166D01*
X6940Y6473D02*
Y7166D01*
X5740D02*
X6940D01*
X5740Y6473D02*
X6940D01*
X5661Y5577D02*
Y6270D01*
X6861Y5577D02*
Y6270D01*
X5661D02*
X6861D01*
X5661Y5577D02*
X6861D01*
X8312Y6021D02*
X8912D01*
Y5155D02*
Y6021D01*
X8312Y5155D02*
Y6021D01*
Y5155D02*
X8912D01*
X7095Y5818D02*
Y6110D01*
Y5818D02*
X8180D01*
X7095Y6110D02*
X8180D01*
Y5818D02*
Y6110D01*
X7344Y5624D02*
X8014D01*
X7344Y5344D02*
Y5624D01*
X8014Y5344D02*
Y5624D01*
X7344Y5344D02*
X8014D01*
X5961Y4779D02*
Y5472D01*
X7161Y4779D02*
Y5472D01*
X5961D02*
X7161D01*
X5961Y4779D02*
X7161D01*
X5653Y3720D02*
Y4413D01*
X6853Y3720D02*
Y4413D01*
X5653D02*
X6853D01*
X5653Y3720D02*
X6853D01*
X5974Y2920D02*
Y3613D01*
X7174Y2920D02*
Y3613D01*
X5974D02*
X7174D01*
X5974Y2920D02*
X7174D01*
X2194Y2029D02*
X2384D01*
X2194Y1659D02*
X2384D01*
Y2029D01*
X2194Y1659D02*
Y2029D01*
X4256Y1117D02*
X4568D01*
X4256Y1427D02*
X4568D01*
X4256Y1117D02*
Y1427D01*
X4568Y1117D02*
Y1427D01*
X2828Y6546D02*
X3141D01*
X2828Y6856D02*
X3141D01*
X2828Y6546D02*
Y6856D01*
X3141Y6546D02*
Y6856D01*
X3448Y8023D02*
X3638D01*
X3448Y7653D02*
X3638D01*
Y8023D01*
X3448Y7653D02*
Y8023D01*
X2931Y7764D02*
Y7954D01*
X2561Y7764D02*
Y7954D01*
Y7764D02*
X2931D01*
X2561Y7954D02*
X2931D01*
X3330Y7324D02*
Y7514D01*
X2960Y7324D02*
Y7514D01*
Y7324D02*
X3330D01*
X2960Y7514D02*
X3330D01*
X4088Y6009D02*
X4278D01*
X4088Y5639D02*
X4278D01*
Y6009D01*
X4088Y5639D02*
Y6009D01*
X2496Y5209D02*
Y5399D01*
X2126Y5209D02*
Y5399D01*
Y5209D02*
X2496D01*
X2126Y5399D02*
X2496D01*
X1851Y5439D02*
X2041D01*
X1851Y5809D02*
X2041D01*
X1851Y5439D02*
Y5809D01*
X2041Y5439D02*
Y5809D01*
X4221Y3512D02*
Y3702D01*
X3851Y3512D02*
Y3702D01*
Y3512D02*
X4221D01*
X3851Y3702D02*
X4221D01*
X1425Y6240D02*
Y6430D01*
X1055Y6240D02*
Y6430D01*
Y6240D02*
X1425D01*
X1055Y6430D02*
X1425D01*
X4447Y1716D02*
Y1906D01*
X4077Y1716D02*
Y1906D01*
Y1716D02*
X4447D01*
X4077Y1906D02*
X4447D01*
X1330Y5351D02*
X1520D01*
X1330Y4981D02*
X1520D01*
Y5351D01*
X1330Y4981D02*
Y5351D01*
X2339Y2237D02*
Y2427D01*
X1969Y2237D02*
Y2427D01*
Y2237D02*
X2339D01*
X1969Y2427D02*
X2339D01*
X2059Y4343D02*
X2249D01*
X2059Y3973D02*
X2249D01*
Y4343D01*
X2059Y3973D02*
Y4343D01*
X2018Y3451D02*
X2208D01*
X2018Y3081D02*
X2208D01*
Y3451D01*
X2018Y3081D02*
Y3451D01*
X4344Y7285D02*
Y7955D01*
X3824Y7285D02*
Y7955D01*
X4344D01*
X3824Y7285D02*
X4344D01*
X4626Y7925D02*
X5056D01*
X4626Y7675D02*
X5056D01*
X4626D02*
Y7925D01*
X5056Y7675D02*
Y7925D01*
X8297Y7494D02*
X8897D01*
Y6629D02*
Y7494D01*
X8297Y6629D02*
Y7494D01*
Y6629D02*
X8897D01*
X8173Y7474D02*
Y7766D01*
X7088D02*
X8173D01*
X7088Y7474D02*
X8173D01*
X7088D02*
Y7766D01*
X4246Y6545D02*
X4558D01*
X4246Y6855D02*
X4558D01*
X4246Y6545D02*
Y6855D01*
X4558Y6545D02*
Y6855D01*
X3704Y5329D02*
Y5999D01*
X3184Y5329D02*
Y5999D01*
X3704D01*
X3184Y5329D02*
X3704D01*
X2522Y4751D02*
X2834D01*
X2522Y5061D02*
X2834D01*
X2522Y4751D02*
Y5061D01*
X2834Y4751D02*
Y5061D01*
X3676Y3790D02*
Y4460D01*
X3156Y3790D02*
Y4460D01*
X3676D01*
X3156Y3790D02*
X3676D01*
X4297Y4829D02*
Y5259D01*
X4547Y4829D02*
Y5259D01*
X4297Y4829D02*
X4547D01*
X4297Y5259D02*
X4547D01*
X3309Y4965D02*
X3499D01*
X3309Y4565D02*
X3499D01*
Y4965D01*
X3309Y4565D02*
Y4965D01*
X3959Y3052D02*
X4271D01*
X3959Y3362D02*
X4271D01*
X3959Y3052D02*
Y3362D01*
X4271Y3052D02*
Y3362D01*
X4950Y3852D02*
Y4282D01*
X5200Y3852D02*
Y4282D01*
X4950Y3852D02*
X5200D01*
X4950Y4282D02*
X5200D01*
X4180Y4407D02*
X4370D01*
X4180Y4007D02*
X4370D01*
Y4407D01*
X4180Y4007D02*
Y4407D01*
X8304Y4593D02*
X8904D01*
Y3728D02*
Y4593D01*
X8304Y3728D02*
Y4593D01*
Y3728D02*
X8904D01*
X1828Y4770D02*
X2140D01*
X1828Y5080D02*
X2140D01*
X1828Y4770D02*
Y5080D01*
X2140Y4770D02*
Y5080D01*
X7011Y3801D02*
Y4093D01*
Y3801D02*
X8096D01*
X7011Y4093D02*
X8096D01*
Y3801D02*
Y4093D01*
X3260Y3152D02*
X3572D01*
X3260Y3462D02*
X3572D01*
X3260Y3152D02*
Y3462D01*
X3572Y3152D02*
Y3462D01*
X3854Y1816D02*
Y2486D01*
X3334Y1816D02*
Y2486D01*
X3854D01*
X3334Y1816D02*
X3854D01*
X1207Y5096D02*
Y5766D01*
X687Y5096D02*
Y5766D01*
X1207D01*
X687Y5096D02*
X1207D01*
X3778Y1137D02*
X4090D01*
X3778Y1447D02*
X4090D01*
X3778Y1137D02*
Y1447D01*
X4090Y1137D02*
Y1447D01*
X1293Y5953D02*
X1605D01*
X1293Y5643D02*
X1605D01*
Y5953D01*
X1293Y5643D02*
Y5953D01*
X4258Y2252D02*
Y2682D01*
X4008Y2252D02*
Y2682D01*
X4258D01*
X4008Y2252D02*
X4258D01*
X2600Y2152D02*
X2790D01*
X2600Y2552D02*
X2790D01*
X2600Y2152D02*
Y2552D01*
X2790Y2152D02*
Y2552D01*
X459Y6567D02*
X649D01*
X459Y6167D02*
X649D01*
Y6567D01*
X459Y6167D02*
Y6567D01*
X5892Y1086D02*
Y1779D01*
X7092Y1086D02*
Y1779D01*
X5892D02*
X7092D01*
X5892Y1086D02*
X7092D01*
X301Y1693D02*
Y2386D01*
X1501Y1693D02*
Y2386D01*
X301D02*
X1501D01*
X301Y1693D02*
X1501D01*
X8294Y3191D02*
X8894D01*
Y2326D02*
Y3191D01*
X8294Y2326D02*
Y3191D01*
Y2326D02*
X8894D01*
X8022Y1906D02*
Y2198D01*
X6937D02*
X8022D01*
X6937Y1906D02*
X8022D01*
X6937D02*
Y2198D01*
X6897Y641D02*
Y933D01*
Y641D02*
X7982D01*
X6897Y933D02*
X7982D01*
Y641D02*
Y933D01*
X1875Y6293D02*
Y6605D01*
X1565Y6293D02*
Y6605D01*
Y6293D02*
X1875D01*
X1565Y6605D02*
X1875D01*
X5372Y1884D02*
Y2577D01*
X6572Y1884D02*
Y2577D01*
X5372D02*
X6572D01*
X5372Y1884D02*
X6572D01*
X372Y2625D02*
Y3318D01*
X1572Y2625D02*
Y3318D01*
X372D02*
X1572D01*
X372Y2625D02*
X1572D01*
X2077Y6574D02*
Y7244D01*
Y6574D02*
X2358D01*
X2077Y7244D02*
X2358D01*
Y6574D02*
Y7244D01*
X3526Y5185D02*
X4196D01*
X3526Y4904D02*
Y5185D01*
X4196Y4904D02*
Y5185D01*
X3526Y4904D02*
X4196D01*
X2342Y3027D02*
X3012D01*
Y3308D01*
X2342Y3027D02*
Y3308D01*
X3012D01*
X4440D02*
X5110D01*
X4440Y3027D02*
Y3308D01*
X5110Y3027D02*
Y3308D01*
X4440Y3027D02*
X5110D01*
X7277Y3427D02*
X7947D01*
X7277Y3147D02*
Y3427D01*
X7947Y3147D02*
Y3427D01*
X7277Y3147D02*
X7947D01*
X2119Y1392D02*
X2789D01*
X2119Y1112D02*
Y1392D01*
X2789Y1112D02*
Y1392D01*
X2119Y1112D02*
X2789D01*
X788Y4029D02*
X1458D01*
X788Y3748D02*
Y4029D01*
X1458Y3748D02*
Y4029D01*
X788Y3748D02*
X1458D01*
X5017Y1112D02*
X5687D01*
Y1392D01*
X5017Y1112D02*
Y1392D01*
X5687D01*
X800Y4358D02*
X1470D01*
Y4639D01*
X800Y4358D02*
Y4639D01*
X1470D01*
X7187Y1468D02*
X7857D01*
Y1748D01*
X7187Y1468D02*
Y1748D01*
X7857D01*
X2764Y6895D02*
Y7425D01*
X2484Y6895D02*
Y7425D01*
X2764D01*
X2484Y6895D02*
X2764D01*
X5456Y7030D02*
Y7560D01*
X5176Y7030D02*
Y7560D01*
X5456D01*
X5176Y7030D02*
X5456D01*
X2924Y5519D02*
Y6049D01*
X2644Y5519D02*
Y6049D01*
X2924D01*
X2644Y5519D02*
X2924D01*
X2837Y3822D02*
Y4352D01*
X2557Y3822D02*
Y4352D01*
X2837D01*
X2557Y3822D02*
X2837D01*
X5002Y4739D02*
Y5269D01*
X4722Y4739D02*
Y5269D01*
X5002D01*
X4722Y4739D02*
X5002D01*
X5262Y3427D02*
X5792D01*
X5262Y3147D02*
X5792D01*
X5262D02*
Y3427D01*
X5792Y3147D02*
Y3427D01*
X1961Y3601D02*
Y4131D01*
X1681Y3601D02*
Y4131D01*
X1961D01*
X1681Y3601D02*
X1961D01*
X2928Y1352D02*
X3458D01*
X2928Y1072D02*
X3458D01*
X2928D02*
Y1352D01*
X3458Y1072D02*
Y1352D01*
X635Y3956D02*
Y4486D01*
X355Y3956D02*
Y4486D01*
X635D01*
X355Y3956D02*
X635D01*
X4475Y2230D02*
X5005D01*
X4475Y1950D02*
X5005D01*
X4475D02*
Y2230D01*
X5005Y1950D02*
Y2230D01*
X7166Y6959D02*
X7836D01*
Y7240D01*
X7166Y6959D02*
Y7240D01*
X7836D01*
X2025Y7858D02*
X2145D01*
X2025Y7638D02*
X2145D01*
Y7858D01*
X2025Y7638D02*
Y7858D01*
X4482Y6123D02*
X4602D01*
X4482Y5903D02*
X4602D01*
Y6123D01*
X4482Y5903D02*
Y6123D01*
X1815Y1941D02*
X1935D01*
X1815Y1721D02*
X1935D01*
Y1941D01*
X1815Y1721D02*
Y1941D01*
X3718Y6630D02*
Y7050D01*
X3968Y6630D02*
Y7050D01*
X3718Y6630D02*
X3968D01*
X3718Y7050D02*
X3968D01*
X2457Y5581D02*
Y6001D01*
X2207Y5581D02*
Y6001D01*
X2457D01*
X2207Y5581D02*
X2457D01*
X4781Y3636D02*
Y4056D01*
X4531Y3636D02*
Y4056D01*
X4781D01*
X4531Y3636D02*
X4781D01*
X3038Y1641D02*
Y2061D01*
X2788Y1641D02*
Y2061D01*
X3038D01*
X2788Y1641D02*
X3038D01*
X4573Y7094D02*
X4993D01*
X4573Y7344D02*
X4993D01*
Y7094D02*
Y7344D01*
X4573Y7094D02*
Y7344D01*
X5065Y5513D02*
Y5933D01*
X4815Y5513D02*
Y5933D01*
X5065D01*
X4815Y5513D02*
X5065D01*
X4884Y3522D02*
X5304D01*
X4884Y3772D02*
X5304D01*
Y3522D02*
Y3772D01*
X4884Y3522D02*
Y3772D01*
X592Y5017D02*
Y5437D01*
X342Y5017D02*
Y5437D01*
X592D01*
X342Y5017D02*
X592D01*
X4823Y1546D02*
X5243D01*
X4823Y1796D02*
X5243D01*
Y1546D02*
Y1796D01*
X4823Y1546D02*
Y1796D01*
X3210Y7200D02*
X3400D01*
X3210Y6800D02*
X3400D01*
Y7200D01*
X3210Y6800D02*
Y7200D01*
X5721Y4529D02*
Y5199D01*
X5440D02*
X5721D01*
X5440Y4529D02*
X5721D01*
X5440D02*
Y5199D01*
X8312Y1784D02*
X8912D01*
Y919D02*
Y1784D01*
X8312Y919D02*
Y1784D01*
Y919D02*
X8912D01*
M02*
