G04 Layer_Color=16711935*
%FSLAX42Y42*%
%MOMM*%
G71*
G01*
G75*
%ADD78C,0.10*%
%ADD82R,0.23X2.62*%
%ADD83R,2.62X0.23*%
%ADD84R,0.23X2.62*%
D78*
X3974Y7510D02*
G03*
X3974Y7510I-50J0D01*
G01*
X3334Y5554D02*
G03*
X3334Y5554I-50J0D01*
G01*
X3306Y4015D02*
G03*
X3306Y4015I-50J0D01*
G01*
X3484Y2041D02*
G03*
X3484Y2041I-50J0D01*
G01*
X837Y5321D02*
G03*
X837Y5321I-50J0D01*
G01*
X6081Y7382D02*
Y8036D01*
X6691Y7382D02*
Y8036D01*
X6081D02*
X6691D01*
X6081Y7382D02*
X6691D01*
X1446Y6876D02*
Y7086D01*
X1581Y6876D02*
Y7086D01*
X1446Y6876D02*
X1581D01*
X1446Y7086D02*
X1581D01*
X1108Y7474D02*
X1163D01*
X1108Y7369D02*
X1163D01*
Y7474D01*
X1108Y7369D02*
Y7474D01*
X483Y7176D02*
X914D01*
X483Y6916D02*
Y7176D01*
X914Y6916D02*
Y7176D01*
X483Y6916D02*
X914D01*
X270Y7360D02*
Y7570D01*
X405Y7360D02*
Y7570D01*
X270Y7360D02*
X405D01*
X270Y7570D02*
X405D01*
X975Y7748D02*
Y7918D01*
X655Y7748D02*
Y7918D01*
Y7748D02*
X975D01*
X655Y7918D02*
X975D01*
X2106Y3726D02*
X2161D01*
X2106Y3621D02*
X2161D01*
Y3726D01*
X2106Y3621D02*
Y3726D01*
X4868Y6790D02*
X5298D01*
X4868Y6530D02*
Y6790D01*
X5298Y6530D02*
Y6790D01*
X4868Y6530D02*
X5298D01*
X6180Y6493D02*
Y7147D01*
X6789Y6493D02*
Y7147D01*
X6180D02*
X6789D01*
X6180Y6493D02*
X6789D01*
X6101Y5596D02*
Y6250D01*
X6710Y5596D02*
Y6250D01*
X6101D02*
X6710D01*
X6101Y5596D02*
X6710D01*
X8482Y5801D02*
X8902D01*
Y5376D02*
Y5801D01*
X8482Y5376D02*
X8902D01*
X8482D02*
Y5801D01*
X7898Y5828D02*
Y6100D01*
X7378D02*
X7898D01*
X7378Y5828D02*
X7898D01*
X7378D02*
Y6100D01*
X7464Y5614D02*
X7894D01*
X7464Y5354D02*
Y5614D01*
X7894Y5354D02*
Y5614D01*
X7464Y5354D02*
X7894D01*
X6401Y4799D02*
Y5453D01*
X7010Y4799D02*
Y5453D01*
X6401D02*
X7010D01*
X6401Y4799D02*
X7010D01*
X6093Y3740D02*
Y4394D01*
X6702Y3740D02*
Y4394D01*
X6093D02*
X6702D01*
X6093Y3740D02*
X6702D01*
X6414Y2939D02*
Y3593D01*
X7023Y2939D02*
Y3593D01*
X6414D02*
X7023D01*
X6414Y2939D02*
X7023D01*
X2204Y2004D02*
X2374D01*
X2204Y1684D02*
X2374D01*
Y2004D01*
X2204Y1684D02*
Y2004D01*
X4266Y1207D02*
X4558D01*
X4266Y1337D02*
X4558D01*
X4266Y1207D02*
Y1337D01*
X4558Y1207D02*
Y1337D01*
X2839Y6636D02*
X3130D01*
X2839Y6766D02*
X3130D01*
X2839Y6636D02*
Y6766D01*
X3130Y6636D02*
Y6766D01*
X3458Y7998D02*
X3628D01*
X3458Y7678D02*
X3628D01*
Y7998D01*
X3458Y7678D02*
Y7998D01*
X2906Y7774D02*
Y7944D01*
X2586Y7774D02*
Y7944D01*
Y7774D02*
X2906D01*
X2586Y7944D02*
X2906D01*
X3305Y7334D02*
Y7504D01*
X2985Y7334D02*
Y7504D01*
Y7334D02*
X3305D01*
X2985Y7504D02*
X3305D01*
X4098Y5984D02*
X4268D01*
X4098Y5664D02*
X4268D01*
Y5984D01*
X4098Y5664D02*
Y5984D01*
X2471Y5219D02*
Y5389D01*
X2151Y5219D02*
Y5389D01*
Y5219D02*
X2471D01*
X2151Y5389D02*
X2471D01*
X1861Y5464D02*
X2031D01*
X1861Y5784D02*
X2031D01*
X1861Y5464D02*
Y5784D01*
X2031Y5464D02*
Y5784D01*
X4196Y3522D02*
Y3692D01*
X3876Y3522D02*
Y3692D01*
Y3522D02*
X4196D01*
X3876Y3692D02*
X4196D01*
X1400Y6250D02*
Y6420D01*
X1080Y6250D02*
Y6420D01*
Y6250D02*
X1400D01*
X1080Y6420D02*
X1400D01*
X4422Y1726D02*
Y1896D01*
X4102Y1726D02*
Y1896D01*
Y1726D02*
X4422D01*
X4102Y1896D02*
X4422D01*
X1340Y5326D02*
X1510D01*
X1340Y5006D02*
X1510D01*
Y5326D01*
X1340Y5006D02*
Y5326D01*
X2314Y2247D02*
Y2417D01*
X1994Y2247D02*
Y2417D01*
Y2247D02*
X2314D01*
X1994Y2417D02*
X2314D01*
X2069Y4318D02*
X2239D01*
X2069Y3998D02*
X2239D01*
Y4318D01*
X2069Y3998D02*
Y4318D01*
X2028Y3426D02*
X2198D01*
X2028Y3106D02*
X2198D01*
Y3426D01*
X2028Y3106D02*
Y3426D01*
X4334Y7420D02*
Y7820D01*
X3834Y7420D02*
Y7820D01*
X4334D01*
X3834Y7420D02*
X4334D01*
X4736Y7868D02*
X4946D01*
X4736Y7733D02*
X4946D01*
X4736D02*
Y7868D01*
X4946Y7733D02*
Y7868D01*
X8467Y7274D02*
X8887D01*
Y6849D02*
Y7274D01*
X8467Y6849D02*
X8887D01*
X8467D02*
Y7274D01*
X7371Y7484D02*
Y7756D01*
Y7484D02*
X7891D01*
X7371Y7756D02*
X7891D01*
Y7484D02*
Y7756D01*
X4256Y6635D02*
X4548D01*
X4256Y6765D02*
X4548D01*
X4256Y6635D02*
Y6765D01*
X4548Y6635D02*
Y6765D01*
X3694Y5464D02*
Y5864D01*
X3194Y5464D02*
Y5864D01*
X3694D01*
X3194Y5464D02*
X3694D01*
X2532Y4841D02*
X2824D01*
X2532Y4971D02*
X2824D01*
X2532Y4841D02*
Y4971D01*
X2824Y4841D02*
Y4971D01*
X3666Y3925D02*
Y4325D01*
X3166Y3925D02*
Y4325D01*
X3666D01*
X3166Y3925D02*
X3666D01*
X4355Y4939D02*
Y5149D01*
X4490Y4939D02*
Y5149D01*
X4355Y4939D02*
X4490D01*
X4355Y5149D02*
X4490D01*
X3314Y4935D02*
X3494D01*
X3314Y4595D02*
X3494D01*
Y4935D01*
X3314Y4595D02*
Y4935D01*
X3969Y3142D02*
X4261D01*
X3969Y3272D02*
X4261D01*
X3969Y3142D02*
Y3272D01*
X4261Y3142D02*
Y3272D01*
X5007Y3962D02*
Y4172D01*
X5142Y3962D02*
Y4172D01*
X5007Y3962D02*
X5142D01*
X5007Y4172D02*
X5142D01*
X4185Y4377D02*
X4365D01*
X4185Y4037D02*
X4365D01*
Y4377D01*
X4185Y4037D02*
Y4377D01*
X8474Y4373D02*
X8894D01*
Y3948D02*
Y4373D01*
X8474Y3948D02*
X8894D01*
X8474D02*
Y4373D01*
X1838Y4860D02*
X2130D01*
X1838Y4990D02*
X2130D01*
X1838Y4860D02*
Y4990D01*
X2130Y4860D02*
Y4990D01*
X7814Y3811D02*
Y4083D01*
X7294D02*
X7814D01*
X7294Y3811D02*
X7814D01*
X7294D02*
Y4083D01*
X3270Y3242D02*
X3562D01*
X3270Y3372D02*
X3562D01*
X3270Y3242D02*
Y3372D01*
X3562Y3242D02*
Y3372D01*
X3844Y1951D02*
Y2351D01*
X3344Y1951D02*
Y2351D01*
X3844D01*
X3344Y1951D02*
X3844D01*
X1197Y5231D02*
Y5631D01*
X697Y5231D02*
Y5631D01*
X1197D01*
X697Y5231D02*
X1197D01*
X3788Y1227D02*
X4080D01*
X3788Y1357D02*
X4080D01*
X3788Y1227D02*
Y1357D01*
X4080Y1227D02*
Y1357D01*
X1303Y5863D02*
X1595D01*
X1303Y5733D02*
X1595D01*
Y5863D01*
X1303Y5733D02*
Y5863D01*
X4200Y2362D02*
Y2572D01*
X4065Y2362D02*
Y2572D01*
X4200D01*
X4065Y2362D02*
X4200D01*
X2605Y2182D02*
X2785D01*
X2605Y2522D02*
X2785D01*
X2605Y2182D02*
Y2522D01*
X2785Y2182D02*
Y2522D01*
X464Y6537D02*
X644D01*
X464Y6197D02*
X644D01*
Y6537D01*
X464Y6197D02*
Y6537D01*
X6332Y1106D02*
Y1760D01*
X6941Y1106D02*
Y1760D01*
X6332D02*
X6941D01*
X6332Y1106D02*
X6941D01*
X741Y1713D02*
Y2367D01*
X1351Y1713D02*
Y2367D01*
X741D02*
X1351D01*
X741Y1713D02*
X1351D01*
X8464Y2971D02*
X8884D01*
Y2546D02*
Y2971D01*
X8464Y2546D02*
X8884D01*
X8464D02*
Y2971D01*
X7220Y1916D02*
Y2188D01*
Y1916D02*
X7740D01*
X7220Y2188D02*
X7740D01*
Y1916D02*
Y2188D01*
X7700Y651D02*
Y923D01*
X7180D02*
X7700D01*
X7180Y651D02*
X7700D01*
X7180D02*
Y923D01*
X1785Y6303D02*
Y6595D01*
X1655Y6303D02*
Y6595D01*
Y6303D02*
X1785D01*
X1655Y6595D02*
X1785D01*
X5812Y1903D02*
Y2557D01*
X6421Y1903D02*
Y2557D01*
X5812D02*
X6421D01*
X5812Y1903D02*
X6421D01*
X812Y2645D02*
Y3299D01*
X1422Y2645D02*
Y3299D01*
X812D02*
X1422D01*
X812Y2645D02*
X1422D01*
X2087Y6694D02*
Y7124D01*
Y6694D02*
X2348D01*
X2087Y7124D02*
X2348D01*
Y6694D02*
Y7124D01*
X3646Y5175D02*
X4076D01*
X3646Y4914D02*
Y5175D01*
X4076Y4914D02*
Y5175D01*
X3646Y4914D02*
X4076D01*
X2462Y3037D02*
X2892D01*
Y3298D01*
X2462Y3037D02*
Y3298D01*
X2892D01*
X4560D02*
X4990D01*
X4560Y3037D02*
Y3298D01*
X4990Y3037D02*
Y3298D01*
X4560Y3037D02*
X4990D01*
X7397Y3417D02*
X7827D01*
X7397Y3157D02*
Y3417D01*
X7827Y3157D02*
Y3417D01*
X7397Y3157D02*
X7827D01*
X2239Y1382D02*
X2669D01*
X2239Y1122D02*
Y1382D01*
X2669Y1122D02*
Y1382D01*
X2239Y1122D02*
X2669D01*
X908Y4019D02*
X1338D01*
X908Y3758D02*
Y4019D01*
X1338Y3758D02*
Y4019D01*
X908Y3758D02*
X1338D01*
X5137Y1122D02*
X5567D01*
Y1382D01*
X5137Y1122D02*
Y1382D01*
X5567D01*
X920Y4368D02*
X1350D01*
Y4629D01*
X920Y4368D02*
Y4629D01*
X1350D01*
X7307Y1478D02*
X7737D01*
Y1738D01*
X7307Y1478D02*
Y1738D01*
X7737D01*
X2709Y7000D02*
Y7320D01*
X2539Y7000D02*
Y7320D01*
X2709D01*
X2539Y7000D02*
X2709D01*
X5401Y7135D02*
Y7455D01*
X5231Y7135D02*
Y7455D01*
X5401D01*
X5231Y7135D02*
X5401D01*
X2869Y5624D02*
Y5944D01*
X2699Y5624D02*
Y5944D01*
X2869D01*
X2699Y5624D02*
X2869D01*
X2782Y3927D02*
Y4247D01*
X2612Y3927D02*
Y4247D01*
X2782D01*
X2612Y3927D02*
X2782D01*
X4947Y4844D02*
Y5164D01*
X4777Y4844D02*
Y5164D01*
X4947D01*
X4777Y4844D02*
X4947D01*
X5367Y3372D02*
X5687D01*
X5367Y3202D02*
X5687D01*
X5367D02*
Y3372D01*
X5687Y3202D02*
Y3372D01*
X1906Y3706D02*
Y4026D01*
X1736Y3706D02*
Y4026D01*
X1906D01*
X1736Y3706D02*
X1906D01*
X3033Y1297D02*
X3353D01*
X3033Y1127D02*
X3353D01*
X3033D02*
Y1297D01*
X3353Y1127D02*
Y1297D01*
X580Y4061D02*
Y4381D01*
X410Y4061D02*
Y4381D01*
X580D01*
X410Y4061D02*
X580D01*
X4580Y2175D02*
X4900D01*
X4580Y2005D02*
X4900D01*
X4580D02*
Y2175D01*
X4900Y2005D02*
Y2175D01*
X7286Y6969D02*
X7716D01*
Y7230D01*
X7286Y6969D02*
Y7230D01*
X7716D01*
X2058Y7800D02*
X2113D01*
X2058Y7695D02*
X2113D01*
Y7800D01*
X2058Y7695D02*
Y7800D01*
X4514Y6065D02*
X4569D01*
X4514Y5960D02*
X4569D01*
Y6065D01*
X4514Y5960D02*
Y6065D01*
X1847Y1884D02*
X1902D01*
X1847Y1779D02*
X1902D01*
Y1884D01*
X1847Y1779D02*
Y1884D01*
X3776Y6735D02*
Y6945D01*
X3911Y6735D02*
Y6945D01*
X3776Y6735D02*
X3911D01*
X3776Y6945D02*
X3911D01*
X2399Y5686D02*
Y5896D01*
X2264Y5686D02*
Y5896D01*
X2399D01*
X2264Y5686D02*
X2399D01*
X4723Y3741D02*
Y3951D01*
X4588Y3741D02*
Y3951D01*
X4723D01*
X4588Y3741D02*
X4723D01*
X2981Y1746D02*
Y1956D01*
X2846Y1746D02*
Y1956D01*
X2981D01*
X2846Y1746D02*
X2981D01*
X4678Y7151D02*
X4888D01*
X4678Y7286D02*
X4888D01*
Y7151D02*
Y7286D01*
X4678Y7151D02*
Y7286D01*
X5008Y5618D02*
Y5828D01*
X4873Y5618D02*
Y5828D01*
X5008D01*
X4873Y5618D02*
X5008D01*
X4989Y3580D02*
X5199D01*
X4989Y3715D02*
X5199D01*
Y3580D02*
Y3715D01*
X4989Y3580D02*
Y3715D01*
X535Y5122D02*
Y5332D01*
X400Y5122D02*
Y5332D01*
X535D01*
X400Y5122D02*
X535D01*
X4928Y1604D02*
X5138D01*
X4928Y1739D02*
X5138D01*
Y1604D02*
Y1739D01*
X4928Y1604D02*
Y1739D01*
X3215Y7170D02*
X3395D01*
X3215Y6830D02*
X3395D01*
Y7170D01*
X3215Y6830D02*
Y7170D01*
X5711Y4649D02*
Y5079D01*
X5450D02*
X5711D01*
X5450Y4649D02*
X5711D01*
X5450D02*
Y5079D01*
X8482Y1564D02*
X8902D01*
Y1139D02*
Y1564D01*
X8482Y1139D02*
X8902D01*
X8482D02*
Y1564D01*
D82*
X899Y7045D02*
D03*
X5283Y6659D02*
D03*
X7879Y5483D02*
D03*
X4062Y5043D02*
D03*
X935Y4500D02*
D03*
X7300Y7101D02*
D03*
D83*
X2219Y7109D02*
D03*
X5579Y4664D02*
D03*
D84*
X2477Y3169D02*
D03*
X4976Y3166D02*
D03*
X7813Y3286D02*
D03*
X2654Y1251D02*
D03*
X1323Y3888D02*
D03*
X5151Y1253D02*
D03*
X7321Y1609D02*
D03*
M02*
