M48
;Layer_Color=9474304
;FILE_FORMAT=4:2
METRIC,LZ
;TYPE=PLATED
T1F00S00C0.71
T2F00S00C0.78
T3F00S00C0.91
T4F00S00C1.10
T5F00S00C1.15
T6F00S00C3.05
%
T01
X002131Y001227
X003345Y001839
X004094Y001199
X004559Y001168
X005573Y001158
X006253Y003114
X005905Y004851
X005773Y005448
X005723Y005784
X005296Y00571
X0051Y005156
X005098Y004849
X005215Y00459
X005116Y004221
X004892Y004442
X004227Y004417
X004437Y004796
X004351Y005192
X003503Y005222
X00351Y004961
X003203Y005357
X003015Y005789
X003686Y005697
X00283Y004816
X002139Y004836
X001984Y004686
X002156Y004069
X002452Y004107
X003175Y003851
X0032Y003117
X002995Y003241
X003592Y003203
X004178Y003058
X004343Y003167
X004575Y00336
X004133Y003556
X004209Y002355
X004595Y002662
X005004Y002878
X0054Y001928
X005687Y003907
X002761Y002164
X001943Y005705
X000792Y005431
X000724Y005085
X000297Y003642
X000472Y003307
X000605Y002858
X00126Y002659
X001745Y002532
X001369Y003713
X000465Y002014
X00049Y006553
X000439Y006924
X001148Y007046
X001438Y007127
X001458Y006561
X001349Y006233
X001308Y005933
X001633Y00617
X001882Y006586
X002271Y006609
X002149Y006264
X002365Y006053
X003124Y006546
X003386Y00714
X00334Y007412
X002845Y007315
X002885Y008095
X002095Y007978
X003774Y007742
X003863Y007313
X004084Y007071
X00395Y006472
X004562Y006604
X004542Y006264
X004729Y006921
X005004Y007795
X005464Y007628
X005433Y008004
X005588Y006096
X005946Y007417
T02
X002941Y005413
X003399Y005832
X001176Y005085
X001844Y004094
X0035Y00651
T03
X001386Y008338
X00164
X001894
Y008592
Y008846
Y0091
X00164
Y008846
Y008592
X001386
Y008846
Y0091
X002148
X002402
X002656
X00291
X003164
X003418
X003672
X003926
X00418
X004434
X004688
X004942
X005196
X00545
X005704
Y008846
Y008592
Y008338
X00545
Y008592
Y008846
X005196
Y008592
Y008338
X004942
Y008592
Y008846
X004688
Y008592
Y008338
X004434
Y008592
Y008846
X00418
Y008592
X003926
Y008338
X00418
X003672
Y008592
Y008846
X003926
X003418
Y008592
Y008338
X003164
Y008592
Y008846
X00291
Y008592
Y008338
X002656
Y008592
Y008846
X002402
Y008592
Y008338
X002148
Y008592
Y008846
X005958
X006212
X006466
X00672
X006974
X007228
X007482
X007736
Y0091
X007482
X007228
X006974
X00672
X006466
X006212
X005958
Y008592
X006212
X006466
X00672
X006974
X007228
X007482
X007736
Y008338
X007482
X007228
X006974
X00672
X006466
X006212
X005958
T04
X001171Y000391
X001521
T05
X00699Y000787
X00789
X00793Y002052
X00703
X007104Y003947
X008004
X008088Y005964
X007188
X007181Y00762
X008081
T06
X000496Y000512
X008498Y000514
X000876Y009082
X008246
M30
