G04 Layer_Color=16711935*
%FSLAX42Y42*%
%MOMM*%
G71*
G01*
G75*
%ADD30C,0.25*%
%ADD78C,0.10*%
%ADD79C,0.08*%
D30*
X1264Y8234D02*
Y9202D01*
Y8234D02*
X7856D01*
Y9202D01*
X1264D02*
X7856D01*
D78*
X4050Y7480D02*
X4100D01*
X4110Y7490D01*
Y7510D01*
X4100Y7520D01*
X4050D01*
X4110Y7540D02*
Y7560D01*
Y7550D01*
X4050D01*
X4060Y7540D01*
X3410Y5524D02*
X3460D01*
X3470Y5534D01*
Y5554D01*
X3460Y5564D01*
X3410D01*
X3470Y5624D02*
Y5584D01*
X3430Y5624D01*
X3420D01*
X3410Y5614D01*
Y5594D01*
X3420Y5584D01*
X3382Y3985D02*
X3432D01*
X3442Y3995D01*
Y4015D01*
X3432Y4025D01*
X3382D01*
X3392Y4045D02*
X3382Y4055D01*
Y4075D01*
X3392Y4085D01*
X3402D01*
X3412Y4075D01*
Y4065D01*
Y4075D01*
X3422Y4085D01*
X3432D01*
X3442Y4075D01*
Y4055D01*
X3432Y4045D01*
X3560Y2012D02*
X3610D01*
X3619Y2022D01*
Y2042D01*
X3610Y2052D01*
X3560D01*
Y2112D02*
Y2072D01*
X3590D01*
X3580Y2092D01*
Y2102D01*
X3590Y2112D01*
X3610D01*
X3619Y2102D01*
Y2082D01*
X3610Y2072D01*
X913Y5292D02*
X963D01*
X973Y5302D01*
Y5322D01*
X963Y5332D01*
X913D01*
X973Y5382D02*
X913D01*
X943Y5352D01*
Y5392D01*
D79*
X5362Y8804D02*
Y8746D01*
X5359Y8735D01*
X5355Y8731D01*
X5348Y8728D01*
X5341D01*
X5333Y8731D01*
X5330Y8735D01*
X5326Y8746D01*
Y8753D01*
X5382Y8789D02*
X5389Y8793D01*
X5400Y8804D01*
Y8728D01*
M02*
