G04 Layer_Color=65535*
%FSLAX42Y42*%
%MOMM*%
G71*
G01*
G75*
%ADD30C,0.25*%
%ADD37C,0.25*%
%ADD38C,0.60*%
%ADD39C,0.20*%
%ADD40R,0.50X0.27*%
%ADD41R,0.52X0.25*%
%ADD42R,0.34X1.62*%
%ADD43R,0.50X0.27*%
%ADD44R,0.52X0.25*%
%ADD45R,0.34X1.62*%
%ADD46R,0.95X2.72*%
%ADD47R,0.95X2.72*%
%ADD48R,0.27X0.50*%
%ADD49R,0.25X0.52*%
%ADD50R,1.62X0.34*%
%ADD51R,0.52X0.25*%
%ADD52R,0.27X0.50*%
D30*
X1236Y8219D02*
Y9219D01*
Y8219D02*
X7886D01*
Y9219D01*
X1236D02*
X7886D01*
X4099Y1984D02*
Y2136D01*
X4175D01*
X4201Y2111D01*
Y2060D01*
X4175Y2035D01*
X4099D01*
X4150D02*
X4201Y1984D01*
X4251Y2111D02*
X4277Y2136D01*
X4328D01*
X4353Y2111D01*
Y2085D01*
X4328Y2060D01*
X4302D01*
X4328D01*
X4353Y2035D01*
Y2009D01*
X4328Y1984D01*
X4277D01*
X4251Y2009D01*
X4505Y2136D02*
X4404D01*
Y2060D01*
X4455Y2085D01*
X4480D01*
X4505Y2060D01*
Y2009D01*
X4480Y1984D01*
X4429D01*
X4404Y2009D01*
X1077Y6507D02*
Y6660D01*
X1153D01*
X1179Y6634D01*
Y6584D01*
X1153Y6558D01*
X1077D01*
X1128D02*
X1179Y6507D01*
X1229Y6634D02*
X1255Y6660D01*
X1305D01*
X1331Y6634D01*
Y6609D01*
X1305Y6584D01*
X1280D01*
X1305D01*
X1331Y6558D01*
Y6533D01*
X1305Y6507D01*
X1255D01*
X1229Y6533D01*
X1483Y6507D02*
X1382D01*
X1483Y6609D01*
Y6634D01*
X1458Y6660D01*
X1407D01*
X1382Y6634D01*
X612Y7971D02*
Y8123D01*
X688D01*
X714Y8097D01*
Y8047D01*
X688Y8021D01*
X612D01*
X663D02*
X714Y7971D01*
X866D02*
X764D01*
X866Y8072D01*
Y8097D01*
X841Y8123D01*
X790D01*
X764Y8097D01*
X1018Y8123D02*
X968Y8097D01*
X917Y8047D01*
Y7996D01*
X942Y7971D01*
X993D01*
X1018Y7996D01*
Y8021D01*
X993Y8047D01*
X917D01*
X3873Y3779D02*
Y3932D01*
X3950D01*
X3975Y3906D01*
Y3856D01*
X3950Y3830D01*
X3873D01*
X3924D02*
X3975Y3779D01*
X4127D02*
X4026D01*
X4127Y3881D01*
Y3906D01*
X4102Y3932D01*
X4051D01*
X4026Y3906D01*
X4178Y3779D02*
X4229D01*
X4204D01*
Y3932D01*
X4178Y3906D01*
X1875Y5888D02*
Y6040D01*
X1951D01*
X1976Y6015D01*
Y5964D01*
X1951Y5938D01*
X1875D01*
X1925D02*
X1976Y5888D01*
X2027D02*
X2078D01*
X2052D01*
Y6040D01*
X2027Y6015D01*
X2154Y6040D02*
X2255D01*
Y6015D01*
X2154Y5913D01*
Y5888D01*
X2148Y5476D02*
Y5629D01*
X2225D01*
X2250Y5603D01*
Y5552D01*
X2225Y5527D01*
X2148D01*
X2199D02*
X2250Y5476D01*
X2301D02*
X2352D01*
X2326D01*
Y5629D01*
X2301Y5603D01*
X2529Y5629D02*
X2478Y5603D01*
X2428Y5552D01*
Y5502D01*
X2453Y5476D01*
X2504D01*
X2529Y5502D01*
Y5527D01*
X2504Y5552D01*
X2428D01*
X4112Y6088D02*
Y6241D01*
X4188D01*
X4214Y6215D01*
Y6165D01*
X4188Y6139D01*
X4112D01*
X4163D02*
X4214Y6088D01*
X4265D02*
X4315D01*
X4290D01*
Y6241D01*
X4265Y6215D01*
X4493Y6088D02*
X4392D01*
X4493Y6190D01*
Y6215D01*
X4468Y6241D01*
X4417D01*
X4392Y6215D01*
X2982Y7592D02*
Y7744D01*
X3058D01*
X3084Y7719D01*
Y7668D01*
X3058Y7643D01*
X2982D01*
X3033D02*
X3084Y7592D01*
X3134Y7744D02*
X3236D01*
Y7719D01*
X3134Y7617D01*
Y7592D01*
X2583Y8031D02*
Y8184D01*
X2659D01*
X2685Y8158D01*
Y8108D01*
X2659Y8082D01*
X2583D01*
X2634D02*
X2685Y8031D01*
X2837Y8184D02*
X2786Y8158D01*
X2736Y8108D01*
Y8057D01*
X2761Y8031D01*
X2812D01*
X2837Y8057D01*
Y8082D01*
X2812Y8108D01*
X2736D01*
X3472Y8102D02*
Y8255D01*
X3548D01*
X3574Y8229D01*
Y8178D01*
X3548Y8153D01*
X3472D01*
X3523D02*
X3574Y8102D01*
X3625Y8229D02*
X3650Y8255D01*
X3701D01*
X3726Y8229D01*
Y8204D01*
X3701Y8178D01*
X3675D01*
X3701D01*
X3726Y8153D01*
Y8128D01*
X3701Y8102D01*
X3650D01*
X3625Y8128D01*
X3322Y2718D02*
Y2591D01*
X3348Y2565D01*
X3398D01*
X3424Y2591D01*
Y2718D01*
X3576D02*
X3475D01*
Y2642D01*
X3525Y2667D01*
X3551D01*
X3576Y2642D01*
Y2591D01*
X3551Y2565D01*
X3500D01*
X3475Y2591D01*
X676Y5998D02*
Y5871D01*
X701Y5845D01*
X752D01*
X777Y5871D01*
Y5998D01*
X904Y5845D02*
Y5998D01*
X828Y5922D01*
X930D01*
X3144Y4691D02*
Y4564D01*
X3170Y4539D01*
X3221D01*
X3246Y4564D01*
Y4691D01*
X3297Y4666D02*
X3322Y4691D01*
X3373D01*
X3398Y4666D01*
Y4641D01*
X3373Y4615D01*
X3348D01*
X3373D01*
X3398Y4590D01*
Y4564D01*
X3373Y4539D01*
X3322D01*
X3297Y4564D01*
X3172Y6231D02*
Y6104D01*
X3198Y6078D01*
X3249D01*
X3274Y6104D01*
Y6231D01*
X3426Y6078D02*
X3325D01*
X3426Y6180D01*
Y6205D01*
X3401Y6231D01*
X3350D01*
X3325Y6205D01*
X3813Y8185D02*
Y8059D01*
X3838Y8033D01*
X3889D01*
X3914Y8059D01*
Y8185D01*
X3965Y8033D02*
X4016D01*
X3990D01*
Y8185D01*
X3965Y8160D01*
X4498Y2309D02*
Y2461D01*
X4574D01*
X4600Y2436D01*
Y2385D01*
X4574Y2360D01*
X4498D01*
X4549D02*
X4600Y2309D01*
X4752D02*
X4651D01*
X4752Y2410D01*
Y2436D01*
X4727Y2461D01*
X4676D01*
X4651Y2436D01*
X4803Y2334D02*
X4828Y2309D01*
X4879D01*
X4904Y2334D01*
Y2436D01*
X4879Y2461D01*
X4828D01*
X4803Y2436D01*
Y2410D01*
X4828Y2385D01*
X4904D01*
X378Y4564D02*
Y4717D01*
X455D01*
X480Y4691D01*
Y4641D01*
X455Y4615D01*
X378D01*
X429D02*
X480Y4564D01*
X632D02*
X531D01*
X632Y4666D01*
Y4691D01*
X607Y4717D01*
X556D01*
X531Y4691D01*
X683D02*
X709Y4717D01*
X759D01*
X785Y4691D01*
Y4666D01*
X759Y4641D01*
X785Y4615D01*
Y4590D01*
X759Y4564D01*
X709D01*
X683Y4590D01*
Y4615D01*
X709Y4641D01*
X683Y4666D01*
Y4691D01*
X709Y4641D02*
X759D01*
X1354Y5431D02*
Y5583D01*
X1430D01*
X1455Y5557D01*
Y5507D01*
X1430Y5481D01*
X1354D01*
X1405D02*
X1455Y5431D01*
X1506Y5557D02*
X1532Y5583D01*
X1582D01*
X1608Y5557D01*
Y5532D01*
X1582Y5507D01*
X1557D01*
X1582D01*
X1608Y5481D01*
Y5456D01*
X1582Y5431D01*
X1532D01*
X1506Y5456D01*
X1735Y5431D02*
Y5583D01*
X1659Y5507D01*
X1760D01*
X1991Y2504D02*
Y2657D01*
X2068D01*
X2093Y2631D01*
Y2581D01*
X2068Y2555D01*
X1991D01*
X2042D02*
X2093Y2504D01*
X2144Y2631D02*
X2169Y2657D01*
X2220D01*
X2245Y2631D01*
Y2606D01*
X2220Y2581D01*
X2194D01*
X2220D01*
X2245Y2555D01*
Y2530D01*
X2220Y2504D01*
X2169D01*
X2144Y2530D01*
X2296Y2631D02*
X2321Y2657D01*
X2372D01*
X2398Y2631D01*
Y2606D01*
X2372Y2581D01*
X2347D01*
X2372D01*
X2398Y2555D01*
Y2530D01*
X2372Y2504D01*
X2321D01*
X2296Y2530D01*
X2951Y1430D02*
Y1582D01*
X3028D01*
X3053Y1557D01*
Y1506D01*
X3028Y1481D01*
X2951D01*
X3002D02*
X3053Y1430D01*
X3205D02*
X3104D01*
X3205Y1532D01*
Y1557D01*
X3180Y1582D01*
X3129D01*
X3104Y1557D01*
X3358Y1582D02*
X3256D01*
Y1506D01*
X3307Y1532D01*
X3332D01*
X3358Y1506D01*
Y1455D01*
X3332Y1430D01*
X3282D01*
X3256Y1455D01*
X1704Y4209D02*
Y4361D01*
X1780D01*
X1806Y4336D01*
Y4285D01*
X1780Y4259D01*
X1704D01*
X1755D02*
X1806Y4209D01*
X1958D02*
X1857D01*
X1958Y4310D01*
Y4336D01*
X1933Y4361D01*
X1882D01*
X1857Y4336D01*
X2085Y4209D02*
Y4361D01*
X2009Y4285D01*
X2111D01*
X2812Y2139D02*
Y2292D01*
X2888D01*
X2913Y2266D01*
Y2215D01*
X2888Y2190D01*
X2812D01*
X2863D02*
X2913Y2139D01*
X3066D02*
X2964D01*
X3066Y2241D01*
Y2266D01*
X3040Y2292D01*
X2990D01*
X2964Y2266D01*
X3116D02*
X3142Y2292D01*
X3193D01*
X3218Y2266D01*
Y2241D01*
X3193Y2215D01*
X3167D01*
X3193D01*
X3218Y2190D01*
Y2165D01*
X3193Y2139D01*
X3142D01*
X3116Y2165D01*
X142Y7706D02*
Y7859D01*
X218D01*
X244Y7833D01*
Y7783D01*
X218Y7757D01*
X142D01*
X193D02*
X244Y7706D01*
X396D02*
X295D01*
X396Y7808D01*
Y7833D01*
X371Y7859D01*
X320D01*
X295Y7833D01*
X549Y7706D02*
X447D01*
X549Y7808D01*
Y7833D01*
X523Y7859D01*
X472D01*
X447Y7833D01*
X2217Y2108D02*
Y2261D01*
X2294D01*
X2319Y2235D01*
Y2184D01*
X2294Y2159D01*
X2217D01*
X2268D02*
X2319Y2108D01*
X2471D02*
X2370D01*
X2471Y2210D01*
Y2235D01*
X2446Y2261D01*
X2395D01*
X2370Y2235D01*
X2522Y2261D02*
X2624D01*
Y2235D01*
X2522Y2134D01*
Y2108D01*
X5286Y3505D02*
Y3658D01*
X5362D01*
X5387Y3632D01*
Y3581D01*
X5362Y3556D01*
X5286D01*
X5337D02*
X5387Y3505D01*
X5438D02*
X5489D01*
X5464D01*
Y3658D01*
X5438Y3632D01*
X5565D02*
X5591Y3658D01*
X5641D01*
X5667Y3632D01*
Y3607D01*
X5641Y3581D01*
X5667Y3556D01*
Y3531D01*
X5641Y3505D01*
X5591D01*
X5565Y3531D01*
Y3556D01*
X5591Y3581D01*
X5565Y3607D01*
Y3632D01*
X5591Y3581D02*
X5641D01*
X4745Y5347D02*
Y5499D01*
X4821D01*
X4846Y5474D01*
Y5423D01*
X4821Y5397D01*
X4745D01*
X4795D02*
X4846Y5347D01*
X4897D02*
X4948D01*
X4922D01*
Y5499D01*
X4897Y5474D01*
X5100Y5347D02*
Y5499D01*
X5024Y5423D01*
X5126D01*
X2083Y4423D02*
Y4575D01*
X2159D01*
X2184Y4550D01*
Y4499D01*
X2159Y4474D01*
X2083D01*
X2134D02*
X2184Y4423D01*
X2337D02*
X2235D01*
X2337Y4525D01*
Y4550D01*
X2311Y4575D01*
X2261D01*
X2235Y4550D01*
X2387D02*
X2413Y4575D01*
X2464D01*
X2489Y4550D01*
Y4448D01*
X2464Y4423D01*
X2413D01*
X2387Y4448D01*
Y4550D01*
X2581Y4430D02*
Y4582D01*
X2657D01*
X2682Y4557D01*
Y4506D01*
X2657Y4481D01*
X2581D01*
X2631D02*
X2682Y4430D01*
X2733D02*
X2784D01*
X2758D01*
Y4582D01*
X2733Y4557D01*
X2860Y4430D02*
X2911D01*
X2885D01*
Y4582D01*
X2860Y4557D01*
X4554Y4135D02*
Y4287D01*
X4630D01*
X4656Y4262D01*
Y4211D01*
X4630Y4186D01*
X4554D01*
X4605D02*
X4656Y4135D01*
X4707D02*
X4757D01*
X4732D01*
Y4287D01*
X4707Y4262D01*
X4834D02*
X4859Y4287D01*
X4910D01*
X4935Y4262D01*
Y4160D01*
X4910Y4135D01*
X4859D01*
X4834Y4160D01*
Y4262D01*
X2667Y6126D02*
Y6279D01*
X2743D01*
X2769Y6253D01*
Y6203D01*
X2743Y6177D01*
X2667D01*
X2718D02*
X2769Y6126D01*
X2819Y6152D02*
X2845Y6126D01*
X2896D01*
X2921Y6152D01*
Y6253D01*
X2896Y6279D01*
X2845D01*
X2819Y6253D01*
Y6228D01*
X2845Y6203D01*
X2921D01*
X2230Y6081D02*
Y6233D01*
X2306D01*
X2332Y6208D01*
Y6157D01*
X2306Y6132D01*
X2230D01*
X2281D02*
X2332Y6081D01*
X2382Y6208D02*
X2408Y6233D01*
X2459D01*
X2484Y6208D01*
Y6182D01*
X2459Y6157D01*
X2484Y6132D01*
Y6106D01*
X2459Y6081D01*
X2408D01*
X2382Y6106D01*
Y6132D01*
X2408Y6157D01*
X2382Y6182D01*
Y6208D01*
X2408Y6157D02*
X2459D01*
X2042Y3531D02*
Y3683D01*
X2118D01*
X2144Y3658D01*
Y3607D01*
X2118Y3581D01*
X2042D01*
X2093D02*
X2144Y3531D01*
X2194D02*
X2245D01*
X2220D01*
Y3683D01*
X2194Y3658D01*
X2321D02*
X2347Y3683D01*
X2398D01*
X2423Y3658D01*
Y3632D01*
X2398Y3607D01*
X2372D01*
X2398D01*
X2423Y3581D01*
Y3556D01*
X2398Y3531D01*
X2347D01*
X2321Y3556D01*
X5199Y7638D02*
Y7790D01*
X5276D01*
X5301Y7765D01*
Y7714D01*
X5276Y7689D01*
X5199D01*
X5250D02*
X5301Y7638D01*
X5428D02*
Y7790D01*
X5352Y7714D01*
X5453D01*
X2507Y7503D02*
Y7656D01*
X2583D01*
X2609Y7630D01*
Y7579D01*
X2583Y7554D01*
X2507D01*
X2558D02*
X2609Y7503D01*
X2761D02*
X2659D01*
X2761Y7605D01*
Y7630D01*
X2735Y7656D01*
X2685D01*
X2659Y7630D01*
X3741Y7130D02*
Y7282D01*
X3818D01*
X3843Y7257D01*
Y7206D01*
X3818Y7181D01*
X3741D01*
X3792D02*
X3843Y7130D01*
X3894D02*
X3945D01*
X3919D01*
Y7282D01*
X3894Y7257D01*
X5497Y2720D02*
Y2822D01*
X5472Y2847D01*
X5421D01*
X5396Y2822D01*
Y2720D01*
X5421Y2695D01*
X5472D01*
X5446Y2746D02*
X5497Y2695D01*
X5472D02*
X5497Y2720D01*
X5649Y2695D02*
X5548D01*
X5649Y2796D01*
Y2822D01*
X5624Y2847D01*
X5573D01*
X5548Y2822D01*
X5700D02*
X5726Y2847D01*
X5776D01*
X5802Y2822D01*
Y2720D01*
X5776Y2695D01*
X5726D01*
X5700Y2720D01*
Y2822D01*
X498Y3462D02*
Y3564D01*
X472Y3589D01*
X422D01*
X396Y3564D01*
Y3462D01*
X422Y3437D01*
X472D01*
X447Y3487D02*
X498Y3437D01*
X472D02*
X498Y3462D01*
X549Y3437D02*
X599D01*
X574D01*
Y3589D01*
X549Y3564D01*
X676Y3462D02*
X701Y3437D01*
X752D01*
X777Y3462D01*
Y3564D01*
X752Y3589D01*
X701D01*
X676Y3564D01*
Y3538D01*
X701Y3513D01*
X777D01*
X4653Y1307D02*
X4755D01*
X4780Y1333D01*
Y1383D01*
X4755Y1409D01*
X4653D01*
X4628Y1383D01*
Y1333D01*
X4679Y1358D02*
X4628Y1307D01*
Y1333D02*
X4653Y1307D01*
X4628Y1256D02*
Y1206D01*
Y1231D01*
X4780D01*
X4755Y1256D01*
Y1129D02*
X4780Y1104D01*
Y1053D01*
X4755Y1028D01*
X4729D01*
X4704Y1053D01*
X4679Y1028D01*
X4653D01*
X4628Y1053D01*
Y1104D01*
X4653Y1129D01*
X4679D01*
X4704Y1104D01*
X4729Y1129D01*
X4755D01*
X4704Y1104D02*
Y1053D01*
X1689Y6708D02*
Y6810D01*
X1664Y6835D01*
X1613D01*
X1587Y6810D01*
Y6708D01*
X1613Y6683D01*
X1664D01*
X1638Y6734D02*
X1689Y6683D01*
X1664D02*
X1689Y6708D01*
X1740Y6683D02*
X1791D01*
X1765D01*
Y6835D01*
X1740Y6810D01*
X1867Y6835D02*
X1968D01*
Y6810D01*
X1867Y6708D01*
Y6683D01*
X6016Y1922D02*
Y2024D01*
X5991Y2049D01*
X5940D01*
X5914Y2024D01*
Y1922D01*
X5940Y1897D01*
X5991D01*
X5965Y1948D02*
X6016Y1897D01*
X5991D02*
X6016Y1922D01*
X6067Y1897D02*
X6118D01*
X6092D01*
Y2049D01*
X6067Y2024D01*
X6295Y2049D02*
X6245Y2024D01*
X6194Y1973D01*
Y1922D01*
X6219Y1897D01*
X6270D01*
X6295Y1922D01*
Y1948D01*
X6270Y1973D01*
X6194D01*
X427Y2530D02*
Y2631D01*
X401Y2657D01*
X350D01*
X325Y2631D01*
Y2530D01*
X350Y2504D01*
X401D01*
X376Y2555D02*
X427Y2504D01*
X401D02*
X427Y2530D01*
X477Y2504D02*
X528D01*
X503D01*
Y2657D01*
X477Y2631D01*
X706Y2657D02*
X604D01*
Y2581D01*
X655Y2606D01*
X681D01*
X706Y2581D01*
Y2530D01*
X681Y2504D01*
X630D01*
X604Y2530D01*
X3846Y1551D02*
Y1653D01*
X3820Y1678D01*
X3769D01*
X3744Y1653D01*
Y1551D01*
X3769Y1526D01*
X3820D01*
X3795Y1576D02*
X3846Y1526D01*
X3820D02*
X3846Y1551D01*
X3896Y1526D02*
X3947D01*
X3922D01*
Y1678D01*
X3896Y1653D01*
X4099Y1526D02*
Y1678D01*
X4023Y1602D01*
X4125D01*
X1419Y6057D02*
Y6158D01*
X1393Y6184D01*
X1343D01*
X1317Y6158D01*
Y6057D01*
X1343Y6032D01*
X1393D01*
X1368Y6082D02*
X1419Y6032D01*
X1393D02*
X1419Y6057D01*
X1470Y6032D02*
X1520D01*
X1495D01*
Y6184D01*
X1470Y6158D01*
X1597D02*
X1622Y6184D01*
X1673D01*
X1698Y6158D01*
Y6133D01*
X1673Y6108D01*
X1647D01*
X1673D01*
X1698Y6082D01*
Y6057D01*
X1673Y6032D01*
X1622D01*
X1597Y6057D01*
X6477Y4420D02*
Y4521D01*
X6452Y4547D01*
X6401D01*
X6375Y4521D01*
Y4420D01*
X6401Y4394D01*
X6452D01*
X6426Y4445D02*
X6477Y4394D01*
X6452D02*
X6477Y4420D01*
X6528Y4394D02*
X6579D01*
X6553D01*
Y4547D01*
X6528Y4521D01*
X6756Y4394D02*
X6655D01*
X6756Y4496D01*
Y4521D01*
X6731Y4547D01*
X6680D01*
X6655Y4521D01*
X3327Y3566D02*
Y3668D01*
X3302Y3693D01*
X3251D01*
X3226Y3668D01*
Y3566D01*
X3251Y3541D01*
X3302D01*
X3277Y3592D02*
X3327Y3541D01*
X3302D02*
X3327Y3566D01*
X3378Y3541D02*
X3429D01*
X3404D01*
Y3693D01*
X3378Y3668D01*
X3505Y3541D02*
X3556D01*
X3530D01*
Y3693D01*
X3505Y3668D01*
X6408Y6274D02*
Y6375D01*
X6383Y6401D01*
X6332D01*
X6307Y6375D01*
Y6274D01*
X6332Y6248D01*
X6383D01*
X6358Y6299D02*
X6408Y6248D01*
X6383D02*
X6408Y6274D01*
X6459Y6248D02*
X6510D01*
X6485D01*
Y6401D01*
X6459Y6375D01*
X6586D02*
X6612Y6401D01*
X6662D01*
X6688Y6375D01*
Y6274D01*
X6662Y6248D01*
X6612D01*
X6586Y6274D01*
Y6375D01*
X1895Y5184D02*
Y5286D01*
X1869Y5311D01*
X1819D01*
X1793Y5286D01*
Y5184D01*
X1819Y5159D01*
X1869D01*
X1844Y5210D02*
X1895Y5159D01*
X1869D02*
X1895Y5184D01*
X1946D02*
X1971Y5159D01*
X2022D01*
X2047Y5184D01*
Y5286D01*
X2022Y5311D01*
X1971D01*
X1946Y5286D01*
Y5260D01*
X1971Y5235D01*
X2047D01*
X6088Y3228D02*
Y3330D01*
X6063Y3355D01*
X6012D01*
X5987Y3330D01*
Y3228D01*
X6012Y3203D01*
X6063D01*
X6038Y3254D02*
X6088Y3203D01*
X6063D02*
X6088Y3228D01*
X6139Y3330D02*
X6165Y3355D01*
X6215D01*
X6241Y3330D01*
Y3305D01*
X6215Y3279D01*
X6241Y3254D01*
Y3228D01*
X6215Y3203D01*
X6165D01*
X6139Y3228D01*
Y3254D01*
X6165Y3279D01*
X6139Y3305D01*
Y3330D01*
X6165Y3279D02*
X6215D01*
X6977Y5502D02*
Y5603D01*
X6952Y5629D01*
X6901D01*
X6876Y5603D01*
Y5502D01*
X6901Y5476D01*
X6952D01*
X6927Y5527D02*
X6977Y5476D01*
X6952D02*
X6977Y5502D01*
X7028Y5629D02*
X7130D01*
Y5603D01*
X7028Y5502D01*
Y5476D01*
X4026Y3466D02*
Y3568D01*
X4000Y3593D01*
X3950D01*
X3924Y3568D01*
Y3466D01*
X3950Y3441D01*
X4000D01*
X3975Y3492D02*
X4026Y3441D01*
X4000D02*
X4026Y3466D01*
X4178Y3593D02*
X4127Y3568D01*
X4077Y3517D01*
Y3466D01*
X4102Y3441D01*
X4153D01*
X4178Y3466D01*
Y3492D01*
X4153Y3517D01*
X4077D01*
X2589Y5165D02*
Y5266D01*
X2564Y5292D01*
X2513D01*
X2488Y5266D01*
Y5165D01*
X2513Y5139D01*
X2564D01*
X2538Y5190D02*
X2589Y5139D01*
X2564D02*
X2589Y5165D01*
X2742Y5292D02*
X2640D01*
Y5216D01*
X2691Y5241D01*
X2716D01*
X2742Y5216D01*
Y5165D01*
X2716Y5139D01*
X2665D01*
X2640Y5165D01*
X6421Y8118D02*
Y8219D01*
X6396Y8245D01*
X6345D01*
X6320Y8219D01*
Y8118D01*
X6345Y8092D01*
X6396D01*
X6370Y8143D02*
X6421Y8092D01*
X6396D02*
X6421Y8118D01*
X6548Y8092D02*
Y8245D01*
X6472Y8169D01*
X6573D01*
X4313Y6959D02*
Y7060D01*
X4287Y7086D01*
X4237D01*
X4211Y7060D01*
Y6959D01*
X4237Y6933D01*
X4287D01*
X4262Y6984D02*
X4313Y6933D01*
X4287D02*
X4313Y6959D01*
X4364Y7060D02*
X4389Y7086D01*
X4440D01*
X4465Y7060D01*
Y7035D01*
X4440Y7009D01*
X4414D01*
X4440D01*
X4465Y6984D01*
Y6959D01*
X4440Y6933D01*
X4389D01*
X4364Y6959D01*
X6416Y7206D02*
Y7308D01*
X6391Y7333D01*
X6340D01*
X6314Y7308D01*
Y7206D01*
X6340Y7181D01*
X6391D01*
X6365Y7231D02*
X6416Y7181D01*
X6391D02*
X6416Y7206D01*
X6568Y7181D02*
X6467D01*
X6568Y7282D01*
Y7308D01*
X6543Y7333D01*
X6492D01*
X6467Y7308D01*
X3200Y6498D02*
X3302D01*
X3327Y6524D01*
Y6574D01*
X3302Y6600D01*
X3200D01*
X3175Y6574D01*
Y6524D01*
X3226Y6549D02*
X3175Y6498D01*
Y6524D02*
X3200Y6498D01*
X3175Y6448D02*
Y6397D01*
Y6422D01*
X3327D01*
X3302Y6448D01*
X8250Y3269D02*
Y3421D01*
X8326D01*
X8351Y3396D01*
Y3345D01*
X8326Y3320D01*
X8250D01*
X8478Y3269D02*
Y3421D01*
X8402Y3345D01*
X8504D01*
X8260Y4671D02*
Y4823D01*
X8336D01*
X8362Y4798D01*
Y4747D01*
X8336Y4722D01*
X8260D01*
X8412Y4798D02*
X8438Y4823D01*
X8489D01*
X8514Y4798D01*
Y4773D01*
X8489Y4747D01*
X8463D01*
X8489D01*
X8514Y4722D01*
Y4696D01*
X8489Y4671D01*
X8438D01*
X8412Y4696D01*
X8547Y6071D02*
Y6223D01*
X8623D01*
X8649Y6198D01*
Y6147D01*
X8623Y6121D01*
X8547D01*
X8801Y6071D02*
X8699D01*
X8801Y6172D01*
Y6198D01*
X8776Y6223D01*
X8725D01*
X8699Y6198D01*
X8252Y7572D02*
Y7724D01*
X8329D01*
X8354Y7699D01*
Y7648D01*
X8329Y7623D01*
X8252D01*
X8405Y7572D02*
X8456D01*
X8430D01*
Y7724D01*
X8405Y7699D01*
X6959Y2428D02*
Y2276D01*
X7035D01*
X7061Y2301D01*
Y2403D01*
X7035Y2428D01*
X6959D01*
X7213Y2276D02*
X7112D01*
X7213Y2377D01*
Y2403D01*
X7188Y2428D01*
X7137D01*
X7112Y2403D01*
X7264D02*
X7289Y2428D01*
X7340D01*
X7365Y2403D01*
Y2301D01*
X7340Y2276D01*
X7289D01*
X7264Y2301D01*
Y2403D01*
X6919Y1163D02*
Y1011D01*
X6995D01*
X7021Y1036D01*
Y1138D01*
X6995Y1163D01*
X6919D01*
X7071Y1011D02*
X7122D01*
X7097D01*
Y1163D01*
X7071Y1138D01*
X7198Y1036D02*
X7224Y1011D01*
X7274D01*
X7300Y1036D01*
Y1138D01*
X7274Y1163D01*
X7224D01*
X7198Y1138D01*
Y1112D01*
X7224Y1087D01*
X7300D01*
X7209Y2052D02*
Y1900D01*
X7285D01*
X7311Y1925D01*
Y2027D01*
X7285Y2052D01*
X7209D01*
X7362Y1900D02*
X7412D01*
X7387D01*
Y2052D01*
X7362Y2027D01*
X7488D02*
X7514Y2052D01*
X7565D01*
X7590Y2027D01*
Y2001D01*
X7565Y1976D01*
X7590Y1951D01*
Y1925D01*
X7565Y1900D01*
X7514D01*
X7488Y1925D01*
Y1951D01*
X7514Y1976D01*
X7488Y2001D01*
Y2027D01*
X7514Y1976D02*
X7565D01*
X824Y4943D02*
Y4790D01*
X900D01*
X925Y4816D01*
Y4917D01*
X900Y4943D01*
X824D01*
X976Y4790D02*
X1027D01*
X1001D01*
Y4943D01*
X976Y4917D01*
X1103Y4943D02*
X1204D01*
Y4917D01*
X1103Y4816D01*
Y4790D01*
X5039Y1697D02*
Y1544D01*
X5116D01*
X5141Y1570D01*
Y1671D01*
X5116Y1697D01*
X5039D01*
X5192Y1544D02*
X5242D01*
X5217D01*
Y1697D01*
X5192Y1671D01*
X5420Y1697D02*
X5369Y1671D01*
X5319Y1620D01*
Y1570D01*
X5344Y1544D01*
X5395D01*
X5420Y1570D01*
Y1595D01*
X5395Y1620D01*
X5319D01*
X810Y4260D02*
Y4107D01*
X886D01*
X912Y4133D01*
Y4234D01*
X886Y4260D01*
X810D01*
X963Y4107D02*
X1013D01*
X988D01*
Y4260D01*
X963Y4234D01*
X1191Y4260D02*
X1090D01*
Y4183D01*
X1140Y4209D01*
X1166D01*
X1191Y4183D01*
Y4133D01*
X1166Y4107D01*
X1115D01*
X1090Y4133D01*
X2141Y1623D02*
Y1471D01*
X2217D01*
X2243Y1496D01*
Y1598D01*
X2217Y1623D01*
X2141D01*
X2294Y1471D02*
X2344D01*
X2319D01*
Y1623D01*
X2294Y1598D01*
X2497Y1471D02*
Y1623D01*
X2421Y1547D01*
X2522D01*
X495Y7368D02*
Y7216D01*
X571D01*
X597Y7242D01*
Y7343D01*
X571Y7368D01*
X495D01*
X648Y7216D02*
X698D01*
X673D01*
Y7368D01*
X648Y7343D01*
X775D02*
X800Y7368D01*
X851D01*
X876Y7343D01*
Y7318D01*
X851Y7292D01*
X825D01*
X851D01*
X876Y7267D01*
Y7242D01*
X851Y7216D01*
X800D01*
X775Y7242D01*
X7033Y4323D02*
Y4171D01*
X7109D01*
X7135Y4196D01*
Y4298D01*
X7109Y4323D01*
X7033D01*
X7186Y4171D02*
X7236D01*
X7211D01*
Y4323D01*
X7186Y4298D01*
X7414Y4171D02*
X7313D01*
X7414Y4272D01*
Y4298D01*
X7389Y4323D01*
X7338D01*
X7313Y4298D01*
X7300Y3658D02*
Y3505D01*
X7376D01*
X7402Y3531D01*
Y3632D01*
X7376Y3658D01*
X7300D01*
X7452Y3505D02*
X7503D01*
X7478D01*
Y3658D01*
X7452Y3632D01*
X7579Y3505D02*
X7630D01*
X7605D01*
Y3658D01*
X7579Y3632D01*
X7407Y6434D02*
Y6281D01*
X7483D01*
X7508Y6307D01*
Y6408D01*
X7483Y6434D01*
X7407D01*
X7559Y6281D02*
X7610D01*
X7584D01*
Y6434D01*
X7559Y6408D01*
X7686D02*
X7711Y6434D01*
X7762D01*
X7788Y6408D01*
Y6307D01*
X7762Y6281D01*
X7711D01*
X7686Y6307D01*
Y6408D01*
X4463Y3538D02*
Y3386D01*
X4539D01*
X4564Y3411D01*
Y3513D01*
X4539Y3538D01*
X4463D01*
X4615Y3411D02*
X4641Y3386D01*
X4691D01*
X4717Y3411D01*
Y3513D01*
X4691Y3538D01*
X4641D01*
X4615Y3513D01*
Y3487D01*
X4641Y3462D01*
X4717D01*
X2365Y3612D02*
Y3459D01*
X2441D01*
X2466Y3485D01*
Y3586D01*
X2441Y3612D01*
X2365D01*
X2619D02*
X2568Y3586D01*
X2517Y3536D01*
Y3485D01*
X2542Y3459D01*
X2593D01*
X2619Y3485D01*
Y3510D01*
X2593Y3536D01*
X2517D01*
X3548Y5415D02*
Y5263D01*
X3625D01*
X3650Y5288D01*
Y5390D01*
X3625Y5415D01*
X3548D01*
X3802D02*
X3701D01*
Y5339D01*
X3751Y5364D01*
X3777D01*
X3802Y5339D01*
Y5288D01*
X3777Y5263D01*
X3726D01*
X3701Y5288D01*
X7110Y7996D02*
Y7843D01*
X7186D01*
X7211Y7869D01*
Y7970D01*
X7186Y7996D01*
X7110D01*
X7338Y7843D02*
Y7996D01*
X7262Y7920D01*
X7364D01*
X8060Y7214D02*
X7908D01*
Y7137D01*
X7933Y7112D01*
X8035D01*
X8060Y7137D01*
Y7214D01*
X8035Y7061D02*
X8060Y7036D01*
Y6985D01*
X8035Y6960D01*
X8009D01*
X7984Y6985D01*
Y7010D01*
Y6985D01*
X7958Y6960D01*
X7933D01*
X7908Y6985D01*
Y7036D01*
X7933Y7061D01*
X4694Y6538D02*
Y6386D01*
X4770D01*
X4795Y6411D01*
Y6513D01*
X4770Y6538D01*
X4694D01*
X4948Y6386D02*
X4846D01*
X4948Y6487D01*
Y6513D01*
X4922Y6538D01*
X4872D01*
X4846Y6513D01*
X2101Y7475D02*
Y7323D01*
X2177D01*
X2202Y7348D01*
Y7450D01*
X2177Y7475D01*
X2101D01*
X2253Y7323D02*
X2304D01*
X2278D01*
Y7475D01*
X2253Y7450D01*
X2725Y2758D02*
X2700Y2784D01*
X2649D01*
X2624Y2758D01*
Y2657D01*
X2649Y2631D01*
X2700D01*
X2725Y2657D01*
X2776Y2631D02*
X2827D01*
X2802D01*
Y2784D01*
X2776Y2758D01*
X3005Y2784D02*
X2903D01*
Y2708D01*
X2954Y2733D01*
X2979D01*
X3005Y2708D01*
Y2657D01*
X2979Y2631D01*
X2929D01*
X2903Y2657D01*
X584Y6774D02*
X559Y6799D01*
X508D01*
X483Y6774D01*
Y6672D01*
X508Y6647D01*
X559D01*
X584Y6672D01*
X635Y6647D02*
X686D01*
X660D01*
Y6799D01*
X635Y6774D01*
X838Y6647D02*
Y6799D01*
X762Y6723D01*
X863D01*
X4133Y2889D02*
X4107Y2914D01*
X4056D01*
X4031Y2889D01*
Y2787D01*
X4056Y2762D01*
X4107D01*
X4133Y2787D01*
X4183Y2762D02*
X4234D01*
X4209D01*
Y2914D01*
X4183Y2889D01*
X4310D02*
X4336Y2914D01*
X4386D01*
X4412Y2889D01*
Y2864D01*
X4386Y2838D01*
X4361D01*
X4386D01*
X4412Y2813D01*
Y2787D01*
X4386Y2762D01*
X4336D01*
X4310Y2787D01*
X1468Y7379D02*
X1443Y7404D01*
X1392D01*
X1367Y7379D01*
Y7277D01*
X1392Y7252D01*
X1443D01*
X1468Y7277D01*
X1519Y7252D02*
X1570D01*
X1544D01*
Y7404D01*
X1519Y7379D01*
X1747Y7252D02*
X1646D01*
X1747Y7353D01*
Y7379D01*
X1722Y7404D01*
X1671D01*
X1646Y7379D01*
X1938Y2146D02*
X1913Y2172D01*
X1862D01*
X1836Y2146D01*
Y2045D01*
X1862Y2019D01*
X1913D01*
X1938Y2045D01*
X1989Y2019D02*
X2040D01*
X2014D01*
Y2172D01*
X1989Y2146D01*
X2116Y2019D02*
X2166D01*
X2141D01*
Y2172D01*
X2116Y2146D01*
X1171Y7683D02*
X1146Y7709D01*
X1095D01*
X1069Y7683D01*
Y7582D01*
X1095Y7557D01*
X1146D01*
X1171Y7582D01*
X1222Y7557D02*
X1272D01*
X1247D01*
Y7709D01*
X1222Y7683D01*
X1349D02*
X1374Y7709D01*
X1425D01*
X1450Y7683D01*
Y7582D01*
X1425Y7557D01*
X1374D01*
X1349Y7582D01*
Y7683D01*
X4305Y4613D02*
X4280Y4638D01*
X4229D01*
X4204Y4613D01*
Y4511D01*
X4229Y4486D01*
X4280D01*
X4305Y4511D01*
X4356D02*
X4381Y4486D01*
X4432D01*
X4458Y4511D01*
Y4613D01*
X4432Y4638D01*
X4381D01*
X4356Y4613D01*
Y4587D01*
X4381Y4562D01*
X4458D01*
X5075Y4488D02*
X5049Y4514D01*
X4999D01*
X4973Y4488D01*
Y4387D01*
X4999Y4361D01*
X5049D01*
X5075Y4387D01*
X5126Y4488D02*
X5151Y4514D01*
X5202D01*
X5227Y4488D01*
Y4463D01*
X5202Y4437D01*
X5227Y4412D01*
Y4387D01*
X5202Y4361D01*
X5151D01*
X5126Y4387D01*
Y4412D01*
X5151Y4437D01*
X5126Y4463D01*
Y4488D01*
X5151Y4437D02*
X5202D01*
X2197Y3922D02*
X2172Y3947D01*
X2121D01*
X2095Y3922D01*
Y3820D01*
X2121Y3795D01*
X2172D01*
X2197Y3820D01*
X2248Y3947D02*
X2349D01*
Y3922D01*
X2248Y3820D01*
Y3795D01*
X3434Y5171D02*
X3409Y5196D01*
X3358D01*
X3332Y5171D01*
Y5069D01*
X3358Y5044D01*
X3409D01*
X3434Y5069D01*
X3586Y5196D02*
X3536Y5171D01*
X3485Y5120D01*
Y5069D01*
X3510Y5044D01*
X3561D01*
X3586Y5069D01*
Y5095D01*
X3561Y5120D01*
X3485D01*
X4422Y5465D02*
X4397Y5490D01*
X4346D01*
X4321Y5465D01*
Y5363D01*
X4346Y5338D01*
X4397D01*
X4422Y5363D01*
X4574Y5490D02*
X4473D01*
Y5414D01*
X4524Y5440D01*
X4549D01*
X4574Y5414D01*
Y5363D01*
X4549Y5338D01*
X4498D01*
X4473Y5363D01*
X4605Y6329D02*
X4580Y6355D01*
X4529D01*
X4503Y6329D01*
Y6228D01*
X4529Y6202D01*
X4580D01*
X4605Y6228D01*
X4732Y6202D02*
Y6355D01*
X4656Y6279D01*
X4757D01*
X3335Y7407D02*
X3310Y7432D01*
X3259D01*
X3233Y7407D01*
Y7305D01*
X3259Y7280D01*
X3310D01*
X3335Y7305D01*
X3386Y7407D02*
X3411Y7432D01*
X3462D01*
X3487Y7407D01*
Y7381D01*
X3462Y7356D01*
X3437D01*
X3462D01*
X3487Y7330D01*
Y7305D01*
X3462Y7280D01*
X3411D01*
X3386Y7305D01*
X4750Y8130D02*
X4724Y8156D01*
X4674D01*
X4648Y8130D01*
Y8029D01*
X4674Y8004D01*
X4724D01*
X4750Y8029D01*
X4902Y8004D02*
X4801D01*
X4902Y8105D01*
Y8130D01*
X4877Y8156D01*
X4826D01*
X4801Y8130D01*
X2149Y8064D02*
X2123Y8090D01*
X2073D01*
X2047Y8064D01*
Y7963D01*
X2073Y7937D01*
X2123D01*
X2149Y7963D01*
X2200Y7937D02*
X2250D01*
X2225D01*
Y8090D01*
X2200Y8064D01*
X366Y5515D02*
Y5668D01*
X442D01*
X467Y5642D01*
Y5591D01*
X442Y5566D01*
X366D01*
X417D02*
X467Y5515D01*
X518Y5642D02*
X543Y5668D01*
X594D01*
X620Y5642D01*
Y5617D01*
X594Y5591D01*
X569D01*
X594D01*
X620Y5566D01*
Y5541D01*
X594Y5515D01*
X543D01*
X518Y5541D01*
X670Y5642D02*
X696Y5668D01*
X747D01*
X772Y5642D01*
Y5541D01*
X747Y5515D01*
X696D01*
X670Y5541D01*
Y5642D01*
X4845Y1875D02*
Y2027D01*
X4922D01*
X4947Y2001D01*
Y1951D01*
X4922Y1925D01*
X4845D01*
X4896D02*
X4947Y1875D01*
X4998Y2001D02*
X5023Y2027D01*
X5074D01*
X5099Y2001D01*
Y1976D01*
X5074Y1951D01*
X5048D01*
X5074D01*
X5099Y1925D01*
Y1900D01*
X5074Y1875D01*
X5023D01*
X4998Y1900D01*
X5150Y1875D02*
X5201D01*
X5175D01*
Y2027D01*
X5150Y2001D01*
X4906Y3851D02*
Y4003D01*
X4982D01*
X5007Y3978D01*
Y3927D01*
X4982Y3901D01*
X4906D01*
X4956D02*
X5007Y3851D01*
X5058D02*
X5109D01*
X5083D01*
Y4003D01*
X5058Y3978D01*
X5185Y3876D02*
X5210Y3851D01*
X5261D01*
X5287Y3876D01*
Y3978D01*
X5261Y4003D01*
X5210D01*
X5185Y3978D01*
Y3952D01*
X5210Y3927D01*
X5287D01*
X4839Y6012D02*
Y6165D01*
X4915D01*
X4940Y6139D01*
Y6088D01*
X4915Y6063D01*
X4839D01*
X4889D02*
X4940Y6012D01*
X4991D02*
X5042D01*
X5016D01*
Y6165D01*
X4991Y6139D01*
X5220Y6165D02*
X5118D01*
Y6088D01*
X5169Y6114D01*
X5194D01*
X5220Y6088D01*
Y6038D01*
X5194Y6012D01*
X5143D01*
X5118Y6038D01*
X4595Y7422D02*
Y7574D01*
X4671D01*
X4696Y7549D01*
Y7498D01*
X4671Y7473D01*
X4595D01*
X4646D02*
X4696Y7422D01*
X4849Y7574D02*
X4747D01*
Y7498D01*
X4798Y7523D01*
X4823D01*
X4849Y7498D01*
Y7447D01*
X4823Y7422D01*
X4773D01*
X4747Y7447D01*
X7412Y5809D02*
Y5657D01*
X7488D01*
X7513Y5682D01*
Y5784D01*
X7488Y5809D01*
X7412D01*
X7564Y5784D02*
X7589Y5809D01*
X7640D01*
X7666Y5784D01*
Y5758D01*
X7640Y5733D01*
X7666Y5707D01*
Y5682D01*
X7640Y5657D01*
X7589D01*
X7564Y5682D01*
Y5707D01*
X7589Y5733D01*
X7564Y5758D01*
Y5784D01*
X7589Y5733D02*
X7640D01*
X7716Y5682D02*
X7742Y5657D01*
X7793D01*
X7818Y5682D01*
Y5784D01*
X7793Y5809D01*
X7742D01*
X7716Y5784D01*
Y5758D01*
X7742Y5733D01*
X7818D01*
X5390Y5430D02*
Y5278D01*
X5466D01*
X5491Y5303D01*
Y5405D01*
X5466Y5430D01*
X5390D01*
X5542D02*
X5644D01*
Y5405D01*
X5542Y5303D01*
Y5278D01*
X8268Y1862D02*
Y2014D01*
X8344D01*
X8369Y1989D01*
Y1938D01*
X8344Y1913D01*
X8268D01*
X8522Y2014D02*
X8420D01*
Y1938D01*
X8471Y1963D01*
X8496D01*
X8522Y1938D01*
Y1887D01*
X8496Y1862D01*
X8445D01*
X8420Y1887D01*
X1172Y8056D02*
Y8209D01*
X1248D01*
X1274Y8183D01*
Y8132D01*
X1248Y8107D01*
X1172D01*
X1426Y8183D02*
X1401Y8209D01*
X1350D01*
X1325Y8183D01*
Y8082D01*
X1350Y8056D01*
X1401D01*
X1426Y8082D01*
X1477Y8132D02*
X1578D01*
X1629Y8056D02*
X1680D01*
X1655D01*
Y8209D01*
X1629Y8183D01*
D37*
X5814Y8073D02*
G03*
X5814Y8073I-12J0D01*
G01*
X911Y6856D02*
G03*
X911Y6856I-12J0D01*
G01*
X5295Y6470D02*
G03*
X5295Y6470I-12J0D01*
G01*
X5912Y7184D02*
G03*
X5912Y7184I-12J0D01*
G01*
X5833Y6287D02*
G03*
X5833Y6287I-12J0D01*
G01*
X8280Y5526D02*
G03*
X8280Y5526I-12J0D01*
G01*
X7892Y5294D02*
G03*
X7892Y5294I-12J0D01*
G01*
X6133Y5490D02*
G03*
X6133Y5490I-12J0D01*
G01*
X5825Y4431D02*
G03*
X5825Y4431I-12J0D01*
G01*
X6146Y3630D02*
G03*
X6146Y3630I-12J0D01*
G01*
X4234Y1172D02*
G03*
X4234Y1172I-12J0D01*
G01*
X2807Y6601D02*
G03*
X2807Y6601I-12J0D01*
G01*
X3824Y7357D02*
G03*
X3824Y7357I-12J0D01*
G01*
X8264Y6999D02*
G03*
X8264Y6999I-12J0D01*
G01*
X4224Y6600D02*
G03*
X4224Y6600I-12J0D01*
G01*
X3184Y5402D02*
G03*
X3184Y5402I-12J0D01*
G01*
X2501Y4806D02*
G03*
X2501Y4806I-12J0D01*
G01*
X3156Y3862D02*
G03*
X3156Y3862I-12J0D01*
G01*
X3937Y3107D02*
G03*
X3937Y3107I-12J0D01*
G01*
X8272Y4098D02*
G03*
X8272Y4098I-12J0D01*
G01*
X1806Y4825D02*
G03*
X1806Y4825I-12J0D01*
G01*
X3239Y3207D02*
G03*
X3239Y3207I-12J0D01*
G01*
X3334Y1889D02*
G03*
X3334Y1889I-12J0D01*
G01*
X687Y5169D02*
G03*
X687Y5169I-12J0D01*
G01*
X3757Y1192D02*
G03*
X3757Y1192I-12J0D01*
G01*
X1652Y5898D02*
G03*
X1652Y5898I-12J0D01*
G01*
X6064Y1797D02*
G03*
X6064Y1797I-12J0D01*
G01*
X474Y2404D02*
G03*
X474Y2404I-12J0D01*
G01*
X8262Y2696D02*
G03*
X8262Y2696I-12J0D01*
G01*
X1832Y6259D02*
G03*
X1832Y6259I-12J0D01*
G01*
X5544Y2594D02*
G03*
X5544Y2594I-12J0D01*
G01*
X545Y3336D02*
G03*
X545Y3336I-12J0D01*
G01*
X2420Y7109D02*
G03*
X2420Y7109I-12J0D01*
G01*
X4074Y4854D02*
G03*
X4074Y4854I-12J0D01*
G01*
X2490Y3358D02*
G03*
X2490Y3358I-12J0D01*
G01*
X4988Y2977D02*
G03*
X4988Y2977I-12J0D01*
G01*
X7825Y3097D02*
G03*
X7825Y3097I-12J0D01*
G01*
X2666Y1062D02*
G03*
X2666Y1062I-12J0D01*
G01*
X1335Y3698D02*
G03*
X1335Y3698I-12J0D01*
G01*
X5164Y1442D02*
G03*
X5164Y1442I-12J0D01*
G01*
X948Y4689D02*
G03*
X948Y4689I-12J0D01*
G01*
X7334Y1798D02*
G03*
X7334Y1798I-12J0D01*
G01*
X7313Y7290D02*
G03*
X7313Y7290I-12J0D01*
G01*
X5403Y4664D02*
G03*
X5403Y4664I-12J0D01*
G01*
X8280Y1289D02*
G03*
X8280Y1289I-12J0D01*
G01*
D38*
X3964Y7560D02*
G03*
X3964Y7560I-30J0D01*
G01*
X3324Y5604D02*
G03*
X3324Y5604I-30J0D01*
G01*
X3296Y4065D02*
G03*
X3296Y4065I-30J0D01*
G01*
X3474Y2091D02*
G03*
X3474Y2091I-30J0D01*
G01*
X827Y5371D02*
G03*
X827Y5371I-30J0D01*
G01*
D39*
X6081Y8036D02*
X6196D01*
X6081Y7382D02*
Y8036D01*
Y7382D02*
X6196D01*
X483Y6916D02*
X914D01*
X483Y7176D02*
X914D01*
Y7171D02*
Y7176D01*
Y6916D02*
Y6921D01*
X483Y7171D02*
Y7176D01*
Y6916D02*
Y6921D01*
X275Y7455D02*
Y7475D01*
X400Y7455D02*
Y7475D01*
X765Y7763D02*
X865D01*
X765Y7903D02*
X865D01*
X4868Y6530D02*
X5298D01*
X4868Y6790D02*
X5298D01*
Y6785D02*
Y6790D01*
Y6530D02*
Y6535D01*
X4868Y6785D02*
Y6790D01*
Y6530D02*
Y6535D01*
X6180Y7147D02*
X6295D01*
X6180Y6493D02*
Y7147D01*
Y6493D02*
X6295D01*
X6101Y6250D02*
X6215D01*
X6101Y5596D02*
Y6250D01*
Y5596D02*
X6215D01*
X8522Y5761D02*
X8902D01*
Y5415D02*
Y5761D01*
X8522Y5415D02*
X8902D01*
X8522D02*
Y5761D01*
X7378Y6100D02*
X7898D01*
X7378Y5828D02*
Y6100D01*
Y5828D02*
X7898D01*
Y6100D01*
X7464Y5354D02*
X7894D01*
X7464Y5614D02*
X7894D01*
Y5609D02*
Y5614D01*
Y5354D02*
Y5359D01*
X7464Y5609D02*
Y5614D01*
Y5354D02*
Y5359D01*
X6401Y5453D02*
X6516D01*
X6401Y4799D02*
Y5453D01*
Y4799D02*
X6516D01*
X6093Y4394D02*
X6208D01*
X6093Y3740D02*
Y4394D01*
Y3740D02*
X6208D01*
X6414Y3593D02*
X6528D01*
X6414Y2939D02*
Y3593D01*
Y2939D02*
X6528D01*
X2359Y1794D02*
Y1894D01*
X2219Y1794D02*
Y1894D01*
X4266Y1255D02*
Y1337D01*
X4332D01*
X4558Y1255D02*
Y1337D01*
X4492D02*
X4558D01*
X2839Y6684D02*
Y6766D01*
X2905D01*
X3130Y6684D02*
Y6766D01*
X3065D02*
X3130D01*
X3613Y7788D02*
Y7888D01*
X3473Y7788D02*
Y7888D01*
X2696Y7789D02*
X2796D01*
X2696Y7929D02*
X2796D01*
X3095Y7349D02*
X3195D01*
X3095Y7489D02*
X3195D01*
X4253Y5774D02*
Y5874D01*
X4113Y5774D02*
Y5874D01*
X2261Y5234D02*
X2361D01*
X2261Y5374D02*
X2361D01*
X1876Y5574D02*
Y5674D01*
X2016Y5574D02*
Y5674D01*
X3986Y3537D02*
X4086D01*
X3986Y3677D02*
X4086D01*
X1190Y6265D02*
X1290D01*
X1190Y6405D02*
X1290D01*
X4212Y1741D02*
X4312D01*
X4212Y1881D02*
X4312D01*
X1495Y5116D02*
Y5216D01*
X1355Y5116D02*
Y5216D01*
X2104Y2262D02*
X2204D01*
X2104Y2402D02*
X2204D01*
X2224Y4108D02*
Y4208D01*
X2084Y4108D02*
Y4208D01*
X2183Y3216D02*
Y3316D01*
X2043Y3216D02*
Y3316D01*
X4334Y7460D02*
Y7780D01*
X3834Y7460D02*
Y7780D01*
X4334D01*
X3834Y7460D02*
X4334D01*
X8507Y7234D02*
X8887D01*
Y6889D02*
Y7234D01*
X8507Y6889D02*
X8887D01*
X8507D02*
Y7234D01*
X7371Y7484D02*
X7891D01*
Y7756D01*
X7371D02*
X7891D01*
X7371Y7484D02*
Y7756D01*
X4256Y6683D02*
Y6765D01*
X4322D01*
X4548Y6683D02*
Y6765D01*
X4482D02*
X4548D01*
X3694Y5504D02*
Y5824D01*
X3194Y5504D02*
Y5824D01*
X3694D01*
X3194Y5504D02*
X3694D01*
X2532Y4889D02*
Y4971D01*
X2598D01*
X2824Y4889D02*
Y4971D01*
X2758D02*
X2824D01*
X3666Y3965D02*
Y4285D01*
X3166Y3965D02*
Y4285D01*
X3666D01*
X3166Y3965D02*
X3666D01*
X3479Y4710D02*
Y4820D01*
X3329Y4710D02*
Y4820D01*
X3969Y3191D02*
Y3272D01*
X4035D01*
X4261Y3191D02*
Y3272D01*
X4195D02*
X4261D01*
X4350Y4152D02*
Y4262D01*
X4200Y4152D02*
Y4262D01*
X8514Y4333D02*
X8894D01*
Y3988D02*
Y4333D01*
X8514Y3988D02*
X8894D01*
X8514D02*
Y4333D01*
X1838Y4909D02*
Y4990D01*
X1904D01*
X2130Y4909D02*
Y4990D01*
X2064D02*
X2130D01*
X7294Y4083D02*
X7814D01*
X7294Y3811D02*
Y4083D01*
Y3811D02*
X7814D01*
Y4083D01*
X3270Y3291D02*
Y3372D01*
X3336D01*
X3562Y3291D02*
Y3372D01*
X3496D02*
X3562D01*
X3844Y1991D02*
Y2311D01*
X3344Y1991D02*
Y2311D01*
X3844D01*
X3344Y1991D02*
X3844D01*
X1197Y5271D02*
Y5591D01*
X697Y5271D02*
Y5591D01*
X1197D01*
X697Y5271D02*
X1197D01*
X3788Y1275D02*
Y1357D01*
X3854D01*
X4080Y1275D02*
Y1357D01*
X4014D02*
X4080D01*
X1595Y5733D02*
Y5814D01*
X1529Y5733D02*
X1595D01*
X1303D02*
Y5814D01*
Y5733D02*
X1369D01*
X2620Y2297D02*
Y2407D01*
X2770Y2297D02*
Y2407D01*
X629Y6312D02*
Y6422D01*
X479Y6312D02*
Y6422D01*
X6332Y1760D02*
X6446D01*
X6332Y1106D02*
Y1760D01*
Y1106D02*
X6446D01*
X741Y2367D02*
X856D01*
X741Y1713D02*
Y2367D01*
Y1713D02*
X856D01*
X8504Y2931D02*
X8884D01*
Y2586D02*
Y2931D01*
X8504Y2586D02*
X8884D01*
X8504D02*
Y2931D01*
X7220Y1916D02*
X7740D01*
Y2188D01*
X7220D02*
X7740D01*
X7220Y1916D02*
Y2188D01*
X7180Y923D02*
X7700D01*
X7180Y651D02*
Y923D01*
Y651D02*
X7700D01*
Y923D01*
X1655Y6303D02*
X1736D01*
X1655D02*
Y6369D01*
Y6595D02*
X1736D01*
X1655Y6529D02*
Y6595D01*
X5812Y2557D02*
X5926D01*
X5812Y1903D02*
Y2557D01*
Y1903D02*
X5926D01*
X812Y3299D02*
X927D01*
X812Y2645D02*
Y3299D01*
Y2645D02*
X927D01*
X2348Y6694D02*
Y7124D01*
X2087Y6694D02*
Y7124D01*
X2092D01*
X2342D02*
X2348D01*
X2087Y6694D02*
X2092D01*
X2342D02*
X2348D01*
X3646Y4914D02*
X4076D01*
X3646Y5175D02*
X4076D01*
Y5169D02*
Y5175D01*
Y4914D02*
Y4919D01*
X3646Y5169D02*
Y5175D01*
Y4914D02*
Y4919D01*
X2462Y3298D02*
X2892D01*
X2462Y3037D02*
X2892D01*
X2462D02*
Y3042D01*
Y3292D02*
Y3298D01*
X2892Y3037D02*
Y3042D01*
Y3292D02*
Y3298D01*
X4560Y3037D02*
X4990D01*
X4560Y3298D02*
X4990D01*
Y3292D02*
Y3298D01*
Y3037D02*
Y3042D01*
X4560Y3292D02*
Y3298D01*
Y3037D02*
Y3042D01*
X7397Y3157D02*
X7827D01*
X7397Y3417D02*
X7827D01*
Y3412D02*
Y3417D01*
Y3157D02*
Y3162D01*
X7397Y3412D02*
Y3417D01*
Y3157D02*
Y3162D01*
X2239Y1122D02*
X2669D01*
X2239Y1382D02*
X2669D01*
Y1377D02*
Y1382D01*
Y1122D02*
Y1127D01*
X2239Y1377D02*
Y1382D01*
Y1122D02*
Y1127D01*
X908Y3758D02*
X1338D01*
X908Y4019D02*
X1338D01*
Y4014D02*
Y4019D01*
Y3758D02*
Y3764D01*
X908Y4014D02*
Y4019D01*
Y3758D02*
Y3764D01*
X5137Y1382D02*
X5567D01*
X5137Y1122D02*
X5567D01*
X5137D02*
Y1127D01*
Y1377D02*
Y1382D01*
X5567Y1122D02*
Y1127D01*
Y1377D02*
Y1382D01*
X920Y4629D02*
X1350D01*
X920Y4368D02*
X1350D01*
X920D02*
Y4373D01*
Y4623D02*
Y4629D01*
X1350Y4368D02*
Y4373D01*
Y4623D02*
Y4629D01*
X7307Y1738D02*
X7737D01*
X7307Y1478D02*
X7737D01*
X7307D02*
Y1483D01*
Y1733D02*
Y1738D01*
X7737Y1478D02*
Y1483D01*
Y1733D02*
Y1738D01*
X2704Y7110D02*
Y7210D01*
X2544Y7110D02*
Y7210D01*
X5396Y7245D02*
Y7345D01*
X5236Y7245D02*
Y7345D01*
X2864Y5734D02*
Y5834D01*
X2704Y5734D02*
Y5834D01*
X2777Y4037D02*
Y4137D01*
X2617Y4037D02*
Y4137D01*
X4942Y4954D02*
Y5054D01*
X4782Y4954D02*
Y5054D01*
X5477Y3367D02*
X5577D01*
X5477Y3207D02*
X5577D01*
X1901Y3816D02*
Y3916D01*
X1741Y3816D02*
Y3916D01*
X3143Y1292D02*
X3243D01*
X3143Y1132D02*
X3243D01*
X575Y4171D02*
Y4271D01*
X415Y4171D02*
Y4271D01*
X4690Y2170D02*
X4790D01*
X4690Y2010D02*
X4790D01*
X7286Y7230D02*
X7716D01*
X7286Y6969D02*
X7716D01*
X7286D02*
Y6974D01*
Y7224D02*
Y7230D01*
X7716Y6969D02*
Y6974D01*
Y7224D02*
Y7230D01*
X3781Y6830D02*
Y6850D01*
X3906Y6830D02*
Y6850D01*
X2394Y5781D02*
Y5801D01*
X2269Y5781D02*
Y5801D01*
X4718Y3836D02*
Y3856D01*
X4593Y3836D02*
Y3856D01*
X2976Y1841D02*
Y1861D01*
X2851Y1841D02*
Y1861D01*
X4773Y7156D02*
X4793D01*
X4773Y7281D02*
X4793D01*
X5003Y5713D02*
Y5733D01*
X4878Y5713D02*
Y5733D01*
X5084Y3585D02*
X5104D01*
X5084Y3710D02*
X5104D01*
X530Y5217D02*
Y5237D01*
X405Y5217D02*
Y5237D01*
X5023Y1609D02*
X5043D01*
X5023Y1734D02*
X5043D01*
X3380Y6945D02*
Y7055D01*
X3230Y6945D02*
Y7055D01*
X5450Y4649D02*
Y5079D01*
X5711Y4649D02*
Y5079D01*
X5705Y4649D02*
X5711D01*
X5450D02*
X5455D01*
X5705Y5079D02*
X5711D01*
X5450D02*
X5455D01*
X8522Y1524D02*
X8902D01*
Y1179D02*
Y1524D01*
X8522Y1179D02*
X8902D01*
X8522D02*
Y1524D01*
D40*
X682Y7115D02*
D03*
X7662Y5553D02*
D03*
X3845Y5114D02*
D03*
X7517Y7030D02*
D03*
D41*
X686Y6979D02*
D03*
X7666Y5416D02*
D03*
X3849Y4977D02*
D03*
X2690Y3235D02*
D03*
X4762Y3100D02*
D03*
X7600Y3219D02*
D03*
X2441Y1185D02*
D03*
X1110Y3821D02*
D03*
X5365Y1320D02*
D03*
X1148Y4566D02*
D03*
X7534Y1675D02*
D03*
D42*
X724Y7048D02*
D03*
X7704Y5486D02*
D03*
X3887Y5046D02*
D03*
X2652Y3166D02*
D03*
X4800Y3169D02*
D03*
X7638Y3289D02*
D03*
X2479Y1254D02*
D03*
X1148Y3890D02*
D03*
X5327Y1250D02*
D03*
X1110Y4497D02*
D03*
X7496Y1606D02*
D03*
X7475Y7098D02*
D03*
D43*
X5066Y6729D02*
D03*
X2694Y3098D02*
D03*
X4758Y3237D02*
D03*
X7596Y3356D02*
D03*
X2437Y1321D02*
D03*
X1106Y3958D02*
D03*
X5368Y1183D02*
D03*
X1152Y4429D02*
D03*
X7538Y1539D02*
D03*
D44*
X5070Y6592D02*
D03*
D45*
X5108Y6662D02*
D03*
D46*
X7850Y5964D02*
D03*
X7418Y7620D02*
D03*
X7767Y3947D02*
D03*
X7652Y788D02*
D03*
D47*
X7267Y2052D02*
D03*
D48*
X2148Y6892D02*
D03*
D49*
X2285Y6896D02*
D03*
X5513Y4877D02*
D03*
D50*
X2216Y6934D02*
D03*
X5582Y4839D02*
D03*
D51*
X7513Y7167D02*
D03*
D52*
X5650Y4881D02*
D03*
M02*
