G04 Layer_Color=16711935*
%FSLAX42Y42*%
%MOMM*%
G71*
G01*
G75*
%ADD72C,1.85*%
%ADD73C,2.20*%
%ADD74C,1.83*%
%ADD75C,5.20*%
%ADD76C,1.47*%
%ADD77C,1.70*%
D72*
X7188Y5964D02*
D03*
X8088D02*
D03*
X8081Y7620D02*
D03*
X7181D02*
D03*
X7104Y3947D02*
D03*
X8004D02*
D03*
X7930Y2052D02*
D03*
X7030D02*
D03*
X6990Y787D02*
D03*
X7890D02*
D03*
D73*
X1171Y391D02*
D03*
X1521D02*
D03*
D74*
X3926Y8338D02*
D03*
Y8592D02*
D03*
X7736Y8846D02*
D03*
Y9100D02*
D03*
Y8338D02*
D03*
Y8592D02*
D03*
X7482Y8846D02*
D03*
Y9100D02*
D03*
Y8338D02*
D03*
Y8592D02*
D03*
X7228Y8846D02*
D03*
Y9100D02*
D03*
Y8338D02*
D03*
Y8592D02*
D03*
X6974Y8846D02*
D03*
Y9100D02*
D03*
Y8338D02*
D03*
Y8592D02*
D03*
X6720Y8846D02*
D03*
Y9100D02*
D03*
Y8338D02*
D03*
Y8592D02*
D03*
X6466Y8846D02*
D03*
Y9100D02*
D03*
Y8338D02*
D03*
Y8592D02*
D03*
X6212Y8846D02*
D03*
Y9100D02*
D03*
Y8338D02*
D03*
Y8592D02*
D03*
X5958Y8846D02*
D03*
Y9100D02*
D03*
Y8338D02*
D03*
Y8592D02*
D03*
X5704Y8846D02*
D03*
Y9100D02*
D03*
Y8338D02*
D03*
Y8592D02*
D03*
X5450Y8846D02*
D03*
Y9100D02*
D03*
Y8338D02*
D03*
Y8592D02*
D03*
X5196Y8846D02*
D03*
Y9100D02*
D03*
Y8338D02*
D03*
Y8592D02*
D03*
X4942Y8846D02*
D03*
Y9100D02*
D03*
Y8338D02*
D03*
Y8592D02*
D03*
X4688Y8846D02*
D03*
Y9100D02*
D03*
Y8338D02*
D03*
Y8592D02*
D03*
X4434Y8846D02*
D03*
Y9100D02*
D03*
Y8338D02*
D03*
Y8592D02*
D03*
X4180Y8846D02*
D03*
Y9100D02*
D03*
Y8338D02*
D03*
Y8592D02*
D03*
X3926Y8846D02*
D03*
Y9100D02*
D03*
X3672Y8338D02*
D03*
Y8592D02*
D03*
Y8846D02*
D03*
Y9100D02*
D03*
X3418Y8338D02*
D03*
Y8592D02*
D03*
Y8846D02*
D03*
Y9100D02*
D03*
X3164Y8338D02*
D03*
Y8592D02*
D03*
Y8846D02*
D03*
Y9100D02*
D03*
X2910Y8338D02*
D03*
Y8592D02*
D03*
Y8846D02*
D03*
Y9100D02*
D03*
X2656Y8338D02*
D03*
Y8592D02*
D03*
Y8846D02*
D03*
Y9100D02*
D03*
X2402Y8338D02*
D03*
Y8592D02*
D03*
Y8846D02*
D03*
Y9100D02*
D03*
X2148Y8338D02*
D03*
Y8592D02*
D03*
Y8846D02*
D03*
Y9100D02*
D03*
X1894Y8338D02*
D03*
Y8592D02*
D03*
Y8846D02*
D03*
Y9100D02*
D03*
X1640Y8338D02*
D03*
Y8592D02*
D03*
Y8846D02*
D03*
Y9100D02*
D03*
X1386Y8338D02*
D03*
Y8592D02*
D03*
Y8846D02*
D03*
Y9100D02*
D03*
D75*
X8246Y9082D02*
D03*
X8498Y514D02*
D03*
X496Y512D02*
D03*
X876Y9082D02*
D03*
D76*
X5464Y7628D02*
D03*
X5946Y7417D02*
D03*
X4729Y6921D02*
D03*
X5433Y8004D02*
D03*
X5573Y1158D02*
D03*
X1882Y6586D02*
D03*
X1260Y2659D02*
D03*
X1745Y2532D02*
D03*
X605Y2858D02*
D03*
X472Y3307D02*
D03*
X724Y5085D02*
D03*
X5004Y2878D02*
D03*
X4133Y3556D02*
D03*
X2156Y4069D02*
D03*
X3015Y5789D02*
D03*
X1943Y5705D02*
D03*
X1148Y7046D02*
D03*
X1458Y6561D02*
D03*
X4595Y2662D02*
D03*
X1984Y4686D02*
D03*
X2365Y6053D02*
D03*
X2149Y6264D02*
D03*
X4542D02*
D03*
X3503Y5222D02*
D03*
X5588Y6096D02*
D03*
X4575Y3360D02*
D03*
X1369Y3713D02*
D03*
X4343Y3167D02*
D03*
X792Y5431D02*
D03*
X3686Y5697D02*
D03*
X4437Y4796D02*
D03*
X2131Y1227D02*
D03*
X5400Y1928D02*
D03*
X3345Y1839D02*
D03*
X2761Y2164D02*
D03*
X2830Y4816D02*
D03*
X3510Y4961D02*
D03*
X5723Y5784D02*
D03*
X5004Y7795D02*
D03*
X3863Y7313D02*
D03*
X4562Y6604D02*
D03*
X3124Y6546D02*
D03*
X490Y6553D02*
D03*
X5687Y3907D02*
D03*
X5116Y4221D02*
D03*
X4227Y4417D02*
D03*
X3175Y3851D02*
D03*
X3200Y3117D02*
D03*
X3592Y3203D02*
D03*
X2995Y3241D02*
D03*
X2271Y6609D02*
D03*
X1438Y7127D02*
D03*
X4351Y5192D02*
D03*
X3386Y7140D02*
D03*
X1633Y6170D02*
D03*
X1308Y5933D02*
D03*
X4178Y3058D02*
D03*
X2139Y4836D02*
D03*
X3203Y5357D02*
D03*
X4209Y2355D02*
D03*
X3340Y7412D02*
D03*
X4084Y7071D02*
D03*
X2845Y7315D02*
D03*
X3774Y7742D02*
D03*
X5296Y5710D02*
D03*
X5773Y5448D02*
D03*
X5215Y4590D02*
D03*
X5098Y4849D02*
D03*
X5905Y4851D02*
D03*
X6253Y3114D02*
D03*
X4892Y4442D02*
D03*
X2452Y4107D02*
D03*
X465Y2014D02*
D03*
X297Y3642D02*
D03*
X2095Y7978D02*
D03*
X439Y6924D02*
D03*
X3950Y6472D02*
D03*
X5100Y5156D02*
D03*
X1349Y6233D02*
D03*
X4094Y1199D02*
D03*
X4559Y1168D02*
D03*
X2885Y8095D02*
D03*
D77*
X3399Y5832D02*
D03*
X3500Y6510D02*
D03*
X1844Y4094D02*
D03*
X1176Y5085D02*
D03*
X2941Y5413D02*
D03*
M02*
