G04 Layer_Color=8388736*
%FSLAX42Y42*%
%MOMM*%
G71*
G01*
G75*
%ADD53R,3.20X1.80*%
%ADD54R,6.40X6.00*%
%ADD55R,1.70X1.60*%
%ADD56R,0.92X0.96*%
%ADD57R,2.70X1.90*%
%ADD58R,1.65X1.40*%
%ADD59R,1.05X1.80*%
%ADD60R,3.20X2.30*%
%ADD61R,1.80X1.00*%
%ADD62R,1.80X1.05*%
%ADD63R,1.00X1.10*%
G04:AMPARAMS|DCode=64|XSize=0.75mm|YSize=1.45mm|CornerRadius=0.15mm|HoleSize=0mm|Usage=FLASHONLY|Rotation=180.000|XOffset=0mm|YOffset=0mm|HoleType=Round|Shape=RoundedRectangle|*
%AMROUNDEDRECTD64*
21,1,0.75,1.15,0,0,180.0*
21,1,0.45,1.45,0,0,180.0*
1,1,0.30,-0.23,0.58*
1,1,0.30,0.23,0.58*
1,1,0.30,0.23,-0.58*
1,1,0.30,-0.23,-0.58*
%
%ADD64ROUNDEDRECTD64*%
%ADD65R,1.60X1.70*%
%ADD66R,1.90X1.15*%
%ADD67R,1.10X1.00*%
%ADD68R,1.90X2.70*%
%ADD69R,2.00X1.45*%
%ADD70R,1.45X2.00*%
%ADD71R,1.40X1.65*%
%ADD72C,1.85*%
%ADD73C,2.20*%
%ADD74C,1.83*%
%ADD75C,5.20*%
%ADD76C,1.47*%
%ADD77C,1.70*%
D53*
X5801Y7938D02*
D03*
Y7480D02*
D03*
X5900Y7049D02*
D03*
Y6591D02*
D03*
X5821Y6152D02*
D03*
Y5694D02*
D03*
X6121Y5355D02*
D03*
Y4897D02*
D03*
X5813Y4296D02*
D03*
Y3838D02*
D03*
X6134Y3495D02*
D03*
Y3037D02*
D03*
X6052Y1662D02*
D03*
Y1204D02*
D03*
X461Y2269D02*
D03*
Y1811D02*
D03*
X5532Y2459D02*
D03*
Y2001D02*
D03*
X532Y3201D02*
D03*
Y2743D02*
D03*
D54*
X6521Y7709D02*
D03*
X6620Y6820D02*
D03*
X6540Y5923D02*
D03*
X6841Y5126D02*
D03*
X6533Y4067D02*
D03*
X6854Y3266D02*
D03*
X6772Y1433D02*
D03*
X1181Y2040D02*
D03*
X6252Y2230D02*
D03*
X1252Y2972D02*
D03*
D55*
X1514Y6886D02*
D03*
Y7076D02*
D03*
X4422Y4949D02*
D03*
Y5139D02*
D03*
X5075Y3972D02*
D03*
Y4162D02*
D03*
X4133Y2562D02*
D03*
Y2372D02*
D03*
D56*
X1135Y7470D02*
D03*
Y7372D02*
D03*
X2134Y3723D02*
D03*
Y3625D02*
D03*
X2085Y7797D02*
D03*
Y7699D02*
D03*
X4542Y6062D02*
D03*
Y5964D02*
D03*
X1875Y1880D02*
D03*
Y1782D02*
D03*
D57*
X499Y7046D02*
D03*
X898D02*
D03*
X4883Y6660D02*
D03*
X5283D02*
D03*
X7479Y5484D02*
D03*
X7879D02*
D03*
X3661Y5044D02*
D03*
X4061D02*
D03*
X2877Y3167D02*
D03*
X2477D02*
D03*
X4575D02*
D03*
X4975D02*
D03*
X7412Y3287D02*
D03*
X7812D02*
D03*
X2254Y1252D02*
D03*
X2654D02*
D03*
X923Y3889D02*
D03*
X1323D02*
D03*
X5552Y1252D02*
D03*
X5152D02*
D03*
X1335Y4498D02*
D03*
X935D02*
D03*
X7722Y1608D02*
D03*
X7322D02*
D03*
X7701Y7099D02*
D03*
X7301D02*
D03*
D58*
X338Y7365D02*
D03*
Y7565D02*
D03*
X3843Y6740D02*
D03*
Y6940D02*
D03*
X2332Y5891D02*
D03*
Y5691D02*
D03*
X4656Y3946D02*
D03*
Y3746D02*
D03*
X2913Y1951D02*
D03*
Y1751D02*
D03*
X4940Y5823D02*
D03*
Y5623D02*
D03*
X467Y5327D02*
D03*
Y5127D02*
D03*
D59*
X948Y7833D02*
D03*
X683D02*
D03*
X2878Y7859D02*
D03*
X2613D02*
D03*
X3277Y7419D02*
D03*
X3012D02*
D03*
X2443Y5304D02*
D03*
X2178D02*
D03*
X4169Y3607D02*
D03*
X3904D02*
D03*
X1372Y6335D02*
D03*
X1107D02*
D03*
X4394Y1811D02*
D03*
X4129D02*
D03*
X2286Y2332D02*
D03*
X2021D02*
D03*
D60*
X8692Y5906D02*
D03*
Y5271D02*
D03*
X8677Y7379D02*
D03*
Y6744D02*
D03*
X8684Y4478D02*
D03*
Y3843D02*
D03*
X8674Y3076D02*
D03*
Y2441D02*
D03*
X8692Y1669D02*
D03*
Y1034D02*
D03*
D61*
X8402Y5650D02*
D03*
Y5526D02*
D03*
X8387Y7124D02*
D03*
Y6999D02*
D03*
X8394Y4223D02*
D03*
Y4098D02*
D03*
X8384Y2821D02*
D03*
Y2696D02*
D03*
X8402Y1414D02*
D03*
Y1289D02*
D03*
D62*
X2289Y1977D02*
D03*
Y1712D02*
D03*
X3543Y7971D02*
D03*
Y7706D02*
D03*
X4183Y5957D02*
D03*
Y5692D02*
D03*
X1946Y5491D02*
D03*
Y5756D02*
D03*
X1425Y5299D02*
D03*
Y5034D02*
D03*
X2154Y4291D02*
D03*
Y4026D02*
D03*
X2113Y3399D02*
D03*
Y3134D02*
D03*
D63*
X4317Y1172D02*
D03*
X4507D02*
D03*
X4412Y1372D02*
D03*
X2889Y6601D02*
D03*
X3080D02*
D03*
X2984Y6801D02*
D03*
X4307Y6600D02*
D03*
X4497D02*
D03*
X4402Y6800D02*
D03*
X2583Y4806D02*
D03*
X2773D02*
D03*
X2678Y5006D02*
D03*
X4020Y3107D02*
D03*
X4210D02*
D03*
X4115Y3307D02*
D03*
X1889Y4825D02*
D03*
X2079D02*
D03*
X1984Y5025D02*
D03*
X3321Y3207D02*
D03*
X3511D02*
D03*
X3416Y3407D02*
D03*
X3839Y1192D02*
D03*
X4029D02*
D03*
X3934Y1392D02*
D03*
X1544Y5898D02*
D03*
X1354D02*
D03*
X1449Y5698D02*
D03*
D64*
X4275Y7882D02*
D03*
X4148D02*
D03*
X4021D02*
D03*
X3894D02*
D03*
X4275Y7358D02*
D03*
X4148D02*
D03*
X4021D02*
D03*
X3894D02*
D03*
X3635Y5927D02*
D03*
X3508D02*
D03*
X3381D02*
D03*
X3254D02*
D03*
X3635Y5402D02*
D03*
X3508D02*
D03*
X3381D02*
D03*
X3254D02*
D03*
X3607Y4387D02*
D03*
X3480D02*
D03*
X3353D02*
D03*
X3226D02*
D03*
X3607Y3862D02*
D03*
X3480D02*
D03*
X3353D02*
D03*
X3226D02*
D03*
X3785Y2414D02*
D03*
X3658D02*
D03*
X3531D02*
D03*
X3404D02*
D03*
X3785Y1889D02*
D03*
X3658D02*
D03*
X3531D02*
D03*
X3404D02*
D03*
X1138Y5694D02*
D03*
X1011D02*
D03*
X884D02*
D03*
X757D02*
D03*
X1138Y5169D02*
D03*
X1011D02*
D03*
X884D02*
D03*
X757D02*
D03*
D65*
X4746Y7800D02*
D03*
X4936D02*
D03*
D66*
X3404Y4905D02*
D03*
Y4625D02*
D03*
X4275Y4347D02*
D03*
Y4067D02*
D03*
X2695Y2212D02*
D03*
Y2492D02*
D03*
X554Y6507D02*
D03*
Y6227D02*
D03*
X3305Y7140D02*
D03*
Y6860D02*
D03*
D67*
X1820Y6354D02*
D03*
Y6544D02*
D03*
X1620Y6449D02*
D03*
D68*
X2217Y6709D02*
D03*
Y7109D02*
D03*
X5580Y5064D02*
D03*
Y4664D02*
D03*
D69*
X2624Y7313D02*
D03*
Y7008D02*
D03*
X5316Y7447D02*
D03*
Y7142D02*
D03*
X2784Y5936D02*
D03*
Y5631D02*
D03*
X2697Y4239D02*
D03*
Y3934D02*
D03*
X4862Y5156D02*
D03*
Y4851D02*
D03*
X1821Y4018D02*
D03*
Y3713D02*
D03*
X495Y4374D02*
D03*
Y4069D02*
D03*
D70*
X5375Y3287D02*
D03*
X5680D02*
D03*
X3040Y1212D02*
D03*
X3345D02*
D03*
X4587Y2090D02*
D03*
X4892D02*
D03*
D71*
X4883Y7219D02*
D03*
X4683D02*
D03*
X5194Y3647D02*
D03*
X4994D02*
D03*
X5133Y1671D02*
D03*
X4933D02*
D03*
D72*
X7188Y5964D02*
D03*
X8088D02*
D03*
X8081Y7620D02*
D03*
X7181D02*
D03*
X7104Y3947D02*
D03*
X8004D02*
D03*
X7930Y2052D02*
D03*
X7030D02*
D03*
X6990Y787D02*
D03*
X7890D02*
D03*
D73*
X1171Y391D02*
D03*
X1521D02*
D03*
D74*
X3926Y8338D02*
D03*
Y8592D02*
D03*
X7736Y8846D02*
D03*
Y9100D02*
D03*
Y8338D02*
D03*
Y8592D02*
D03*
X7482Y8846D02*
D03*
Y9100D02*
D03*
Y8338D02*
D03*
Y8592D02*
D03*
X7228Y8846D02*
D03*
Y9100D02*
D03*
Y8338D02*
D03*
Y8592D02*
D03*
X6974Y8846D02*
D03*
Y9100D02*
D03*
Y8338D02*
D03*
Y8592D02*
D03*
X6720Y8846D02*
D03*
Y9100D02*
D03*
Y8338D02*
D03*
Y8592D02*
D03*
X6466Y8846D02*
D03*
Y9100D02*
D03*
Y8338D02*
D03*
Y8592D02*
D03*
X6212Y8846D02*
D03*
Y9100D02*
D03*
Y8338D02*
D03*
Y8592D02*
D03*
X5958Y8846D02*
D03*
Y9100D02*
D03*
Y8338D02*
D03*
Y8592D02*
D03*
X5704Y8846D02*
D03*
Y9100D02*
D03*
Y8338D02*
D03*
Y8592D02*
D03*
X5450Y8846D02*
D03*
Y9100D02*
D03*
Y8338D02*
D03*
Y8592D02*
D03*
X5196Y8846D02*
D03*
Y9100D02*
D03*
Y8338D02*
D03*
Y8592D02*
D03*
X4942Y8846D02*
D03*
Y9100D02*
D03*
Y8338D02*
D03*
Y8592D02*
D03*
X4688Y8846D02*
D03*
Y9100D02*
D03*
Y8338D02*
D03*
Y8592D02*
D03*
X4434Y8846D02*
D03*
Y9100D02*
D03*
Y8338D02*
D03*
Y8592D02*
D03*
X4180Y8846D02*
D03*
Y9100D02*
D03*
Y8338D02*
D03*
Y8592D02*
D03*
X3926Y8846D02*
D03*
Y9100D02*
D03*
X3672Y8338D02*
D03*
Y8592D02*
D03*
Y8846D02*
D03*
Y9100D02*
D03*
X3418Y8338D02*
D03*
Y8592D02*
D03*
Y8846D02*
D03*
Y9100D02*
D03*
X3164Y8338D02*
D03*
Y8592D02*
D03*
Y8846D02*
D03*
Y9100D02*
D03*
X2910Y8338D02*
D03*
Y8592D02*
D03*
Y8846D02*
D03*
Y9100D02*
D03*
X2656Y8338D02*
D03*
Y8592D02*
D03*
Y8846D02*
D03*
Y9100D02*
D03*
X2402Y8338D02*
D03*
Y8592D02*
D03*
Y8846D02*
D03*
Y9100D02*
D03*
X2148Y8338D02*
D03*
Y8592D02*
D03*
Y8846D02*
D03*
Y9100D02*
D03*
X1894Y8338D02*
D03*
Y8592D02*
D03*
Y8846D02*
D03*
Y9100D02*
D03*
X1640Y8338D02*
D03*
Y8592D02*
D03*
Y8846D02*
D03*
Y9100D02*
D03*
X1386Y8338D02*
D03*
Y8592D02*
D03*
Y8846D02*
D03*
Y9100D02*
D03*
D75*
X8246Y9082D02*
D03*
X8498Y514D02*
D03*
X496Y512D02*
D03*
X876Y9082D02*
D03*
D76*
X5464Y7628D02*
D03*
X5946Y7417D02*
D03*
X4729Y6921D02*
D03*
X5433Y8004D02*
D03*
X5573Y1158D02*
D03*
X1882Y6586D02*
D03*
X1260Y2659D02*
D03*
X1745Y2532D02*
D03*
X605Y2858D02*
D03*
X472Y3307D02*
D03*
X724Y5085D02*
D03*
X5004Y2878D02*
D03*
X4133Y3556D02*
D03*
X2156Y4069D02*
D03*
X3015Y5789D02*
D03*
X1943Y5705D02*
D03*
X1148Y7046D02*
D03*
X1458Y6561D02*
D03*
X4595Y2662D02*
D03*
X1984Y4686D02*
D03*
X2365Y6053D02*
D03*
X2149Y6264D02*
D03*
X4542D02*
D03*
X3503Y5222D02*
D03*
X5588Y6096D02*
D03*
X4575Y3360D02*
D03*
X1369Y3713D02*
D03*
X4343Y3167D02*
D03*
X792Y5431D02*
D03*
X3686Y5697D02*
D03*
X4437Y4796D02*
D03*
X2131Y1227D02*
D03*
X5400Y1928D02*
D03*
X3345Y1839D02*
D03*
X2761Y2164D02*
D03*
X2830Y4816D02*
D03*
X3510Y4961D02*
D03*
X5723Y5784D02*
D03*
X5004Y7795D02*
D03*
X3863Y7313D02*
D03*
X4562Y6604D02*
D03*
X3124Y6546D02*
D03*
X490Y6553D02*
D03*
X5687Y3907D02*
D03*
X5116Y4221D02*
D03*
X4227Y4417D02*
D03*
X3175Y3851D02*
D03*
X3200Y3117D02*
D03*
X3592Y3203D02*
D03*
X2995Y3241D02*
D03*
X2271Y6609D02*
D03*
X1438Y7127D02*
D03*
X4351Y5192D02*
D03*
X3386Y7140D02*
D03*
X1633Y6170D02*
D03*
X1308Y5933D02*
D03*
X4178Y3058D02*
D03*
X2139Y4836D02*
D03*
X3203Y5357D02*
D03*
X4209Y2355D02*
D03*
X3340Y7412D02*
D03*
X4084Y7071D02*
D03*
X2845Y7315D02*
D03*
X3774Y7742D02*
D03*
X5296Y5710D02*
D03*
X5773Y5448D02*
D03*
X5215Y4590D02*
D03*
X5098Y4849D02*
D03*
X5905Y4851D02*
D03*
X6253Y3114D02*
D03*
X4892Y4442D02*
D03*
X2452Y4107D02*
D03*
X465Y2014D02*
D03*
X297Y3642D02*
D03*
X2095Y7978D02*
D03*
X439Y6924D02*
D03*
X3950Y6472D02*
D03*
X5100Y5156D02*
D03*
X1349Y6233D02*
D03*
X4094Y1199D02*
D03*
X4559Y1168D02*
D03*
X2885Y8095D02*
D03*
D77*
X3399Y5832D02*
D03*
X3500Y6510D02*
D03*
X1844Y4094D02*
D03*
X1176Y5085D02*
D03*
X2941Y5413D02*
D03*
M02*
